<?xml version="1.0" encoding="UTF-8" standalone="no"?>
<svg
   xmlns:dc="http://purl.org/dc/elements/1.1/"
   xmlns:cc="http://creativecommons.org/ns#"
   xmlns:rdf="http://www.w3.org/1999/02/22-rdf-syntax-ns#"
   xmlns:svg="http://www.w3.org/2000/svg"
   xmlns="http://www.w3.org/2000/svg"
   version="1.1"
   id="svg4479"
   viewBox="0 0 128 128"
   height="128"
   width="128">
  <defs
     id="defs4481" />
  <metadata
     id="metadata4484">
    <rdf:RDF>
      <cc:Work
         rdf:about="">
        <dc:format>image/svg+xml</dc:format>
        <dc:type
           rdf:resource="http://purl.org/dc/dcmitype/StillImage" />
        <dc:title></dc:title>
      </cc:Work>
    </rdf:RDF>
  </metadata>
  <g
     transform="translate(-47.428571,-262.64791)"
     id="layer1">
    <path
       id="path5078"
       d="m 47.428571,262.64792 0,96 0,0 c 0,12.91998 7.81873,24.62334 19.7552,29.56766 11.93633,4.94431 25.73424,2.19808 34.869919,-6.93759 9.13542,-9.13569 11.88159,-22.93856 6.93728,-34.87488 -4.94384,-11.93616 -16.642559,-19.7552 -29.562389,-19.7552 l 0,16 c 6.49438,0 12.29598,3.88016 14.78144,9.88015 2.48532,6.00017 1.12351,12.84528 -3.46881,17.43777 -4.59232,4.59183 -11.4376,5.95375 -17.43775,3.46832 -6.00001,-2.48497 -9.87489,-8.29201 -9.87489,-14.78623 l 0,0 0,-80.00001 19.05712,0 56.000049,112 36.94283,0 0,-127.99999 -48,0 0,47.99999 15.99999,0 0,-32 16,0 0,95.99999 -11.05728,0 -55.999989,-111.99998 z"
       style="color:#000000;font-style:normal;font-variant:normal;font-weight:normal;font-stretch:normal;font-size:medium;line-height:normal;font-family:sans-serif;text-indent:0;text-align:start;text-decoration:none;text-decoration-line:none;text-decoration-style:solid;text-decoration-color:#000000;letter-spacing:normal;word-spacing:normal;text-transform:none;direction:ltr;block-progression:tb;writing-mode:lr-tb;baseline-shift:baseline;text-anchor:start;white-space:normal;clip-rule:nonzero;display:inline;overflow:visible;visibility:visible;opacity:1;isolation:auto;mix-blend-mode:normal;color-interpolation:sRGB;color-interpolation-filters:linearRGB;solid-color:#000000;solid-opacity:1;fill:#ffffff;fill-opacity:1;fill-rule:nonzero;stroke:none;stroke-width:6;stroke-linecap:butt;stroke-linejoin:miter;stroke-miterlimit:4;stroke-dasharray:none;stroke-dashoffset:0;stroke-opacity:1;color-rendering:auto;image-rendering:auto;shape-rendering:auto;text-rendering:auto;enable-background:accumulate" />
  </g>
</svg>
