<?xml version="1.0" encoding="UTF-8" standalone="no"?>
<svg xmlns="http://www.w3.org/2000/svg" version="1.1"
     id="outline" viewBox="0 0 128 128" height="128" width="128">
    <path d="m 32.744195,79.627915 c 6.343348,0 12.010027,3.78992 14.437686,9.65037 2.427522,5.86064 1.097382,12.546555 -3.38814,17.032235 -4.485522,4.48505 -11.17161,5.8153 -17.032221,3.38766 -5.860475,-2.42718 -9.645242,-8.09917 -9.645242,-14.442365 l 0,0 0,-78.13954 18.613933,0 54.697718,109.395345 36.083701,0 0,-125.023245 -46.883721,0 0,46.88371 15.62789,0 0,-31.25581 15.627911,0 0,93.767425 -10.80013,0 -54.697668,-109.395325 -43.897541,0 0,93.76744 0,0 c 0,12.619525 7.636899,24.050705 19.295777,28.880045 11.658741,4.82933 25.135769,2.14697 34.058991,-6.77626 8.92297,-8.92322 11.60527,-22.405095 6.77595,-34.063815 -4.82887,-11.65858 -16.255525,-19.29578 -28.874894,-19.29578 l 0,15.62791"
          style="color:#000000;font-style:normal;font-variant:normal;font-weight:normal;font-stretch:normal;font-size:medium;line-height:normal;font-family:sans-serif;text-indent:0;text-align:start;text-decoration:none;text-decoration-line:none;text-decoration-style:solid;text-decoration-color:#000000;letter-spacing:normal;word-spacing:normal;text-transform:none;direction:ltr;block-progression:tb;writing-mode:lr-tb;baseline-shift:baseline;text-anchor:start;white-space:normal;clip-rule:nonzero;display:inline;overflow:visible;visibility:visible;opacity:1;isolation:auto;mix-blend-mode:normal;color-interpolation:sRGB;color-interpolation-filters:linearRGB;solid-color:#000000;solid-opacity:1;fill:none;fill-opacity:1;fill-rule:nonzero;stroke:#ff4f0d;stroke-width:1;stroke-linecap:round;stroke-linejoin:miter;stroke-miterlimit:4;stroke-dasharray:none;stroke-dashoffset:0;stroke-opacity:1;color-rendering:auto;image-rendering:auto;shape-rendering:auto;text-rendering:auto;enable-background:accumulate" />
</svg>
