<?xml version="1.0" encoding="UTF-8" standalone="no"?>
<svg
   xmlns:dc="http://purl.org/dc/elements/1.1/"
   xmlns:cc="http://creativecommons.org/ns#"
   xmlns:rdf="http://www.w3.org/1999/02/22-rdf-syntax-ns#"
   xmlns:svg="http://www.w3.org/2000/svg"
   xmlns="http://www.w3.org/2000/svg"
   xmlns:sodipodi="http://sodipodi.sourceforge.net/DTD/sodipodi-0.dtd"
   xmlns:inkscape="http://www.inkscape.org/namespaces/inkscape"
   sodipodi:docname="map_herford.svg"
   inkscape:version="1.0 (4035a4f, 2020-05-01)"
   version="1.1"
   id="svg2"
   viewBox="0 0 780.15906 817.61292"
   height="230.74854mm"
   width="220.17822mm">
  <defs
     id="defs4">
    <marker
       inkscape:isstock="true"
       style="overflow:visible"
       id="Arrow1Mend"
       refX="0"
       refY="0"
       orient="auto"
       inkscape:stockid="Arrow1Mend">
      <path
         inkscape:connector-curvature="0"
         transform="matrix(-0.4,0,0,-0.4,-4,0)"
         style="fill:#000000;fill-opacity:1;fill-rule:evenodd;stroke:#000000;stroke-width:1pt;stroke-opacity:1"
         d="M 0,0 5,-5 -12.5,0 5,5 0,0 Z"
         id="path4494" />
    </marker>
    <marker
       inkscape:isstock="true"
       style="overflow:visible"
       id="Arrow2Lend"
       refX="0"
       refY="0"
       orient="auto"
       inkscape:stockid="Arrow2Lend">
      <path
         inkscape:connector-curvature="0"
         transform="matrix(-1.1,0,0,-1.1,-1.1,0)"
         d="M 8.7185878,4.0337352 -2.2072895,0.01601326 8.7185884,-4.0017078 c -1.7454984,2.3720609 -1.7354408,5.6174519 -6e-7,8.035443 z"
         style="fill:#000000;fill-opacity:1;fill-rule:evenodd;stroke:#000000;stroke-width:0.625;stroke-linejoin:round;stroke-opacity:1"
         id="path4506" />
    </marker>
    <clipPath
       id="clipPath4153"
       clipPathUnits="userSpaceOnUse">
      <rect
         y="149.60614"
         x="5.2796631"
         height="562.65497"
         width="562.65497"
         id="rect4155"
         style="opacity:1;fill:none;fill-opacity:1;stroke:#00aa88;stroke-width:2;stroke-miterlimit:4;stroke-dasharray:none;stroke-dashoffset:0;stroke-opacity:1" />
    </clipPath>
  </defs>
  <sodipodi:namedview
     inkscape:document-rotation="0"
     inkscape:window-maximized="1"
     inkscape:window-y="174"
     inkscape:window-x="0"
     inkscape:window-height="855"
     inkscape:window-width="1440"
     fit-margin-bottom="0"
     fit-margin-right="0"
     fit-margin-left="0"
     fit-margin-top="0"
     inkscape:object-nodes="false"
     inkscape:snap-bbox="true"
     showgrid="false"
     inkscape:current-layer="layer1"
     inkscape:document-units="px"
     inkscape:cy="499.97874"
     inkscape:cx="250.51067"
     inkscape:zoom="0.52860808"
     inkscape:pageshadow="2"
     inkscape:pageopacity="0.0"
     borderopacity="1.0"
     bordercolor="#666666"
     pagecolor="#ffffff"
     id="base" />
  <metadata
     id="metadata7">
    <rdf:RDF>
      <cc:Work
         rdf:about="">
        <dc:format>image/svg+xml</dc:format>
        <dc:type
           rdf:resource="http://purl.org/dc/dcmitype/StillImage" />
        <dc:title />
      </cc:Work>
    </rdf:RDF>
  </metadata>
  <g
     transform="translate(51.552377,-110.02742)"
     id="layer1"
     inkscape:groupmode="layer"
     inkscape:label="Layer 1">
    <g
       transform="matrix(0.9146348,0,0,0.9146348,12.127441,37.961065)"
       id="g4256">
      <path
         style="fill:#bebebe;fill-opacity:1"
         d="m 245.87167,892.34959 c -11.59828,-23.66924 1.57933,-85.62597 -40.77547,-66.3554 -49.43537,7.60078 -100.21201,15.90852 -150.000004,6.0923 -39.761093,-3.35178 -80.949668,-6.86907 -116.687534,-25.42155 -11.322972,-21.51468 38.656356,14.27492 54.6528445,11.10775 37.9587105,4.7193 76.5172915,8.74616 114.2846935,12.8095 40.55205,-5.36823 81.7045,-6.84875 121.67875,-16.328 -15.74802,-83.00058 -49.72099,-168.91679 -23.6062,-253.52179 14.8847,-24.0842 -12.84632,-39.47027 -34.05613,-18.28407 -21.166,17.51585 -41.02608,28.59578 -64.44089,45.1646 -21.404904,19.12709 -44.801732,35.51779 -63.172819,57.83646 -36.9492765,27.33523 -72.630648,56.50516 -109.758815,83.4608 11.46293,-28.97621 52.464781,-44.75145 76.24789,-67.3106 28.230667,-17.85539 47.065913,-44.78674 73.045052,-65 25.158472,-18.81064 47.567152,-37.03195 72.615382,-52.62929 41.06856,-26.47915 22.25192,-48.98457 0.89068,-73.65233 -22.12618,-26.02724 -43.68875,-54.036 -72.952642,-75.78937 -24.653541,-18.32626 -36.115804,-28.81553 -17.19489,-56.95649 19.367977,-28.80587 27.56635,-85.95708 74.431522,-71.85439 73.67264,10.84225 147.28374,26.86447 221.94854,27.53079 20.59536,-7.47328 67.67489,-14.40105 63.36845,-46.02607 -11.21696,-28.04972 -20.81727,-61.13496 -20.32082,-89.63463 15.93139,16.10433 25.27491,72.78249 31.41174,84.88892 12.41774,24.49709 27.92609,44.57736 41.14458,64.53785 10.35212,15.63214 22.78687,10.56519 34.74517,2.81751 11.95831,-7.74767 25.57095,-19.81866 36.94018,-29.74901 42.1455,-35.29897 89.97488,-84.55957 133.62727,-117.96173 47.14693,-16.18505 -19.55964,26.09413 -27.38352,37.47925 -34.99138,34.17622 -74.76752,65.88549 -110.50334,98.89072 -13.2424,11.94782 -67.47465,41.17602 -26.29461,39.15678 73.87556,-54.7972 135.10161,-125.02828 209.68148,-178.863 27.62673,0.8842 -26.52798,28.83238 -33.01054,39.21616 -57.68243,51.27927 -112.03941,106.69211 -173.80449,153.08605 24.19611,23.14327 50.83822,44.98272 81.70526,60.32971 40.55834,20.46723 80.00303,43.39603 121.06487,62.6784 11.77266,-9.97852 15.65934,-26.39011 13.62548,0.83864 4.61333,34.486 -33.01254,56.48616 -52.80068,81.18888 -89.99856,98.64599 -203.05766,172.96791 -320.53587,234.8091 -30.00835,18.58827 -71.36789,26.28379 -98.6838,41.24384 -2.23271,14.66584 24.69944,71.14218 0.7402,56.33667 -15.56053,-77.22119 -39.14983,-153.05809 -48.54235,-231.42652 -6.54321,-34.89368 6.31585,-66.99126 6.59164,-97.54532 -20.11134,-0.84542 -18.32422,53.82575 -19.36688,75.53218 7.83191,87.08841 34.85147,170.97145 50.52364,256.7767 -2.30856,2.87489 -8.27618,2.47896 -11.07302,0.5 z m 33.02704,-78.1767 c 48.33509,-11.93142 92.50783,-36.9928 134.96413,-61.92675 -23.32181,-35.01644 -48.81582,-68.7605 -69.91861,-105.23553 -19.32678,-21.29361 20.77283,-33.96661 9.33676,-5.6919 20.13293,37.176 46.61737,71.03193 70.13641,106.28088 79.44928,-50.50637 159.94259,-101.10731 226.03428,-168.99457 25.72611,-29.02988 57.53914,-53.71413 78.10448,-86.72424 -27.2228,-22.31345 -66.25341,-36.31357 -98.04316,-55.10856 -29.6125,-17.61574 -67.66849,-29.91693 -88.95445,-55.59636 -31.1357,-43.01072 -66.93517,9.2617 -96.7983,23.58568 -58.86176,39.4526 -119.63583,77.28617 -173.05092,123.97053 -26.94665,26.71268 -40.1375,62.20636 -41.28587,98.8994 -0.26557,64.47911 19.36272,126.52958 33.70124,188.75636 4.6208,2.69411 10.93325,-2.30052 15.77401,-2.21494 z M 250.97862,535.09961 c 55.83174,-60.91261 132.98946,-96.2462 196.36758,-148.07025 13.92324,-11.38498 75.42659,-33.6465 41.52469,-46.55081 -68.3823,41.18813 -133.09856,88.48326 -200.02494,132.07622 -20.25032,19.82682 -74.13491,48.51203 -55.54772,79.30859 6.07083,9.19078 12.33821,-14.5393 17.68039,-16.76375 z m -30.61247,-8.18934 c 14.70308,-31.64748 42.33141,-49.34429 69.4466,-69.1635 -33.19381,13.13249 -59.36191,48.15039 -97.59454,46.15388 9.58633,2.5518 16.62051,40.83884 28.14794,23.00962 z m -1.66805,-39.44926 c 33.24355,-20.77592 65.46574,-42.39974 103.87286,-51.13824 54.45125,-34.80782 107.05444,-72.44873 161.55416,-107.19946 -24.93683,-8.775 -28.02328,-65.83019 -54.53303,-52.48472 -30.84507,23.39552 -69.93974,31.6968 -107.92853,25.75594 -26.5976,6.62605 -77.94183,-26.24916 -89.70696,3.1147 -8.61796,31.12603 -15.90845,62.91946 -34.30816,90.07507 -0.65835,17.46761 -32.6284,43.09226 -16.14388,10.18198 15.49129,-29.20324 30.93039,-58.41607 37.01468,-91.38198 23.7356,-42.83718 -49.65226,-25.34238 -73.42089,-37.22536 -51.714712,-15.7666 -58.057862,52.95681 -77.592992,84.36306 14.12665,27.99999 63.526962,49.19541 83.850492,82.9304 19.44255,19.81468 25.18998,61.40555 67.34225,43.00861 z"
         id="path4192"
         inkscape:connector-curvature="0"
         sodipodi:nodetypes="ccccccccccccccccssccccssscccccccccccccccccccccccccccccccccccsccccccccccccccccccccc" />
      <path
         style="fill:#4d4d4d;fill-opacity:1"
         d="m 172.72267,223.15905 -0.24073,42.88732 28.09279,8.09823 c 44.67247,5.61541 98.43402,13.50267 134.30976,14.1765 l 33.86112,-4.56511 32.97701,-23.31927 -0.6562,-23.71424 -8.48315,-43.90478 -1.76821,-9.57626 -10.74001,-3.16795 -23.58539,-2.85782 C 308.25355,170.18932 252.36674,166.63387 214.14772,163.6505 l -11.29671,11.35466 z m 462.51096,-64.79417 -16.72637,1.66402 -11.02709,3.33378 -13.09755,6.97825 -9.83667,5.81933 -8.04353,8.42879 -10.84976,9.7097 -12.16729,7.96369 -8.09362,10.27581 -11.93801,11.65772 -11.10243,7.15976 -8.30327,10.46407 -5.58381,3.42337 25.7965,22.67882 9.47849,-4.0905 18.45986,-18.09846 18.84319,-16.53926 14.292,-14.98386 22.3158,-23.11151 11.49316,-3.91133 9.4207,-5.4305 6.39848,-3.3776 13.90848,-19.33933 z m 90.34067,37.80928 -74.88745,68.84273 -5.42198,4.65089 -24.99029,25.33821 -48.86287,46.19404 3.84065,10.8991 12.29638,6.82003 49.14491,-43.61488 29.2693,-24.90001 6.63734,-7.99418 50.41421,-50.03904 5.06183,-3.56821 c 28.83035,-40.90694 -2.50203,-32.62868 -2.50203,-32.62868 z m -275.95487,-8.92248 -8.52112,0.47842 -0.77819,22.58161 4.58028,12.60696 10.77472,14.17569 9.74427,18.34626 20.3899,-17.28073 -5.15818,-12.10376 1.81249,-9.69635 -9.98114,-17.68864 -0.37564,-10.80189 c -7.93497,-3.19024 -15.24216,-2.59155 -22.48739,-0.61757 z m 38.40678,68.45388 -13.36727,13.99842 6.37284,12.33778 23.66113,17.87777 12.99164,-13.25123 -2.53091,-10.2129 -26.40319,-20.68503 z m -363.76278,32.52384 -10.49149,5.58488 C 95.14552,321.217 90.802034,342.39056 85.712185,374.43293 l 14.205126,9.93461 c 10.368839,10.37446 23.935409,11.27973 33.063799,19.18684 l 16.05074,4.97078 15.96711,5.17159 c 12.35018,-19.79033 26.1401,-31.00376 36.79212,-51.53475 l 17.04667,-48.21164 -8.58235,-6.20943 -84.42602,-19.48484 z m 286.73927,19.49944 -19.42109,1.34 -12.74479,4.51474 -37.53451,3.40702 -51.24704,-7.69129 -6.69827,2.71063 -6.94561,30.85219 -1.7913,8.52601 11.7898,-0.75291 17.1944,3.98756 -1.24139,20.6135 -11.37086,10.71331 -8.53651,7.27179 -10.34327,-5.8098 -42.41694,-17.66768 -10.41073,11.05159 -24.50984,52.55318 9.71538,9.41043 7.84895,10.79045 -5.44318,14.82948 22.30633,11.09353 12.20773,-12.01608 41.93539,-24.34094 63.56197,-40.47039 2.27855,-29.01469 c -9.52876,-7.71926 -13.60277,-4.00577 -5.75333,-12.73278 l 2.84679,-10.70658 24.88743,-2.58468 4.27013,-5.63063 20.45923,-4.9654 16.48949,1.80508 9.62681,-2.3407 -7.77576,-26.90083 z m -385.924629,103.07063 11.416029,3.0288 9.482343,-0.11817 4.339552,3.46148 -2.698562,10.80379 9.468832,12.85286 7.960679,6.6542 -5.388544,13.46462 -19.16754,28.79942 11.067417,11.45186 12.953175,-2.27778 18.758477,-23.08292 7.552305,-2.24729 20.023936,-30.47479 -10.35865,-15.48137 -10.042793,-13.88787 -21.651511,-22.35859 -14.646237,-2.5294 -17.612742,-7.94967 c -3.818722,9.96361 -34.780301,-8.64422 -11.456166,29.89082 z m 568.641949,-45.72921 -10.02544,13.58099 11.60873,17.74773 105.40436,59.58762 19.76241,8.61848 11.07136,-18.19376 -9.37091,-9.49833 -121.86131,-69.47535 z m -75.54624,60.94384 -23.97434,15.13446 -15.661,9.52485 -31.93532,22.16222 -15.25677,8.78713 -10.69958,3.36237 -8.40169,6.69233 -32.1007,-4.50031 -6.66821,-1.4982 -9.18954,-2.08718 -39.70981,24.48072 -46.26824,33.98519 -6.36002,15.55381 -5.28332,8.12572 -4.63038,4.87962 -13.81587,35.06427 -6.10027,55.48516 9.53816,72.21273 6.58546,14.31866 11.13103,38.77014 15.04099,-0.5928 4.9001,5.26466 18.57742,-8.67087 6.96484,-7.66444 13.59833,-4.86819 8.21106,-2.98305 5.73598,-2.38645 12.92428,-6.45215 6.98023,-2.34451 6.05953,-2.91443 12.41769,-5.91464 6.38703,-2.81912 -11.20419,-28.0445 -9.935,5.27228 -18.67751,5.66684 -7.09196,5.86508 -20.38023,6.15672 -3.8869,4.61086 -17.9438,1.87752 -4.17773,-12.94626 11.8822,-9.79737 0.36596,-12.19906 -7.41937,-11.12783 -10.2123,-6.68853 -0.38136,-32.52574 11.30637,-4.37642 6.40007,-38.54661 3.98364,-15.52954 -8.40179,-16.31052 43.12965,-44.18158 32.48402,-13.84783 13.37101,2.95635 18.14026,8.05329 7.2383,13.86501 12.06523,14.57597 4.0506,9.15692 6.46022,7.28894 8.58473,12.38014 5.37967,11.29938 27.21411,-15.03345 1.21339,-9.68299 -9.37052,-12.50024 -14.10117,-18.60357 -6.30992,-4.83768 -12.71236,-16.87855 11.67993,-6.20055 c 31.93195,-20.6444 53.03217,-34.89091 80.77175,-53.88745 l 5.99415,-5.7164 4.48591,3.938 3.9293,6.71521 12.55822,2.83628 4.58609,6.80669 8.70997,3.2118 12.12874,-1.50965 4.37229,6.41595 8.87939,3.90179 4.43966,5.8403 4.28758,6.93631 8.52112,17.62574 -3.39569,9.84693 -4.55918,12.70418 -21.61679,11.20979 -5.50678,9.57246 -8.06848,9.46951 -9.57474,11.04016 15.03913,17.47134 10.7689,-4.29825 8.44794,-4.29827 11.00204,-5.79074 5.09644,-9.15501 6.43714,-9.84122 7.9587,-3.1241 8.67142,-14.96292 0.0572,-7.79214 10.83448,-7.27751 5.67237,-4.72332 -0.96685,-7.94655 11.90912,-12.36108 -14.96201,-16.79467 c -17.75424,8.59683 -21.06738,-19.16876 -28.52011,-32.63822 -31.81672,-12.09823 -69.45235,-25.77079 -93.78459,-39.0819 l -6.34464,-1.61722 z m -398.82188,25.578 -33.591097,40.10219 -14.068833,18.47809 16.175593,22.25185 -12.097968,6.47504 -8.080104,25.94588 1.822151,8.64418 -14.461329,8.4974 -6.385072,-10.3368 -3.640355,-9.20076 -36.3747105,-40.65337 -13.3691819,6.03092 -22.0867986,28.68304 9.1752,13.3305 13.0252353,15.6518 -3.4766417,9.98417 18.2884854,19.84825 0.356334,7.68541 -15.5341364,11.34132 -10.0581886,-1.9347 -7.396292,4.85485 -12.167285,9.25223 -16.454828,14.32246 c 6.287736,29.63902 18.636388,12.81103 27.954582,19.21654 L 6.3542395,657.84394 38.406781,636.75862 37.497629,629.666 25.145426,619.43214 l -7.213259,-5.3047 7.211386,-11.55669 10.237257,-1.89086 12.334846,17.44466 8.001112,-0.33357 20.639305,-19.73009 18.235508,-15.5233 -10.67068,-23.49653 11.70892,-6.20626 4.10071,-10.88005 9.555409,-7.35183 3.39963,3.95515 2.19177,9.02313 10.9328,12.26423 22.61313,-16.34829 5.4138,-12.11173 -7.13436,-16.8957 2.76976,-7.43381 -22.38533,-48.44172 z m 258.41374,98.66754 -24.22286,15.34795 -7.88366,11.96652 22.47397,35.46114 3.83296,4.73095 19.29781,24.10648 16.66859,-8.22102 19.39219,-14.60074 -11.01407,-20.53501 -33.59671,-45.93464 z m -223.23322,6.51125 -51.22159,36.13418 -15.994143,14.65966 13.234343,10.17288 12.32912,7.12501 11.83485,-2.42562 22.64074,33.52751 -9.28777,8.7702 -8.08394,7.57082 11.56632,6.76668 8.97703,15.32177 6.33753,24.42239 -14.61064,5.84428 -23.40127,7.27542 -1.23459,13.71633 -31.485031,21.64633 -16.954965,22.32175 -5.204327,-4.40692 -11.086746,-8.88815 -12.791345,-4.47934 -18.151783,8.07426 -1.394448,19.15443 4.709367,6.12241 11.404492,2.79434 14.035598,-2.03 18.650589,7.32325 5.493374,-4.1515 9.110457,4.28684 5.709051,6.81622 6.282998,-8.12 15.333809,-16.77562 5.02277,10.17173 3.45219,12.07822 28.6914,-1.81271 1.04771,-11.93231 -4.46658,-6.91905 -12.54282,-4.60897 -10.49356,-44.03098 11.72677,-4.8072 29.10885,-6.04425 5.18795,16.14152 3.35831,11.05667 4.81332,12.01227 0.54258,13.746 9.55996,19.99584 27.24104,-2.60183 0.62661,-20.56609 -33.69997,-130.18954 2.87952,-8.83097 -7.5099,-33.89624 -17.78769,-55.01395 z m 539.40351,12.29246 -15.05837,14.05561 4.47437,12.29818 -17.12518,20.42199 7.36553,13.78876 -15.67088,17.7382 13.75158,17.32393 42.27722,40.10315 27.01806,-27.51727 38.7685,-39.57568 -7.00941,-16.88984 -44.99579,-41.98015 -11.41416,5.67827 -13.18838,-8.33531 z m -160.78465,45.41673 -61.82837,42.86826 -7.64855,8.88054 -23.00563,15.022 -7.80456,-2.78291 -18.53896,-15.67961 -22.41807,11.16596 14.27446,20.27522 5.45668,9.51146 13.50977,18.73319 17.29273,-7.86459 11.85527,-2.50462 12.87607,-10.99251 31.93994,-21.55517 53.22915,-37.94765 z m -502.389306,48.70485 -15.449375,26.95802 10.277789,8.35254 12.423503,-3.28421 5.190816,-9.74973 -1.292379,-14.50924 z m 522.719546,29.96775 -26.71531,15.04869 -63.95673,30.6025 -17.75297,16.38104 2.35369,11.3051 2.8814,12.27531 -12.87793,20.23329 -19.15718,14.38537 -39.9169,12.16856 -9.77119,-0.97593 -20.03745,5.68972 -68.13642,16.37153 8.14558,36.06347 17.14047,2.8797 2.84846,-4.82414 -2.46513,-18.62814 23.36774,-6.39687 13.45771,-1.62972 7.84322,27.1391 32.94239,4.98063 29.41753,-6.3416 27.00297,-9.39486 12.18011,-4.12131 7.93938,13.84974 17.94765,5.38974 22.17921,-1.82723 -5.47503,-18.68763 -9.80679,-25.57209 9.65561,-5.89367 15.39356,-14.28483 44.3315,-26.45623 12.22509,-1.22181 29.53122,-15.98839 7.23259,-7.77691 18.579,-8.41217 14.68311,-12.72651 -11.34098,-24.43815 -9.52652,-8.30108 -22.05407,11.84833 -15.12778,0.0153 -24.17079,-32.52384 -0.99002,-0.20397 z m -570.593171,5.26848 -19.13983,13.6801 2.184213,11.67488 -8.698345,0.86156 -9.694153,-5.50292 -11.127179,14.01559 1.7181,8.71661 9.788529,18.0222 -9.097056,-1.21991 1.425326,23.42982 19.883314,16.76228 9.861723,-6.94394 2.450026,-5.91273 -11.606794,-13.28554 -1.608309,-11.48618 13.40579,-12.94244 0.93994,-5.4019 8.020353,-10.06423 17.2946121,-14.74179 -12.9011361,-18.08512 z m 46.639036,10.82857 -25.0337675,14.34152 5.9459185,10.94103 29.60439,-1.34952 -5.133027,-23.29258 z m 73.319545,62.65744 7.13575,12.48628 -0.71981,9.24329 -13.546369,-12.6813 6.392779,-9.01206 z m 65.80393,62.11422 -24.24594,5.49339 -8.86214,3.97041 7.82587,12.68513 29.52541,-5.4324 4.32032,-7.29276 12.70663,1.20085 2.47115,22.94186 -12.35407,2.40169 -6.01654,4.45112 3.83423,6.78917 52.63499,5.66304 7.47725,-4.46219 -6.72215,-6.35685 -12.65081,0.0514 -9.2145,-7.42427 18.65631,-5.47623 3.84075,-5.35997 -7.81039,-33.31678 z"
         id="path4222"
         inkscape:connector-curvature="0"
         sodipodi:nodetypes="cccccccccccccccccccccccccccccccccccccccccccccccccccccccccccccccccccccccccccccccccccccccccccccccccccccccccccccccccccccccccccccccccccccccccccccccccccccccccccccccccccccccccccccccccccccccccccccccccccccccccccccccccccccccccccccccccccccccccccccccccccccccccccccccccccccccccccccccccccccccccccccccccccccccccccccccccccccccccccccccccccccccccccccccccccccccccccccccccccccccccccccccccccccccccccccccccccccccccccccccccccccccccccccccccccccccccccccccccccccccccccccccccccccccccccccccccccccccccccccccccccccccccccccc" />
    </g>
    <path
       inkscape:connector-curvature="0"
       id="path4304"
       d="m 242.53755,388.09056 13.549,44.99302 13.549,-44.99302 -13.549,0 -13.549,0 z"
       style="fill:#00aa84;fill-opacity:1;fill-rule:evenodd;stroke:none;stroke-width:1px;stroke-linecap:butt;stroke-linejoin:miter;stroke-opacity:1" />
    <g
       transform="matrix(0.78937719,0,0,0.78937719,-114.45631,95.08523)"
       id="g4464">
      <g
         id="g4449"
         transform="translate(-30.052038,-11.869292)">
        <g
           transform="translate(16.162435,-4.2931482)"
           id="g4429">
          <g
             id="g4412">
            <g
               transform="matrix(1.4209991,0,0,1.4209991,113.29788,-298.70055)"
               id="g4389">
              <path
                 style="color:#000000;font-style:normal;font-variant:normal;font-weight:normal;font-stretch:normal;font-size:medium;line-height:normal;font-family:sans-serif;text-indent:0;text-align:start;text-decoration:none;text-decoration-line:none;text-decoration-style:solid;text-decoration-color:#000000;letter-spacing:normal;word-spacing:normal;text-transform:none;direction:ltr;block-progression:tb;writing-mode:lr-tb;baseline-shift:baseline;text-anchor:start;white-space:normal;clip-rule:nonzero;display:inline;overflow:visible;visibility:visible;opacity:1;isolation:auto;mix-blend-mode:normal;color-interpolation:sRGB;color-interpolation-filters:linearRGB;solid-color:#000000;solid-opacity:1;fill:#ffffff;fill-opacity:1;fill-rule:nonzero;stroke:none;stroke-width:6;stroke-linecap:butt;stroke-linejoin:miter;stroke-miterlimit:4;stroke-dasharray:none;stroke-dashoffset:0;stroke-opacity:1;color-rendering:auto;image-rendering:auto;shape-rendering:auto;text-rendering:auto;enable-background:accumulate"
                 d="m 231.89516,423.58713 c 0.78496,14.8593 -1.49016,29.96619 1.01172,44.67773 3.87727,11.76495 22.05993,14.26566 28.62305,3.5586 1.31361,-1.90147 1.99996,-5.0334 2.89062,-0.70508 1.60959,3.97373 4.57823,8.23272 9.56641,7.4043 4.98818,-0.82842 12.64762,2.58664 15.08398,-3.37305 l 0,-53.5625 -26.44141,0 c -0.55509,3.97899 1.60531,19.45941 -2.23633,9.51823 -2.58944,-4.91384 -3.83515,-12.00178 -10.99609,-9.51823 -5.49712,0.67019 -13.67689,-1.34226 -17.50195,1 z m 14.98633,12.15039 c 1.47688,3.50612 4.6713,8.21749 5.16211,10.91602 -2.42689,-1.08218 -6.86208,0.90529 -5.92578,-3.18555 0.31513,-1.72511 -1.85804,-7.23827 0.76367,-7.73047 z m 28.04297,24.8125 c -1.90886,-4.19572 -3.8544,-9.15706 -6.47071,-12.45703 2.15419,-0.17701 4.43428,0.0499 6.47071,-0.82617 z m -29.12305,-0.92578 c 1.91608,1.09715 6.33297,0.99204 3.74219,4.36719 -2.63032,2.67176 -4.14257,-2.64173 -3.74219,-4.36719 z"
                 id="path3639-8"
                 inkscape:connector-curvature="0"
                 sodipodi:nodetypes="cccczcccccccccccccccccc" />
              <rect
                 style="opacity:1;fill:#ffffff;fill-opacity:1;stroke:none;stroke-width:3.17700005;stroke-miterlimit:4;stroke-dasharray:none;stroke-dashoffset:0;stroke-opacity:1"
                 id="rect4385"
                 width="17.522322"
                 height="2.3214285"
                 x="234.15178"
                 y="421.08987" />
              <rect
                 style="opacity:1;fill:#ffffff;fill-opacity:1;stroke:none;stroke-width:3.17700005;stroke-miterlimit:4;stroke-dasharray:none;stroke-dashoffset:0;stroke-opacity:1"
                 id="rect4387"
                 width="7.1815534"
                 height="0.81285715"
                 x="272.85956"
                 y="477.81427" />
            </g>
            <ellipse
               ry="4.9244938"
               rx="5.4295697"
               cy="357.75604"
               cx="464.79645"
               id="path4410"
               style="opacity:1;fill:#ffffff;fill-opacity:1;stroke:none;stroke-width:3.17700005;stroke-miterlimit:4;stroke-dasharray:none;stroke-dashoffset:0;stroke-opacity:1" />
          </g>
          <g
             id="g4423">
            <path
               style="color:#000000;font-style:normal;font-variant:normal;font-weight:normal;font-stretch:normal;font-size:medium;line-height:normal;font-family:sans-serif;text-indent:0;text-align:start;text-decoration:none;text-decoration-line:none;text-decoration-style:solid;text-decoration-color:#000000;letter-spacing:normal;word-spacing:normal;text-transform:none;direction:ltr;block-progression:tb;writing-mode:lr-tb;baseline-shift:baseline;text-anchor:start;white-space:normal;clip-rule:nonzero;display:inline;overflow:visible;visibility:visible;opacity:1;isolation:auto;mix-blend-mode:normal;color-interpolation:sRGB;color-interpolation-filters:linearRGB;solid-color:#000000;solid-opacity:1;fill:#00aa88;fill-opacity:1;fill-rule:nonzero;stroke:none;stroke-width:6;stroke-linecap:butt;stroke-linejoin:miter;stroke-miterlimit:4;stroke-dasharray:none;stroke-dashoffset:0;stroke-opacity:1;color-rendering:auto;image-rendering:auto;shape-rendering:auto;text-rendering:auto;enable-background:accumulate"
               d="m 235.79523,425.48847 0,36.88095 0,0 c 0,4.96356 3.00377,9.4597 7.58948,11.35919 4.58566,1.8995 9.88649,0.84446 13.3962,-2.66525 3.5096,-3.50971 4.56463,-8.81245 2.66514,-13.3981 -1.89931,-4.5856 -6.39368,-7.58948 -11.35718,-7.58948 l 0,6.14681 c 2.49501,0 4.72384,1.49066 5.67869,3.79573 0.95479,2.30511 0.43162,4.93485 -1.33264,6.69918 -1.76426,1.76407 -4.39404,2.28729 -6.69917,1.33244 -2.30505,-0.95466 -3.7937,-3.18559 -3.7937,-5.68052 l 0,0 0,-30.73412 7.3213,0 21.51388,43.02776 14.19258,0 0,-49.17459 -18.44047,0 0,18.44047 6.14683,0 0,-12.29364 6.14682,0 0,36.88093 -4.24795,0 -21.51387,-43.02776 z"
               id="path3639"
               inkscape:connector-curvature="0"
               sodipodi:nodetypes="cccsccccscccccccccccccccccc"
               transform="matrix(1.4209991,0,0,1.4209991,113.29788,-298.70055)" />
            <rect
               y="334.90137"
               x="497.24759"
               height="8.3337584"
               width="9.5964489"
               id="rect4420"
               style="opacity:1;fill:#ffffff;fill-opacity:1;stroke:none;stroke-width:3.17700005;stroke-miterlimit:4;stroke-dasharray:none;stroke-dashoffset:0;stroke-opacity:1" />
          </g>
        </g>
        <path
           inkscape:connector-curvature="0"
           id="path4447"
           d="m 476.03439,325.55745 3.78807,8.08122 7.82868,-0.25254 2.02031,-4.04061 -3.283,-10.10153 -7.3236,-6.06091 -3.53554,3.78807 z"
           style="fill:#ffffff;fill-opacity:1;fill-rule:evenodd;stroke:none;stroke-width:1px;stroke-linecap:butt;stroke-linejoin:miter;stroke-opacity:1" />
      </g>
      <path
         style="fill:#ffffff;fill-opacity:1;fill-rule:evenodd;stroke:none;stroke-width:1px;stroke-linecap:butt;stroke-linejoin:miter;stroke-opacity:1"
         d="m 476.792,319.24399 14.64721,26.26397 1.51523,-24.24366 z"
         id="path4462"
         inkscape:connector-curvature="0" />
    </g>
    <path
       sodipodi:nodetypes="cc"
       inkscape:connector-curvature="0"
       id="path4260"
       d="M 294.74132,491.30459 406.13506,414.454"
       style="fill:none;fill-rule:evenodd;stroke:none;stroke-width:1px;stroke-linecap:butt;stroke-linejoin:miter;stroke-opacity:1" />
    <g
       style="font-style:normal;font-weight:normal;font-size:30px;line-height:0%;font-family:sans-serif;letter-spacing:0px;word-spacing:0px;fill:#000000;fill-opacity:1;stroke:none;stroke-width:1px;stroke-linecap:butt;stroke-linejoin:miter;stroke-opacity:1"
       id="text4262"
       transform="translate(5.7142857,-5.7142857)"
       aria-label="Johannisstr.">
      <path
         id="path939"
         style="font-style:normal;font-variant:normal;font-weight:normal;font-stretch:normal;font-family:'Source Sans Pro';-inkscape-font-specification:'Source Sans Pro';stroke:none"
         d="m 288.21019,488.67286 q -3.06096,2.06073 -6.2635,0.41944 l 0.78949,-2.05044 q 1.20089,0.60196 2.19926,0.5808 0.98163,-0.046 1.85263,-0.63244 1.31895,-0.88795 1.42986,-2.1199 0.0942,-1.25684 -1.16238,-3.12328 l -7.62302,-11.32308 2.09041,-1.40732 7.75705,11.52216 q 0.70366,1.04521 1.06657,2.17517 0.37103,1.08831 0.29265,2.1537 -0.0535,1.04864 -0.65644,2.0332 -0.57806,0.96781 -1.77258,1.77199 z" />
      <path
         id="path941"
         style="font-style:normal;font-variant:normal;font-weight:normal;font-stretch:normal;font-family:'Source Sans Pro';-inkscape-font-specification:'Source Sans Pro';stroke:none"
         d="m 301.63534,479.63467 q -1.11987,0.75393 -2.425,1.01777 -1.28026,0.2471 -2.58784,-0.0299 -1.32434,-0.30186 -2.58461,-1.15317 -1.25213,-0.89296 -2.25736,-2.38611 -1.02199,-1.51804 -1.36148,-2.98925 -0.33135,-1.51284 -0.11277,-2.85345 0.21859,-1.3406 0.92921,-2.43382 0.7355,-1.10997 1.85537,-1.86389 1.11986,-0.75393 2.40011,-1.00102 1.30514,-0.26385 2.62948,0.038 1.32434,0.30187 2.57647,1.19482 1.26027,0.85131 2.28226,2.36935 1.00523,1.49315 1.33658,3.006 0.33949,1.47121 0.12091,2.81181 -0.23534,1.31572 -0.97085,2.42569 -0.71062,1.09322 -1.83048,1.84714 z m -1.13927,-1.69224 q 0.77147,-0.51937 1.2007,-1.27849 0.41248,-0.784 0.45833,-1.68283 0.054,-0.94047 -0.26679,-1.95413 -0.32077,-1.01366 -1.02443,-2.05887 -0.70367,-1.04521 -1.52216,-1.72379 -0.83524,-0.70346 -1.72692,-1.00729 -0.8668,-0.32057 -1.73163,-0.20849 -0.88159,0.0872 -1.65305,0.60657 -0.77146,0.51937 -1.18394,1.30337 -0.42923,0.75912 -0.48322,1.69959 -0.0291,0.92372 0.30843,1.96226 0.32077,1.01366 1.02444,2.05887 0.70366,1.04521 1.52215,1.72379 0.81849,0.67858 1.68529,0.99916 0.87492,0.27893 1.75651,0.19174 0.86483,-0.11209 1.63629,-0.63146 z" />
      <path
         id="path943"
         style="font-style:normal;font-variant:normal;font-weight:normal;font-stretch:normal;font-family:'Source Sans Pro';-inkscape-font-specification:'Source Sans Pro';stroke:none"
         d="m 310.24313,473.40569 -11.92877,-17.71875 2.04064,-1.37382 3.25026,4.82786 1.60073,2.53885 q 0.31813,-1.40762 0.87845,-2.61664 0.54357,-1.23391 1.81275,-2.08836 1.91621,-1.29004 3.59141,-0.68191 1.70008,0.59138 3.27494,2.93066 l 5.1602,7.66485 -2.04065,1.37382 -4.9759,-7.39111 q -1.15602,-1.71713 -2.20612,-2.09512 -1.06686,-0.40287 -2.26139,0.40131 -0.94566,0.63665 -1.34903,1.59535 -0.40336,0.95869 -0.70425,2.49936 l 5.89737,8.75983 z" />
      <path
         id="path945"
         style="font-style:normal;font-variant:normal;font-weight:normal;font-stretch:normal;font-family:'Source Sans Pro';-inkscape-font-specification:'Source Sans Pro';stroke:none"
         d="m 326.79224,462.69831 q -1.51803,1.02199 -3.1415,0.813 -1.59857,-0.22573 -2.70433,-1.8682 -1.34031,-1.99087 -0.27707,-4.2256 1.04648,-2.25962 4.64386,-5.29629 -0.38534,-0.57238 -0.87835,-1.0361 -0.46813,-0.48047 -1.02669,-0.71924 -0.55856,-0.23876 -1.22382,-0.15255 -0.65713,0.0446 -1.4037,0.5472 -1.04521,0.70366 -1.69793,1.72173 -0.65271,1.01807 -1.03932,2.00165 l -1.75132,-0.88237 q 0.47753,-1.11712 1.36186,-2.43578 0.86758,-1.34355 2.33585,-2.33202 2.21484,-1.4911 4.13174,-0.79253 1.90014,0.67368 3.42475,2.9383 l 4.99266,7.41599 -1.69225,1.13927 -1.14592,-1.32611 -0.0747,0.0503 q -0.38514,1.30808 -1.02875,2.50084 -0.66035,1.16787 -1.80511,1.93855 z m -0.50849,-2.04456 q 0.87101,-0.58639 1.37441,-1.50393 0.48664,-0.94243 0.82152,-2.32517 l -2.26177,-3.35959 q -1.38401,1.22107 -2.24492,2.19848 -0.83603,0.96065 -1.23176,1.76954 -0.37083,0.79214 -0.33439,1.4909 0.0446,0.65713 0.42992,1.2295 0.70366,1.04521 1.62738,1.07431 0.92372,0.0291 1.81961,-0.57404 z" />
      <path
         id="path947"
         style="font-style:normal;font-variant:normal;font-weight:normal;font-stretch:normal;font-family:'Source Sans Pro';-inkscape-font-specification:'Source Sans Pro';stroke:none"
         d="m 336.34414,455.83373 -8.14239,-12.09454 1.69224,-1.13926 1.34698,1.62473 0.0747,-0.0503 q 0.28462,-1.45739 0.84495,-2.66642 0.56845,-1.25066 1.83763,-2.10511 1.91622,-1.29005 3.59141,-0.68191 1.70008,0.59138 3.27494,2.93066 l 5.1602,7.66485 -2.04064,1.37382 -4.97591,-7.39111 q -1.15601,-1.71713 -2.20612,-2.09512 -1.06686,-0.40287 -2.26138,0.40131 -0.94567,0.63665 -1.34903,1.59534 -0.40337,0.9587 -0.70425,2.49937 l 5.89736,8.75983 z" />
      <path
         id="path949"
         style="font-style:normal;font-variant:normal;font-weight:normal;font-stretch:normal;font-family:'Source Sans Pro';-inkscape-font-specification:'Source Sans Pro';stroke:none"
         d="m 349.95361,446.67147 -8.14239,-12.09454 1.69224,-1.13927 1.34697,1.62474 0.0747,-0.0503 q 0.28462,-1.45739 0.84494,-2.66642 0.56846,-1.25066 1.83764,-2.10511 1.91621,-1.29005 3.59141,-0.68191 1.70007,0.59138 3.27494,2.93066 l 5.1602,7.66485 -2.04065,1.37382 -4.9759,-7.39111 q -1.15602,-1.71713 -2.20612,-2.09512 -1.06686,-0.40288 -2.26139,0.40131 -0.94566,0.63665 -1.34903,1.59534 -0.40336,0.9587 -0.70425,2.49937 l 5.89737,8.75983 z" />
      <path
         id="path951"
         style="font-style:normal;font-variant:normal;font-weight:normal;font-stretch:normal;font-family:'Source Sans Pro';-inkscape-font-specification:'Source Sans Pro';stroke:none"
         d="m 363.56307,437.50918 -8.14238,-12.09454 2.04064,-1.37382 8.14239,12.09454 z m -8.77257,-15.2868 q -0.59726,0.4021 -1.27163,0.31363 -0.64948,-0.10523 -1.03482,-0.67761 -0.40209,-0.59726 -0.23847,-1.21372 0.17175,-0.65811 0.76901,-1.0602 0.59726,-0.40209 1.24675,-0.29687 0.65761,0.0636 1.0597,0.66085 0.38534,0.57238 0.21359,1.23048 -0.14686,0.64135 -0.74413,1.04344 z" />
      <path
         id="path953"
         style="font-style:normal;font-variant:normal;font-weight:normal;font-stretch:normal;font-family:'Source Sans Pro';-inkscape-font-specification:'Source Sans Pro';stroke:none"
         d="m 373.04889,431.55705 q -1.29406,0.8712 -2.78202,1.1858 -1.48796,0.3146 -2.84483,0.1793 l 0.0989,-2.05564 q 1.23195,0.11091 2.32124,-0.0438 1.11418,-0.17146 2.20916,-0.90863 1.19453,-0.80419 1.4232,-1.75377 0.22868,-0.94958 -0.30745,-1.74593 -0.31832,-0.47283 -0.80173,-0.6537 -0.48342,-0.18086 -1.04913,-0.16166 -0.55758,-0.0224 -1.18933,0.11356 -0.63175,0.13599 -1.2635,0.27198 -0.79781,0.21163 -1.62914,0.37348 -0.84808,0.13697 -1.63875,0.0906 -0.78253,-0.088 -1.47463,-0.41767 -0.6921,-0.32969 -1.21147,-1.10115 -0.48587,-0.72169 -0.63097,-1.52813 -0.13697,-0.84808 0.0841,-1.64786 0.22917,-0.84142 0.83309,-1.60965 0.58717,-0.79311 1.55772,-1.44651 1.14475,-0.77068 2.35848,-1.00916 1.23861,-0.25522 2.32076,-0.15196 l -0.0993,1.94747 q -0.94047,-0.054 -1.81344,0.0997 -0.87296,0.15373 -1.66931,0.68985 -1.14475,0.77068 -1.34041,1.66187 -0.17077,0.87443 0.29834,1.57124 0.28481,0.42306 0.72658,0.59579 0.42502,0.14784 0.96585,0.1454 0.52407,-0.0273 1.13094,-0.14658 0.61499,-0.16087 1.27163,-0.31362 0.81457,-0.18674 1.64589,-0.3486 0.85622,-0.17861 1.66364,-0.10738 0.79066,0.0464 1.51627,0.42581 0.7505,0.3627 1.32013,1.20882 0.50262,0.74658 0.63959,1.59466 0.16185,0.83133 -0.0754,1.71438 -0.21241,0.86631 -0.87423,1.70968 -0.62019,0.85151 -1.69029,1.57193 z" />
      <path
         id="path955"
         style="font-style:normal;font-variant:normal;font-weight:normal;font-stretch:normal;font-family:'Source Sans Pro';-inkscape-font-specification:'Source Sans Pro';stroke:none"
         d="m 383.49903,424.52171 q -1.29407,0.8712 -2.78203,1.1858 -1.48796,0.3146 -2.84483,0.1793 l 0.0989,-2.05564 q 1.23195,0.11091 2.32125,-0.0438 1.11418,-0.17146 2.20916,-0.90863 1.19452,-0.80419 1.4232,-1.75377 0.22867,-0.94958 -0.30745,-1.74593 -0.31833,-0.47283 -0.80174,-0.6537 -0.48341,-0.18086 -1.04913,-0.16166 -0.55758,-0.0224 -1.18933,0.11356 -0.63174,0.13599 -1.26349,0.27198 -0.79782,0.21163 -1.62915,0.37348 -0.84808,0.13697 -1.63874,0.0906 -0.78254,-0.088 -1.47464,-0.41767 -0.6921,-0.32969 -1.21147,-1.10115 -0.48586,-0.72169 -0.63097,-1.52813 -0.13697,-0.84808 0.0841,-1.64786 0.22916,-0.84142 0.83309,-1.60965 0.58717,-0.79311 1.55772,-1.44651 1.14475,-0.77068 2.35847,-1.00915 1.23862,-0.25523 2.32076,-0.15197 l -0.0993,1.94747 q -0.94047,-0.054 -1.81343,0.0997 -0.87297,0.15373 -1.66932,0.68985 -1.14475,0.77068 -1.34041,1.66187 -0.17077,0.87443 0.29834,1.57124 0.28482,0.42306 0.72659,0.59579 0.42502,0.14785 0.96585,0.1454 0.52407,-0.0273 1.13093,-0.14658 0.615,-0.16087 1.27163,-0.31362 0.81457,-0.18674 1.6459,-0.3486 0.85621,-0.17861 1.66363,-0.10738 0.79067,0.0464 1.51628,0.42581 0.75049,0.3627 1.32012,1.20882 0.50262,0.74658 0.63959,1.59466 0.16186,0.83133 -0.0754,1.71438 -0.21241,0.86631 -0.87424,1.70968 -0.62019,0.85151 -1.69028,1.57193 z" />
      <path
         id="path957"
         style="font-style:normal;font-variant:normal;font-weight:normal;font-stretch:normal;font-family:'Source Sans Pro';-inkscape-font-specification:'Source Sans Pro';stroke:none"
         d="m 394.11014,417.37801 q -0.97055,0.6534 -1.84351,0.80712 -0.84808,0.13697 -1.62297,-0.10081 -0.75001,-0.25454 -1.42683,-0.88384 -0.67681,-0.6293 -1.27995,-1.5252 l -4.5068,-6.6943 -1.79178,1.20628 -1.03874,-1.54292 1.80755,-1.39773 -2.02967,-3.55202 1.71713,-1.15602 2.27853,3.38448 3.26005,-2.19475 1.12251,1.66735 -3.26005,2.19476 4.52355,6.71919 q 0.75392,1.11986 1.57094,1.47395 0.82516,0.31244 1.87036,-0.39122 0.32352,-0.2178 0.62979,-0.56865 0.30628,-0.35085 0.52114,-0.67633 l 1.43691,1.27486 q -0.38044,0.50928 -0.89393,1.0358 -0.47185,0.53466 -1.04423,0.92 z" />
      <path
         id="path959"
         style="font-style:normal;font-variant:normal;font-weight:normal;font-stretch:normal;font-family:'Source Sans Pro';-inkscape-font-specification:'Source Sans Pro';stroke:none"
         d="m 398.51025,413.98174 -8.14239,-12.09454 1.69224,-1.13926 1.64854,2.07268 0.0747,-0.0503 q -0.14853,-1.5636 0.27012,-2.82191 0.44354,-1.27506 1.48874,-1.97872 0.72169,-0.48586 1.46161,-0.62234 l 0.8081,2.05984 q -0.36564,0.10151 -0.64801,0.21927 -0.28236,0.11777 -0.65565,0.36908 -0.77147,0.51937 -1.19874,1.71115 -0.40239,1.17502 0.0142,3.1368 l 5.22721,7.76439 z" />
      <path
         id="path961"
         style="font-style:normal;font-variant:normal;font-weight:normal;font-stretch:normal;font-family:'Source Sans Pro';-inkscape-font-specification:'Source Sans Pro';stroke:none"
         d="m 407.02357,408.68431 q -0.62214,0.41885 -1.3549,0.29736 -0.72463,-0.16313 -1.17699,-0.83505 -0.48586,-0.72169 -0.34762,-1.42956 0.14638,-0.74952 0.76852,-1.16837 0.59727,-0.40209 1.3219,-0.23896 0.73276,0.12149 1.21862,0.84318 0.45236,0.67192 0.30598,1.42144 -0.13824,0.70787 -0.73551,1.10996 z" />
    </g>
    <path
       sodipodi:nodetypes="cac"
       inkscape:connector-curvature="0"
       id="path4269"
       d="m 77.019053,388.35463 c 0,0 25.655017,20.47609 37.142847,32.14286 20.27679,20.59262 55.71429,66.42857 55.71429,66.42857"
       style="fill:none;fill-rule:evenodd;stroke:none;stroke-width:1px;stroke-linecap:butt;stroke-linejoin:miter;stroke-opacity:1" />
    <g
       style="font-style:normal;font-weight:normal;font-size:30px;line-height:0%;font-family:sans-serif;letter-spacing:0px;word-spacing:0px;fill:#000000;fill-opacity:1;stroke:none;stroke-width:1px;stroke-linecap:butt;stroke-linejoin:miter;stroke-opacity:1"
       id="text4271"
       transform="translate(2.1428571,10)"
       aria-label="Rennstr.">
      <path
         id="path964"
         style="font-style:normal;font-variant:normal;font-weight:normal;font-stretch:normal;font-family:'Source Sans Pro';-inkscape-font-specification:'Source Sans Pro'"
         d="m 79.122007,390.0243 12.463982,-15.22996 4.759361,3.895 q 1.16082,0.94999 1.945909,1.98016 0.827305,1.02594 1.105798,2.1067 0.301709,1.09976 0.03139,2.23534 -0.27032,1.13557 -1.239318,2.31961 -1.462998,1.78766 -3.265653,2.09561 -1.802654,0.30796 -3.704369,-0.58936 l -1.556854,9.81289 -2.182341,-1.786 1.594802,-9.43294 -2.762751,-2.261 -5.262993,6.43095 z m 8.481952,-6.43266 2.553803,2.09 q 1.787663,1.46299 3.328534,1.52228 1.559872,0.0361 2.77587,-1.44977 1.234998,-1.50907 0.777125,-2.89169 -0.457873,-1.38263 -2.245536,-2.84562 l -2.553803,-2.09 z" />
      <path
         id="path966"
         style="font-style:normal;font-variant:normal;font-weight:normal;font-stretch:normal;font-family:'Source Sans Pro';-inkscape-font-specification:'Source Sans Pro'"
         d="m 96.150662,404.63814 q -1.118876,-0.95342 -1.769966,-2.17828 -0.608799,-1.22823 -0.716849,-2.58157 -0.06576,-1.35672 0.437734,-2.78016 0.503493,-1.42345 1.670951,-2.7935 1.167458,-1.37005 2.492982,-2.09302 1.367816,-0.72635 2.694946,-0.89615 1.34996,-0.15034 2.57127,0.22033 1.24077,0.34783 2.19981,1.16505 1.05037,0.89505 1.56108,1.96087 0.53355,1.08528 0.49784,2.23729 -0.0129,1.17147 -0.53325,2.38345 -0.52038,1.21199 -1.53217,2.39937 -0.25295,0.29684 -0.52874,0.57423 -0.23349,0.27401 -0.45428,0.4406 l -7.489613,-6.3821 q -1.403524,1.87835 -1.316704,3.76541 0.129111,1.88367 1.727505,3.2457 0.799197,0.68102 1.655965,1.01695 0.899057,0.33255 1.846367,0.46973 l -0.38852,1.79732 q -1.119852,-0.16596 -2.30225,-0.5823 -1.182398,-0.41633 -2.324108,-1.38922 z m 2.226911,-9.69027 5.936887,5.05899 q 1.43987,-1.68973 1.44857,-3.18008 0.051,-1.49372 -1.25057,-2.6028 -0.59369,-0.5059 -1.33628,-0.74454 -0.71977,-0.21919 -1.54277,-0.1322 -0.80354,0.0642 -1.645201,0.45057 -0.818824,0.40586 -1.610636,1.15006 z" />
      <path
         id="path968"
         style="font-style:normal;font-variant:normal;font-weight:normal;font-stretch:normal;font-family:'Source Sans Pro';-inkscape-font-specification:'Source Sans Pro'"
         d="m 103.21317,410.19647 9.86746,-10.73357 1.50182,1.38063 -1.26664,1.68811 0.0663,0.0609 q 1.48361,-0.0624 2.78984,0.20119 1.34862,0.26178 2.47498,1.29726 1.70058,1.56336 1.49901,3.33409 -0.17948,1.79103 -2.088,3.86707 l -6.25346,6.80234 -1.81102,-1.66488 6.03012,-6.5594 q 1.40094,-1.5239 1.52416,-2.63315 0.14353,-1.13132 -0.91658,-2.10589 -0.83925,-0.77153 -1.8655,-0.9407 -1.02624,-0.16918 -2.59463,-0.10324 l -7.14681,7.77411 z" />
      <path
         id="path970"
         style="font-style:normal;font-variant:normal;font-weight:normal;font-stretch:normal;font-family:'Source Sans Pro';-inkscape-font-specification:'Source Sans Pro'"
         d="m 115.14979,421.44205 10.6641,-9.9425 1.39113,1.49209 -1.39277,1.58565 0.0614,0.0658 q 1.48402,0.052 2.76609,0.41525 1.32448,0.36477 2.36783,1.48384 1.57525,1.68958 1.23803,3.43955 -0.31676,1.77191 -2.37936,3.69495 l -6.75832,6.30101 -1.67754,-1.79929 6.51695,-6.07598 q 1.51404,-1.41159 1.72224,-2.50806 0.23015,-1.11693 -0.75183,-2.17018 -0.7774,-0.83381 -1.78758,-1.08145 -1.01019,-0.24764 -2.579,-0.30257 l -7.72379,7.20116 z" />
      <path
         id="path972"
         style="font-style:normal;font-variant:normal;font-weight:normal;font-stretch:normal;font-family:'Source Sans Pro';-inkscape-font-specification:'Source Sans Pro'"
         d="m 128.44292,436.66558 q -1.02418,-1.17671 -1.51994,-2.61449 -0.49575,-1.43779 -0.52887,-2.80098 l 2.05213,-0.15549 q 0.0419,1.23622 0.32981,2.29812 0.3076,1.08452 1.17422,2.08019 0.9454,1.08619 1.91594,1.19598 0.97054,0.10979 1.69467,-0.52048 0.42995,-0.37422 0.54979,-0.87625 0.11985,-0.50204 0.031,-1.06106 -0.0465,-0.55609 -0.25941,-1.16624 -0.21288,-0.61014 -0.42577,-1.22029 -0.30843,-0.76562 -0.5716,-1.57063 -0.24055,-0.8247 -0.2921,-1.61505 -0.009,-0.78741 0.23257,-1.51489 0.24179,-0.72749 0.94329,-1.33806 0.65624,-0.57118 1.43862,-0.81466 0.82471,-0.24055 1.64564,-0.11986 0.86326,0.12361 1.70013,0.62815 0.85949,0.48485 1.62763,1.36738 0.90601,1.04094 1.29239,2.21597 0.40607,1.19767 0.43709,2.28429 l -1.94485,0.14165 q -0.0624,-0.93995 -0.32269,-1.78728 -0.26024,-0.84734 -0.8905,-1.57146 -0.90602,-1.04094 -1.81453,-1.12516 -0.88883,-0.0616 -1.52244,0.48989 -0.38469,0.33483 -0.50161,0.79453 -0.0943,0.44002 -0.0251,0.97641 0.0918,0.5167 0.28496,1.10422 0.23552,0.59045 0.4681,1.22322 0.2858,0.78532 0.54898,1.59033 0.28287,0.82763 0.31179,1.63767 0.0515,0.79035 -0.2355,1.55723 -0.26736,0.7895 -1.03674,1.45916 -0.67887,0.59088 -1.50358,0.83142 -0.80501,0.26318 -1.71059,0.13663 -0.88589,-0.10392 -1.80447,-0.65665 -0.92152,-0.51041 -1.76844,-1.48346 z" />
      <path
         id="path974"
         style="font-style:normal;font-variant:normal;font-weight:normal;font-stretch:normal;font-family:'Source Sans Pro';-inkscape-font-specification:'Source Sans Pro'"
         d="m 136.74654,446.38978 q -0.75478,-0.89398 -1.00225,-1.74514 -0.22811,-0.82822 -0.0757,-1.62433 0.17173,-0.77318 0.72393,-1.51424 0.55221,-0.74106 1.37742,-1.43778 l 6.16619,-5.20606 -1.39345,-1.65043 1.4212,-1.19991 1.58547,1.64535 3.31102,-2.40283 1.33538,1.58166 -3.11748,2.63206 2.53529,3.00286 -1.53581,1.29668 -2.53529,-3.00287 -6.18911,5.22542 q -1.03152,0.8709 -1.29493,1.7215 -0.22114,0.85416 0.5917,1.81691 0.2516,0.298 0.63359,0.56442 0.38199,0.26643 0.72884,0.44473 l -1.11154,1.56667 q -0.54753,-0.32298 -1.12662,-0.77635 -0.58267,-0.4111 -1.0278,-0.93832 z" />
      <path
         id="path976"
         style="font-style:normal;font-variant:normal;font-weight:normal;font-stretch:normal;font-family:'Source Sans Pro';-inkscape-font-specification:'Source Sans Pro'"
         d="m 140.58046,450.41802 11.22866,-9.30019 1.30126,1.57109 -1.89922,1.84571 0.0574,0.0693 q 1.5412,-0.30266 2.83478,-0.0107 1.31272,0.31507 2.11644,1.28545 0.55495,0.67002 0.76404,1.39278 l -1.96968,1.00814 q -0.13722,-0.3538 -0.28238,-0.62311 -0.14515,-0.26932 -0.43219,-0.61588 -0.59322,-0.71623 -1.82146,-1.02337 -1.2091,-0.28404 -3.11997,0.3248 l -7.20852,5.97049 z" />
      <path
         id="path978"
         style="font-style:normal;font-variant:normal;font-weight:normal;font-stretch:normal;font-family:'Source Sans Pro';-inkscape-font-specification:'Source Sans Pro'"
         d="m 146.67315,458.38243 q -0.47457,-0.58077 -0.42134,-1.32162 0.0954,-0.73661 0.72266,-1.24914 0.67369,-0.5505 1.39131,-0.47829 0.75984,0.0765 1.23441,0.65722 0.45559,0.55753 0.36014,1.29414 -0.0532,0.74086 -0.72691,1.29135 -0.62722,0.51254 -1.38706,0.43608 -0.71763,-0.0722 -1.17321,-0.62974 z" />
    </g>
    <path
       inkscape:connector-curvature="0"
       id="path4280"
       d="M 282.73333,491.92606 464.1619,369.7832"
       style="fill:none;fill-rule:evenodd;stroke:none;stroke-width:1px;stroke-linecap:butt;stroke-linejoin:miter;stroke-opacity:1" />
    <g
       style="font-style:normal;font-weight:normal;font-size:30px;line-height:0%;font-family:sans-serif;letter-spacing:0px;word-spacing:0px;fill:#000000;fill-opacity:1;stroke:none;stroke-width:1px;stroke-linecap:butt;stroke-linejoin:miter;stroke-opacity:1"
       id="text4285"
       transform="translate(2)"
       aria-label="Rennstr.">
      <path
         id="path922"
         style="font-style:normal;font-variant:normal;font-weight:normal;font-stretch:normal;font-family:'Source Sans Pro';-inkscape-font-specification:'Source Sans Pro'"
         d="m 225.07939,710.03337 -19.34122,3.6359 -1.13622,-6.04413 q -0.27712,-1.47418 -0.21507,-2.76792 0.027,-1.31767 0.50938,-2.32412 0.47682,-1.03592 1.41453,-1.73113 0.9377,-0.69521 2.44136,-0.97788 2.27023,-0.42677 3.84818,0.49761 1.57794,0.92439 2.45606,2.83505 l 7.50669,-6.50892 0.521,2.77146 -7.29123,6.19368 0.65956,3.50854 8.16695,-1.53528 z m -10.63186,-0.53497 -0.60968,-3.24319 q -0.42677,-2.27023 -1.56801,-3.30724 -1.17071,-1.03146 -3.05766,-0.67674 -1.91643,0.36026 -2.45576,1.71319 -0.53933,1.35294 -0.11256,3.62317 l 0.60968,3.24319 z" />
      <path
         id="path924"
         style="font-style:normal;font-variant:normal;font-weight:normal;font-stretch:normal;font-family:'Source Sans Pro';-inkscape-font-specification:'Source Sans Pro'"
         d="m 221.36623,687.88368 q 0.25743,1.44728 -0.0188,2.80666 -0.311,1.33509 -1.08805,2.44838 -0.81183,1.089 -2.10548,1.86757 -1.29364,0.77858 -3.06583,1.0938 -1.77218,0.31522 -3.25496,0.0305 -1.51757,-0.30902 -2.64988,-1.02174 -1.13756,-0.74225 -1.84457,-1.80486 -0.73655,-1.05735 -0.95721,-2.29788 -0.24167,-1.35868 0.0418,-2.50605 0.2782,-1.1769 1.0382,-2.04339 0.75475,-0.89602 1.92699,-1.50064 1.17223,-0.60463 2.70812,-0.87782 0.38397,-0.0683 0.7732,-0.10706 0.35444,-0.063 0.63077,-0.0513 l 1.72321,9.68794 q 2.27757,-0.55746 3.41033,-2.0692 1.09798,-1.53602 0.73022,-3.60356 -0.18388,-1.03378 -0.6316,-1.8378 -0.48251,-0.8283 -1.12647,-1.53647 l 1.4426,-1.14025 q 0.75885,0.84009 1.40679,1.9132 0.64794,1.07312 0.91062,2.54994 z m -7.87989,6.06365 -1.36595,-7.67947 q -2.1857,0.38877 -3.13996,1.53358 -0.98906,1.12052 -0.6896,2.8041 0.1366,0.76794 0.55805,1.42428 0.4162,0.6268 1.10675,1.08292 0.66101,0.46137 1.55632,0.69824 0.89007,0.20733 1.97439,0.13635 z" />
      <path
         id="path926"
         style="font-style:normal;font-variant:normal;font-weight:normal;font-stretch:normal;font-family:'Source Sans Pro';-inkscape-font-specification:'Source Sans Pro'"
         d="m 219.44902,679.0935 -14.39241,2.33127 -0.32619,-2.01375 2.0394,-0.54308 -0.0144,-0.0888 q -1.20438,-0.8686 -2.06778,-1.88361 -0.89781,-1.03982 -1.14245,-2.55014 -0.36936,-2.28027 0.88422,-3.54701 1.24879,-1.29636 4.03251,-1.74726 l 9.12111,-1.47743 0.39335,2.42835 -8.79537,1.42466 q -2.04337,0.33098 -2.82626,1.1264 -0.8125,0.80021 -0.58225,2.22168 0.18228,1.12534 0.88406,1.893 0.70177,0.76767 1.97497,1.6859 l 10.42414,-1.68849 z" />
      <path
         id="path928"
         style="font-style:normal;font-variant:normal;font-weight:normal;font-stretch:normal;font-family:'Source Sans Pro';-inkscape-font-specification:'Source Sans Pro'"
         d="m 216.90966,662.88984 -14.4553,1.90282 -0.26624,-2.02255 2.05463,-0.48227 -0.0117,-0.0892 q -1.17806,-0.90399 -2.01094,-1.94418 -0.86653,-1.06603 -1.06621,-2.58294 -0.30148,-2.29025 0.98917,-3.5192 1.28673,-1.2587 4.08261,-1.62673 l 9.16097,-1.20591 0.32106,2.43896 -8.8338,1.16284 q -2.05229,0.27015 -2.85846,1.04197 -0.83591,0.77572 -0.64797,2.20341 0.14878,1.13025 0.82745,1.91842 0.67866,0.78817 1.92404,1.74381 l 10.46968,-1.37818 z" />
      <path
         id="path930"
         style="font-style:normal;font-variant:normal;font-weight:normal;font-stretch:normal;font-family:'Source Sans Pro';-inkscape-font-specification:'Source Sans Pro'"
         d="m 214.69953,642.79326 q 0.18909,1.5485 -0.2058,3.01719 -0.39489,1.4687 -1.13121,2.61641 l -1.78692,-1.02094 q 0.65789,-1.04746 1.01435,-2.08834 0.35283,-1.07066 0.19283,-2.38093 -0.17454,-1.42938 -0.91694,-2.06408 -0.74241,-0.63469 -1.69533,-0.51833 -0.5658,0.0691 -0.94634,0.41779 -0.38054,0.34869 -0.62015,0.86152 -0.27302,0.48668 -0.43852,1.11134 -0.16551,0.62467 -0.33101,1.24934 -0.17347,0.80697 -0.40649,1.62122 -0.26281,0.81789 -0.6629,1.50142 -0.43352,0.65739 -1.04138,1.12452 -0.60786,0.46712 -1.53101,0.57984 -0.86358,0.10546 -1.64805,-0.1312 -0.81788,-0.2628 -1.43026,-0.82271 -0.6458,-0.58604 -1.05631,-1.47282 -0.4403,-0.88314 -0.58211,-2.04452 -0.16727,-1.36982 0.17101,-2.5596 0.33465,-1.21955 0.91774,-2.13699 l 1.69032,0.97228 q -0.47489,0.81356 -0.73406,1.66123 -0.25916,0.84766 -0.1428,1.80058 0.16727,1.36983 0.87262,1.9486 0.70172,0.54899 1.53552,0.44717 0.50624,-0.0618 0.86064,-0.37709 0.32462,-0.31165 0.56786,-0.79469 0.21347,-0.47941 0.38261,-1.0743 0.13573,-0.62103 0.29759,-1.27548 0.20325,-0.81061 0.43627,-1.62486 0.22939,-0.84402 0.65927,-1.53119 0.4001,-0.68354 1.06751,-1.15794 0.66379,-0.50417 1.67627,-0.6278 0.89336,-0.10909 1.71125,0.15371 0.81424,0.23302 1.49346,0.84521 0.67557,0.58241 1.12677,1.55489 0.47734,0.93906 0.6337,2.21955 z" />
      <path
         id="path932"
         style="font-style:normal;font-variant:normal;font-weight:normal;font-stretch:normal;font-family:'Source Sans Pro';-inkscape-font-specification:'Source Sans Pro'"
         d="m 213.28999,630.0877 q 0.11614,1.16422 -0.16167,2.00595 -0.28079,0.81189 -0.85706,1.38191 -0.57924,0.54016 -1.45394,0.83847 -0.87471,0.2983 -1.94938,0.40551 l -8.03014,0.80109 0.21442,2.14933 -1.85081,0.18464 -0.37559,-2.25385 -4.08963,0.1065 -0.20549,-2.05978 4.05985,-0.40501 -0.39012,-3.91059 2.00007,-0.19953 0.39012,3.91059 8.06,-0.80407 q 1.34333,-0.13401 2.04198,-0.68609 0.66581,-0.57895 0.54074,-1.83273 -0.0387,-0.38807 -0.2028,-0.82394 -0.16407,-0.43586 -0.34907,-0.7792 l 1.80316,-0.66226 q 0.26853,0.57619 0.48926,1.27774 0.24761,0.66872 0.3161,1.35532 z" />
      <path
         id="path934"
         style="font-style:normal;font-variant:normal;font-weight:normal;font-stretch:normal;font-family:'Source Sans Pro';-inkscape-font-specification:'Source Sans Pro'"
         d="m 212.45843,624.59685 -14.54804,0.96491 -0.13501,-2.03553 2.62032,-0.38426 -0.006,-0.0898 q -1.42661,-0.65703 -2.30432,-1.65112 -0.8797,-1.02402 -0.96309,-2.28126 -0.0576,-0.86809 0.1961,-1.57644 l 2.18703,0.336 q -0.0959,0.36715 -0.13592,0.67047 -0.04,0.30331 -0.0102,0.75232 0.0616,0.92797 0.87741,1.89609 0.81388,0.9382 2.71943,1.56346 l 9.33948,-0.61945 z" />
      <path
         id="path936"
         style="font-style:normal;font-variant:normal;font-weight:normal;font-stretch:normal;font-family:'Source Sans Pro';-inkscape-font-specification:'Source Sans Pro'"
         d="m 212.30428,614.58055 q 0.0203,0.74973 -0.47488,1.30334 -0.52599,0.52444 -1.33569,0.54638 -0.86968,0.0236 -1.39331,-0.47244 -0.55442,-0.52517 -0.57474,-1.2749 -0.0195,-0.71973 0.50649,-1.24417 0.49519,-0.55362 1.36487,-0.57718 0.8097,-0.0219 1.36413,0.50324 0.52362,0.496 0.54313,1.21573 z" />
    </g>
    <path
       sodipodi:nodetypes="caac"
       inkscape:connector-curvature="0"
       id="path4289"
       d="m 225.59048,712.64034 c 0,0 -7.02264,-36.06768 -9.28572,-54.28571 -2.26689,-18.24865 -5.0889,-36.62864 -4.28571,-55 0.4428,-10.12826 5,-30 5,-30"
       style="fill:none;fill-rule:evenodd;stroke:none;stroke-width:1px;stroke-linecap:butt;stroke-linejoin:miter;stroke-opacity:1" />
    <g
       style="font-style:normal;font-variant:normal;font-weight:normal;font-stretch:normal;font-size:30px;line-height:0%;font-family:'Source Sans Pro';-inkscape-font-specification:'Source Sans Pro';letter-spacing:0px;word-spacing:0px;fill:#000000;fill-opacity:1;stroke:none;stroke-width:1px;stroke-linecap:butt;stroke-linejoin:miter;stroke-opacity:1"
       id="text4294"
       aria-label="Renntormauer">
      <path
         id="path897"
         style="stroke:none"
         d="m 447.07271,701.29959 -10.36678,-16.72819 5.22755,-3.23962 q 1.27502,-0.79015 2.50406,-1.19887 1.23874,-0.45003 2.35142,-0.36311 1.13817,0.0711 2.12478,0.69497 0.98661,0.62386 1.79257,1.92437 1.21683,1.96353 0.92376,3.76866 -0.29308,1.80513 -1.75845,3.31324 l 8.77822,4.65398 -2.39703,1.48548 -8.40648,-4.5667 -3.03454,1.88056 4.37744,7.06358 z m -3.33552,-10.10925 2.80503,-1.73833 q 1.96352,-1.21683 2.51914,-2.65527 0.53981,-1.46393 -0.47158,-3.09595 -1.02719,-1.65752 -2.48358,-1.6726 -1.45639,-0.0151 -3.41992,1.20175 l -2.80503,1.73833 z" />
      <path
         id="path899"
         style="stroke:none"
         d="m 466.38645,689.67756 q -1.24398,0.78322 -2.60736,1.03895 -1.35397,0.21436 -2.67785,-0.0865 -1.31448,-0.34228 -2.5227,-1.24776 -1.20822,-0.90549 -2.16726,-2.42872 -0.95904,-1.52324 -1.25332,-3.00415 -0.28487,-1.52228 -0.0507,-2.83958 0.25953,-1.33328 0.9779,-2.38824 0.70239,-1.08035 1.76866,-1.75168 1.16781,-0.73526 2.33749,-0.90449 1.19507,-0.18522 2.28389,0.19278 1.1142,0.36202 2.11556,1.22049 1.00137,0.85847 1.83253,2.17861 0.2078,0.33003 0.3902,0.67605 0.19181,0.30464 0.28489,0.5651 l -8.32701,5.24276 q 1.37369,1.90028 3.20061,2.38078 1.83632,0.43913 3.61342,-0.67975 0.88856,-0.55944 1.46494,-1.27685 0.5858,-0.75878 0.99952,-1.62194 l 1.59937,0.90738 q -0.49271,1.01923 -1.24305,2.02342 -0.75034,1.00418 -2.0197,1.80338 z m -8.58355,-5.01828 6.60068,-4.15585 q -1.18282,-1.87866 -2.60261,-2.33188 -1.41038,-0.4946 -2.85745,0.41649 -0.66007,0.41559 -1.10952,1.05307 -0.42406,0.62151 -0.58674,1.43295 -0.17866,0.78605 -0.0611,1.70469 0.1429,0.90265 0.61678,1.88053 z" />
      <path
         id="path901"
         style="stroke:none"
         d="m 473.79446,684.57268 -7.8597,-12.28013 1.71821,-1.09971 1.30893,1.65554 0.0758,-0.0485 q 0.31835,-1.4504 0.90656,-2.6461 0.59731,-1.23714 1.88597,-2.06192 1.94561,-1.24526 3.60625,-0.59844 1.68591,0.63065 3.20609,3.00582 l 4.98105,7.78247 -2.07196,1.32612 -4.80315,-7.50452 q -1.11588,-1.74348 -2.15694,-2.14572 -1.05723,-0.42751 -2.27008,0.34875 -0.96017,0.61455 -1.38567,1.56363 -0.42549,0.94908 -0.76202,2.48236 l 5.69262,8.89425 z" />
      <path
         id="path903"
         style="stroke:none"
         d="m 487.60465,675.71217 -7.9815,-12.20132 1.70718,-1.11675 1.32534,1.64243 0.0753,-0.0493 q 0.30389,-1.4535 0.88018,-2.65499 0.58497,-1.24303 1.86536,-2.08059 1.93313,-1.26456 3.60012,-0.63429 1.6921,0.61385 3.23584,2.97377 l 5.05823,7.73253 -2.05866,1.34667 -4.87758,-7.45636 q -1.13317,-1.73229 -2.17818,-2.12415 -1.06143,-0.41698 -2.2665,0.37132 -0.95401,0.62407 -1.37004,1.57734 -0.41603,0.95326 -0.73729,2.48982 l 5.78084,8.83716 z" />
      <path
         id="path905"
         style="stroke:none"
         d="m 505.33224,664.43971 q -0.97209,0.65111 -1.84542,0.80277 -0.8484,0.13497 -1.62272,-0.10464 -0.74941,-0.25631 -1.42474,-0.8872 -0.67533,-0.6309 -1.27636,-1.52821 l -4.49099,-6.70491 -1.79463,1.20205 -1.0351,-1.54537 1.81085,-1.39346 -2.02129,-3.55679 1.71985,-1.15197 2.27054,3.38984 3.26522,-2.18706 1.11858,1.67 -3.26522,2.18706 4.50769,6.72984 q 0.75128,1.12164 1.56747,1.47765 0.82441,0.31439 1.87127,-0.38681 0.32403,-0.21703 0.63113,-0.56716 0.3071,-0.35013 0.52273,-0.6751 l 1.4339,1.27825 q -0.38164,0.50838 -0.89637,1.03369 -0.47311,0.53354 -1.04639,0.91753 z" />
      <path
         id="path907"
         style="stroke:none"
         d="m 514.25911,658.34368 q -1.10851,0.77053 -2.40956,1.05381 -1.27643,0.26615 -2.588,0.009 -1.32869,-0.28209 -2.60151,-1.11452 -1.26531,-0.87418 -2.29269,-2.35218 -1.0445,-1.50264 -1.40588,-2.96862 -0.35387,-1.50774 -0.1553,-2.85145 0.19857,-1.34372 0.89282,-2.44741 0.71887,-1.12081 1.82737,-1.89134 1.1085,-0.77054 2.38493,-1.03669 1.30106,-0.28328 2.62975,-0.001 1.3287,0.28208 2.594,1.15627 1.27282,0.83243 2.31732,2.33506 1.02738,1.47801 1.38125,2.98574 0.36139,1.46599 0.16281,2.8097 -0.2157,1.31908 -0.93457,2.43989 -0.69424,1.10369 -1.80274,1.87423 z m -1.16437,-1.67507 q 0.76363,-0.53082 1.1815,-1.29625 0.40075,-0.79006 0.43319,-1.68948 0.04,-0.94117 -0.29589,-1.94993 -0.33585,-1.00877 -1.05501,-2.04337 -0.71917,-1.0346 -1.54769,-1.7009 -0.84564,-0.69094 -1.74175,-0.98144 -0.87147,-0.30762 -1.73454,-0.18265 -0.88019,0.10033 -1.64382,0.63114 -0.76364,0.53082 -1.16438,1.32088 -0.41787,0.76544 -0.45783,1.70661 -0.0153,0.92405 0.33765,1.95744 0.33585,1.00877 1.05502,2.04337 0.71916,1.0346 1.54768,1.7009 0.82852,0.66631 1.69999,0.97393 0.87899,0.26586 1.75918,0.16553 0.86307,-0.12497 1.6267,-0.65578 z" />
      <path
         id="path909"
         style="stroke:none"
         d="m 522.72227,651.91095 -8.68009,-11.71463 1.63908,-1.2145 1.74043,1.99615 0.0723,-0.0536 q -0.21897,-1.5553 0.14245,-2.83122 0.38552,-1.29378 1.39789,-2.04392 0.69902,-0.51794 1.43202,-0.68769 l 0.90027,2.02127 q -0.36069,0.1179 -0.63745,0.2483 -0.27676,0.13039 -0.63832,0.3983 -0.74723,0.55366 -1.12027,1.76352 -0.34893,1.19199 0.15581,3.13295 l 5.5724,7.5205 z" />
      <path
         id="path911"
         style="stroke:none"
         d="m 531.10156,645.70732 -9.06799,-11.41701 1.59745,-1.26877 1.47053,1.51381 0.0705,-0.056 q 0.0987,-1.41928 0.53875,-2.64996 0.44488,-1.27282 1.47852,-2.09379 1.31554,-1.04487 2.51025,-1.03598 1.19954,-0.0333 2.37288,0.72049 0.10904,-1.69567 0.53527,-2.99199 0.43106,-1.33846 1.48819,-2.17809 1.76188,-1.39938 3.50319,-0.94348 1.7648,0.43725 3.51869,2.64548 l 5.74679,7.23547 -1.92633,1.52999 -5.54154,-6.97706 q -1.28743,-1.62094 -2.36401,-1.91521 -1.09523,-0.31776 -2.17585,0.54053 -1.29205,1.02621 -1.46662,4.03821 l 6.56776,8.26911 -1.92632,1.52999 -5.54155,-6.97706 q -1.28743,-1.62094 -2.364,-1.91521 -1.09523,-0.31776 -2.19934,0.55919 -1.29205,1.02621 -1.46662,4.03821 l 6.56775,8.26911 z" />
      <path
         id="path913"
         style="stroke:none"
         d="m 553.25715,628.24186 q -1.39983,1.17872 -3.03633,1.14485 -1.61356,-0.0532 -2.8889,-1.56776 -1.54586,-1.83583 -0.72814,-4.17161 0.79841,-2.35871 4.04979,-5.76327 -0.44443,-0.5278 -0.98429,-0.93604 -0.5169,-0.42756 -1.09783,-0.60512 -0.58092,-0.17756 -1.23311,-0.0206 -0.64857,0.11471 -1.33701,0.69441 -0.96381,0.81158 -1.50372,1.89371 -0.5399,1.08213 -0.81892,2.10147 l -1.83577,-0.68969 q 0.35512,-1.16185 1.09311,-2.56765 0.71866,-1.42875 2.07259,-2.56883 2.04237,-1.71977 4.02307,-1.23057 1.96138,0.46626 3.7198,2.55453 l 5.75835,6.83849 -1.56047,1.31399 -1.28138,-1.19572 -0.0688,0.058 q -0.2428,1.34181 -0.75493,2.59665 -0.53145,1.23189 -1.58706,2.12076 z m -0.72459,-1.97832 q 0.80318,-0.67632 1.2054,-1.64251 0.38289,-0.98914 0.56772,-2.39979 l -2.60865,-3.09798 q -1.24524,1.36231 -1.9965,2.42632 -0.72831,1.04468 -1.0351,1.89131 -0.28385,0.8273 -0.17276,1.51814 0.11471,0.64857 0.55915,1.17637 0.81158,0.96381 1.7331,0.8938 0.92152,-0.07 1.74764,-0.76566 z" />
      <path
         id="path915"
         style="stroke:none"
         d="m 565.43842,617.83256 q -1.76465,1.53675 -3.5248,1.16008 -1.73752,-0.39638 -3.5895,-2.52301 l -6.06819,-6.96812 1.87777,-1.63526 5.85147,6.71926 q 1.35943,1.56104 2.44529,1.84864 1.08878,0.24527 2.17472,-0.70042 0.85971,-0.74868 1.14146,-1.74988 0.26205,-1.02383 0.2067,-2.68622 l -6.79716,-7.8052 1.85515,-1.61556 9.57513,10.99515 -1.53842,1.33973 -1.65571,-1.58149 -0.0679,0.0591 q 0.0189,1.57481 -0.36799,2.86645 -0.36423,1.27194 -1.51805,2.27674 z" />
      <path
         id="path917"
         style="stroke:none"
         d="m 578.94052,605.92643 q -1.09722,0.97827 -2.39949,1.45607 -1.29984,0.43546 -2.65526,0.35777 -1.35299,-0.12004 -2.69439,-0.81312 -1.3414,-0.69308 -2.53927,-2.03661 -1.19788,-1.34354 -1.73315,-2.75534 -0.53285,-1.45416 -0.51991,-2.79204 0.0353,-1.35785 0.56923,-2.51714 0.51394,-1.18168 1.45441,-2.02019 1.03005,-0.91837 2.15561,-1.27882 1.14794,-0.38042 2.2843,-0.1878 1.15874,0.17266 2.28836,0.85359 1.12961,0.68094 2.16777,1.84534 0.25954,0.2911 0.49668,0.60217 0.23958,0.2687 0.37448,0.51016 l -7.34468,6.54839 q 1.6692,1.64677 3.55044,1.81834 1.88367,0.12922 3.45113,-1.26831 0.78373,-0.69876 1.23346,-1.50165 0.45216,-0.84526 0.71735,-1.76497 l 1.72747,0.63021 q -0.31726,1.08672 -0.8911,2.20122 -0.57383,1.1145 -1.69344,2.11273 z m -9.29561,-3.52875 5.822,-5.1908 q -1.47738,-1.65703 -2.95259,-1.86907 -1.47278,-0.25439 -2.74914,0.88359 -0.5822,0.51908 -0.91997,1.22215 -0.31538,0.68311 -0.34154,1.51028 -0.0461,0.80478 0.22178,1.69131 0.2903,0.86656 0.91946,1.75254 z" />
      <path
         id="path919"
         style="stroke:none"
         d="m 585.38076,599.66675 -9.76748,-10.82464 1.51456,-1.36664 1.92451,1.81933 0.0668,-0.0603 q -0.36768,-1.527 -0.13076,-2.83179 0.25919,-1.32488 1.19465,-2.16899 0.64591,-0.58283 1.35917,-0.82235 l 1.09066,1.92522 q -0.34766,0.15208 -0.61059,0.30851 -0.26292,0.15643 -0.59701,0.45789 -0.69046,0.62303 -0.9453,1.86318 -0.23256,1.22004 0.45667,3.10341 l 6.27048,6.94915 z" />
    </g>
    <path
       sodipodi:nodetypes="caac"
       inkscape:connector-curvature="0"
       id="path4298"
       d="m 444.87619,702.64034 c 0,0 54.95121,-33.60718 80.71428,-52.85714 24.76372,-18.50325 47.81974,-39.22858 70.71429,-60 16.21145,-14.70807 47.14286,-45.71429 47.14286,-45.71429"
       style="fill:none;fill-rule:evenodd;stroke:none;stroke-width:1px;stroke-linecap:butt;stroke-linejoin:miter;stroke-opacity:1" />
    <text
       id="text4183"
       y="260.62939"
       x="261.70288"
       style="font-style:normal;font-weight:normal;line-height:0%;font-family:sans-serif;letter-spacing:0px;word-spacing:0px;fill:#00aa84;fill-opacity:1;stroke:#ffffff;stroke-width:4;stroke-linecap:butt;stroke-linejoin:miter;stroke-miterlimit:4;stroke-dasharray:none;stroke-opacity:1"
       xml:space="preserve"><tspan
         style="font-style:normal;font-variant:normal;font-weight:900;font-stretch:normal;font-size:67.4249px;line-height:1.25;font-family:'Source Sans Pro';-inkscape-font-specification:'Source Sans Pro Heavy';stroke-width:4;stroke-miterlimit:4;stroke-dasharray:none"
         y="260.62939"
         x="261.70288"
         id="tspan4185"
         sodipodi:role="line">P</tspan></text>
    <g
       style="font-style:normal;font-weight:normal;font-size:30px;line-height:0%;font-family:sans-serif;letter-spacing:0px;word-spacing:0px;fill:#000000;fill-opacity:1;stroke:none;stroke-width:1px;stroke-linecap:butt;stroke-linejoin:miter;stroke-opacity:1"
       id="text4196"
       transform="translate(0,2)"
       aria-label="Tribenstr.">
      <path
         id="path981"
         style="font-style:normal;font-variant:normal;font-weight:normal;font-stretch:normal;font-family:'Source Sans Pro';-inkscape-font-specification:'Source Sans Pro';stroke:none"
         d="m 279.31806,317.3259 3.35439,-17.25702 -5.83087,-1.13339 0.40069,-2.06142 14.13544,2.74762 -0.40069,2.06142 -5.83087,-1.13339 -3.35439,17.25701 z" />
      <path
         id="path983"
         style="font-style:normal;font-variant:normal;font-weight:normal;font-stretch:normal;font-family:'Source Sans Pro';-inkscape-font-specification:'Source Sans Pro';stroke:none"
         d="m 289.50429,319.2297 2.42399,-14.37709 2.01161,0.33916 -0.23183,2.63817 0.0887,0.015 q 0.969,-1.2361 2.13905,-1.86026 1.19964,-0.61917 2.4421,-0.40969 0.85789,0.14464 1.48841,0.55518 l -0.83243,2.05014 q -0.33504,-0.17818 -0.62088,-0.28722 -0.28585,-0.10904 -0.72959,-0.18386 -0.91706,-0.15462 -2.04755,0.41537 -1.10092,0.57497 -2.14971,2.28439 l -1.55615,9.22973 z" />
      <path
         id="path985"
         style="font-style:normal;font-variant:normal;font-weight:normal;font-stretch:normal;font-family:'Source Sans Pro';-inkscape-font-specification:'Source Sans Pro';stroke:none"
         d="m 299.80548,320.89025 2.00022,-14.44214 2.43674,0.33748 -2.00022,14.44214 z m 3.65987,-17.24092 q -0.71319,-0.0988 -1.15663,-0.61449 -0.41373,-0.5116 -0.31907,-1.19507 0.0988,-0.71319 0.63186,-1.06337 0.56691,-0.37578 1.2801,-0.277 0.7132,0.0988 1.12692,0.61037 0.44756,0.48599 0.34878,1.19919 -0.0947,0.68347 -0.66157,1.05925 -0.5372,0.37989 -1.25039,0.28112 z" />
      <path
         id="path987"
         style="font-style:normal;font-variant:normal;font-weight:normal;font-stretch:normal;font-family:'Source Sans Pro';-inkscape-font-specification:'Source Sans Pro';stroke:none"
         d="m 313.54101,322.61462 q -1.01842,-0.0568 -2.09994,-0.59797 -1.0499,-0.56939 -1.95992,-1.49154 l -0.0899,-0.005 -0.29327,1.48597 -1.97693,-0.11035 1.19044,-21.32681 2.45617,0.1371 -0.32436,5.81096 -0.20704,2.63255 q 1.03695,-0.81347 2.2369,-1.31738 1.20162,-0.53386 2.42971,-0.46531 1.40781,0.0786 2.45603,0.67793 1.0499,0.5694 1.71361,1.59799 0.69533,1.00031 0.97786,2.39822 0.31416,1.36964 0.22053,3.04703 -0.10366,1.85711 -0.6948,3.2964 -0.59113,1.43929 -1.51662,2.40922 -0.9255,0.96993 -2.09382,1.44556 -1.16665,0.44567 -2.42469,0.37545 z m -0.30399,-2.09019 q 0.8986,0.0502 1.66917,-0.29744 0.8022,-0.37588 1.38149,-1.06466 0.61091,-0.71707 0.97063,-1.77867 0.38968,-1.05993 0.46492,-2.40783 0.0669,-1.19814 -0.0876,-2.1983 -0.1545,-1.00017 -0.5953,-1.71585 -0.40917,-0.74396 -1.13627,-1.17515 -0.69715,-0.42952 -1.71556,-0.48637 -1.76725,-0.0986 -4.00429,1.75957 l -0.42635,7.63811 q 0.91169,0.8922 1.82019,1.30347 0.94011,0.38299 1.65899,0.42312 z" />
      <path
         id="path989"
         style="font-style:normal;font-variant:normal;font-weight:normal;font-stretch:normal;font-family:'Source Sans Pro';-inkscape-font-specification:'Source Sans Pro';stroke:none"
         d="m 329.61105,322.67672 q -1.46905,0.0528 -2.77654,-0.4105 -1.27859,-0.49439 -2.27246,-1.41928 -0.96497,-0.95594 -1.55528,-2.34563 -0.59031,-1.38969 -0.65498,-3.18853 -0.0647,-1.79884 0.42432,-3.22733 0.5179,-1.45955 1.38175,-2.48124 0.89383,-1.02278 2.04475,-1.57448 1.14984,-0.58169 2.40903,-0.62696 1.37911,-0.0496 2.47566,0.39131 1.12653,0.43981 1.8784,1.31336 0.78185,0.87247 1.21686,2.11764 0.43502,1.24518 0.49107,2.80417 0.014,0.38975 -0.002,0.78058 0.0129,0.35976 -0.0373,0.63174 l -9.83365,0.35354 q 0.23398,2.3331 1.57272,3.66586 1.36765,1.3017 3.4663,1.22625 1.04932,-0.0377 1.90798,-0.36878 0.88756,-0.36213 1.67872,-0.9009 l 0.92764,1.5877 q -0.93782,0.6341 -2.0909,1.12585 -1.15308,0.49174 -2.65211,0.54563 z m -4.90392,-8.64939 7.79496,-0.28024 q -0.0798,-2.21857 -1.0801,-3.32334 -0.97143,-1.13583 -2.68033,-1.07439 -0.7795,0.028 -1.48825,0.35369 -0.67878,0.3246 -1.22685,0.94469 -0.54916,0.59011 -0.90873,1.44358 -0.32958,0.85239 -0.4107,1.93601 z" />
      <path
         id="path991"
         style="font-style:normal;font-variant:normal;font-weight:normal;font-stretch:normal;font-family:'Source Sans Pro';-inkscape-font-specification:'Source Sans Pro';stroke:none"
         d="m 338.56124,321.80996 -1.88783,-14.45727 2.02283,-0.26414 0.48014,2.05513 0.0892,-0.0117 q 0.90521,-1.17712 1.94627,-2.00892 1.06692,-0.86543 2.58404,-1.06353 2.29056,-0.29911 3.51817,0.99282 1.25736,1.28804 1.6225,4.0843 l 1.1964,9.16221 -2.43929,0.31853 -1.15368,-8.835 q -0.26802,-2.05257 -1.039,-2.85954 -0.77486,-0.83671 -2.20274,-0.65026 -1.1304,0.14761 -1.91927,0.82546 -0.78888,0.67785 -1.74581,1.92223 l 1.36732,10.4711 z" />
      <path
         id="path993"
         style="font-style:normal;font-variant:normal;font-weight:normal;font-stretch:normal;font-family:'Source Sans Pro';-inkscape-font-specification:'Source Sans Pro';stroke:none"
         d="m 358.58345,318.91214 q -1.52333,0.33625 -3.02305,0.0836 -1.49971,-0.25268 -2.71256,-0.8759 l 0.84544,-1.87634 q 1.10556,0.55474 2.17575,0.81007 1.09949,0.24886 2.38846,-0.0357 1.40615,-0.31038 1.96696,-1.11006 0.56082,-0.79968 0.35389,-1.73711 -0.12286,-0.55661 -0.50634,-0.90207 -0.38347,-0.34546 -0.91685,-0.53495 -0.51056,-0.22525 -1.14818,-0.33028 -0.63763,-0.10503 -1.27526,-0.21006 -0.81986,-0.0955 -1.65266,-0.24964 -0.83926,-0.18341 -1.55791,-0.51634 -0.69583,-0.36868 -1.21892,-0.9291 -0.52309,-0.56043 -0.72355,-1.46856 -0.18753,-0.84955 -0.0269,-1.65305 0.18341,-0.83927 0.68221,-1.50237 0.52162,-0.69886 1.36509,-1.19226 0.83701,-0.52271 1.97951,-0.7749 1.34756,-0.29745 2.56423,-0.0745 1.24596,0.21652 2.21494,0.70924 l -0.80625,1.77552 q -0.85523,-0.39494 -1.72378,-0.57188 -0.86856,-0.17695 -1.806,0.03 -1.34756,0.29745 -1.85625,1.0549 -0.47939,0.75099 -0.29834,1.57124 0.10993,0.49801 0.45765,0.82065 0.34125,0.29334 0.84533,0.48929 0.49762,0.16666 1.10596,0.27816 0.63116,0.0757 1.29808,0.1743 0.82633,0.12482 1.65912,0.27893 0.86209,0.14765 1.58721,0.50987 0.71866,0.33292 1.25468,0.95194 0.56532,0.61254 0.78518,1.60857 0.19399,0.87884 0.0106,1.7181 -0.15412,0.8328 -0.69857,1.56742 -0.51516,0.72816 -1.44005,1.27026 -0.88913,0.56493 -2.14881,0.84298 z" />
      <path
         id="path995"
         style="font-style:normal;font-variant:normal;font-weight:normal;font-stretch:normal;font-family:'Source Sans Pro';-inkscape-font-specification:'Source Sans Pro';stroke:none"
         d="m 370.9696,315.62655 q -1.12124,0.33427 -2.00033,0.22069 -0.85034,-0.12215 -1.51907,-0.58018 -0.63999,-0.4666 -1.09837,-1.26909 -0.45837,-0.80249 -0.76693,-1.83748 l -2.30561,-7.73363 -2.06997,0.61711 -0.5314,-1.78247 2.14211,-0.79514 -0.87817,-3.99566 1.98372,-0.5914 1.16566,3.90994 3.76619,-1.1228 0.57426,1.92622 -3.76619,1.1228 2.31418,7.76239 q 0.3857,1.29373 1.05997,1.87533 0.69445,0.54428 1.90193,0.1843 0.37374,-0.11143 0.7707,-0.35499 0.39696,-0.24357 0.6991,-0.49017 l 0.9914,1.64534 q -0.515,0.37267 -1.16213,0.72212 -0.60981,0.36963 -1.27105,0.56677 z" />
      <path
         id="path997"
         style="font-style:normal;font-variant:normal;font-weight:normal;font-stretch:normal;font-family:'Source Sans Pro';-inkscape-font-specification:'Source Sans Pro';stroke:none"
         d="m 376.13203,313.54241 -5.43453,-13.52931 1.89299,-0.76039 1.1789,2.37148 0.0835,-0.0335 q 0.18158,-1.5601 0.85399,-2.70311 0.70025,-1.15418 1.86945,-1.62383 0.80731,-0.32428 1.55941,-0.30309 l 0.3597,2.18325 q -0.37878,0.0228 -0.67953,0.079 -0.30074,0.0562 -0.71832,0.22388 -0.86298,0.34665 -1.52992,1.42279 -0.6391,1.06497 -0.64176,3.07048 l 3.48883,8.68549 z" />
      <path
         id="path999"
         style="font-style:normal;font-variant:normal;font-weight:normal;font-stretch:normal;font-family:'Source Sans Pro';-inkscape-font-specification:'Source Sans Pro';stroke:none"
         d="m 385.4318,309.74791 q -0.67153,0.33399 -1.38215,0.11783 -0.69711,-0.25638 -1.05782,-0.98163 -0.38744,-0.77897 -0.15792,-1.46272 0.24302,-0.72398 0.91455,-1.05797 0.64466,-0.32064 1.34178,-0.0643 0.71061,0.21616 1.09805,0.99513 0.36071,0.72525 0.11769,1.44923 -0.22952,0.68375 -0.87418,1.00439 z" />
    </g>
    <path
       sodipodi:nodetypes="caaac"
       inkscape:connector-curvature="0"
       id="path4204"
       d="m 272.70658,315.99298 c 0,0 24.78156,5.23255 37.37564,6.06092 11.42865,0.75171 22.99084,0.49246 34.34519,-1.01015 10.80886,-1.43042 21.55162,-3.90982 31.8198,-7.57615 6.16939,-2.20283 17.67767,-8.58629 17.67767,-8.58629"
       style="fill:none;fill-rule:evenodd;stroke:none;stroke-width:1px;stroke-linecap:butt;stroke-linejoin:miter;stroke-opacity:1" />
  </g>
</svg>
