<?xml version="1.0" encoding="UTF-8" standalone="no"?>
<svg
   xmlns:dc="http://purl.org/dc/elements/1.1/"
   xmlns:cc="http://creativecommons.org/ns#"
   xmlns:rdf="http://www.w3.org/1999/02/22-rdf-syntax-ns#"
   xmlns:svg="http://www.w3.org/2000/svg"
   xmlns="http://www.w3.org/2000/svg"
   xmlns:sodipodi="http://sodipodi.sourceforge.net/DTD/sodipodi-0.dtd"
   xmlns:inkscape="http://www.inkscape.org/namespaces/inkscape"
   sodipodi:docname="map_holzkirchen.svg"
   inkscape:version="1.0 (4035a4f, 2020-05-01)"
   version="1.1"
   id="svg2"
   viewBox="0 0 780.15906 817.61292"
   height="230.74854mm"
   width="220.17822mm">
  <defs
     id="defs4">
    <marker
       inkscape:isstock="true"
       style="overflow:visible"
       id="Arrow1Mend"
       refX="0"
       refY="0"
       orient="auto"
       inkscape:stockid="Arrow1Mend">
      <path
         inkscape:connector-curvature="0"
         transform="matrix(-0.4,0,0,-0.4,-4,0)"
         style="fill:#000000;fill-opacity:1;fill-rule:evenodd;stroke:#000000;stroke-width:1pt;stroke-opacity:1"
         d="M 0,0 5,-5 -12.5,0 5,5 0,0 Z"
         id="path4494" />
    </marker>
    <marker
       inkscape:isstock="true"
       style="overflow:visible"
       id="Arrow2Lend"
       refX="0"
       refY="0"
       orient="auto"
       inkscape:stockid="Arrow2Lend">
      <path
         inkscape:connector-curvature="0"
         transform="matrix(-1.1,0,0,-1.1,-1.1,0)"
         d="M 8.7185878,4.0337352 -2.2072895,0.01601326 8.7185884,-4.0017078 c -1.7454984,2.3720609 -1.7354408,5.6174519 -6e-7,8.035443 z"
         style="fill:#000000;fill-opacity:1;fill-rule:evenodd;stroke:#000000;stroke-width:0.625;stroke-linejoin:round;stroke-opacity:1"
         id="path4506" />
    </marker>
    <clipPath
       id="clipPath4153"
       clipPathUnits="userSpaceOnUse">
      <rect
         y="149.60614"
         x="5.2796631"
         height="562.65497"
         width="562.65497"
         id="rect4155"
         style="opacity:1;fill:none;fill-opacity:1;stroke:#00aa88;stroke-width:2;stroke-miterlimit:4;stroke-dasharray:none;stroke-dashoffset:0;stroke-opacity:1" />
    </clipPath>
  </defs>
  <sodipodi:namedview
     inkscape:document-rotation="0"
     inkscape:window-maximized="1"
     inkscape:window-y="174"
     inkscape:window-x="0"
     inkscape:window-height="855"
     inkscape:window-width="1440"
     fit-margin-bottom="0"
     fit-margin-right="0"
     fit-margin-left="0"
     fit-margin-top="0"
     inkscape:object-nodes="false"
     inkscape:snap-bbox="true"
     showgrid="false"
     inkscape:current-layer="layer1"
     inkscape:document-units="px"
     inkscape:cy="439.2194"
     inkscape:cx="387.59179"
     inkscape:zoom="0.95661796"
     inkscape:pageshadow="2"
     inkscape:pageopacity="0.0"
     borderopacity="1.0"
     bordercolor="#666666"
     pagecolor="#ffffff"
     id="base" />
  <metadata
     id="metadata7">
    <rdf:RDF>
      <cc:Work
         rdf:about="">
        <dc:format>image/svg+xml</dc:format>
        <dc:type
           rdf:resource="http://purl.org/dc/dcmitype/StillImage" />
        <dc:title />
      </cc:Work>
    </rdf:RDF>
  </metadata>
  <g
     transform="translate(51.552377,-110.02742)"
     id="layer1"
     inkscape:groupmode="layer"
     inkscape:label="Layer 1">
    <path
       inkscape:connector-curvature="0"
       id="path4235"
       d="m 118.43359,110.0293 c -5.81219,27.41134 40.75462,89.06699 -18.24708,85.54408 -53.901823,-5.64191 -108.5905325,17.97206 -140.025285,62.31371 -21.932063,14.1615 -0.158653,32.64307 9.892778,6.51439 25.7235381,-39.01567 71.453842,-60.47976 117.754842,-56.84257 49.056285,-0.0616 -25.066252,58.59886 -7.908796,80.03769 26.875221,-21.45873 26.703661,-68.9061 54.029641,-89.64348 18.82185,1.94727 30.67015,49.71657 56.14936,61.83725 52.10295,50.42874 112.76592,92.03527 160.55322,146.77531 24.13774,32.79359 10.43427,78.33567 3.36187,113.2058 -2.22789,49.35029 -19.8049,100.20313 -60.01927,131.36321 C 256.80392,640.20144 225.22678,612.07315 194.573,588.19691 133.33894,536.32055 82.180643,472.02533 11.017883,432.50921 -2.236243,418.13067 -63.430613,398.4186 -26.264235,428.06834 c 45.725785,22.23147 88.635932,50.98005 124.977126,86.56447 -12.908202,21.65396 -44.520867,49.55912 -45.625,68.625 29.519809,-12.46408 48.275609,-87.41218 76.651959,-38.12514 44.29781,45.39468 93.94058,86.22735 150.01399,116.22917 -16.92735,24.69665 -44.72327,53.34232 -66.7546,78.84933 -54.39,61.92528 -107.88582,124.64029 -162.719943,186.17164 40.454703,-3.49133 58.063513,-58.69529 89.127843,-82.85685 49.90609,-55.82226 97.03435,-115.82799 150.33505,-167.60799 16.87328,4.15944 34.49149,48.63776 46.04958,71.01941 24.06454,56.5351 14.67568,119.87526 28.17513,178.37315 23.94907,1.04905 -1.94292,-52.28209 3.83541,-71.29991 -0.9199,-62.64816 -18.98156,-124.86718 -56.01325,-175.85828 -23.50715,-39.57898 51.28038,-43.22032 76.49881,-52.48008 40.13091,6.98166 80.10293,19.24349 109.07735,49.62898 15.23009,22.94964 75.91853,37.82003 47.35532,69.20936 -21.80846,48.0061 -0.0394,100.41172 6.77175,149.31484 -4.73298,18.30028 22.94424,52.70633 15.95575,17.73581 -7.96911,-51.2049 -27.04082,-103.7919 -15.2977,-155.63397 17.62186,-50.69741 63.02201,20.94079 95.00948,27.07571 46.80082,10.79446 -26.15113,-27.32527 -39.53043,-38.26603 -54.26231,-33.54436 -98.99023,-81.11599 -151.95525,-115.41778 18.41852,-20.10327 32.40618,-42.7831 41.62803,-67.56003 28.79668,5.48147 60.27434,25.37134 76.96541,51.87952 23.24374,30.75729 63.79558,42.904 100.91927,35.46366 25.27902,3.23809 36.92004,-30.60937 6.31213,-13.96832 -37.47022,18.67217 -84.50537,0.12919 -105.62203,-33.89182 -17.16724,-26.14062 -47.81994,-36.30557 -74.2521,-49.82474 3.67931,-39.66333 4.03121,-80.82776 -3.99204,-119.853 4.17307,-33.46138 29.60747,-63.29473 42.48128,-95.08286 11.12727,-37.77566 63.7013,-12.86385 93.04326,-23.56493 16.73721,-5.73834 77.40227,5.75502 63.98913,-17.43619 -48.85541,2.99392 -97.78069,10.98663 -146.75586,7.75391 -14.74113,-37.07866 -71.47567,-27.65834 -81.90039,-65.78321 5.55907,-43.53599 21.02625,-85.18087 39.66797,-124.68164 -33.52683,9.16789 -35.2044,67.16979 -47.6166,98.16213 -7.82453,25.58194 -10.88827,72.05504 -28.7852,84.88753 -26.37998,-1.60453 -60.1031,-29.33454 -81.71443,-14.28447 -14.38357,32.26254 -46.70755,72.88018 -79.94421,33.9718 -39.64161,-35.20897 -83.30763,-68.52003 -112.41449,-113.46871 -12.65197,-39.71653 51.91348,-57.61113 74.35084,-83.48888 17.31147,-16.1302 -37.83542,2.72911 -41.72495,15.6933 -19.70723,12.97908 -51.65771,59.27982 -54.18287,9.82786 -4.96004,-11.09784 -3.37392,-29.87841 -17.6927,-34.04079 z m 344.25,148.29687 c 19.66838,25.36089 90.52559,23.69745 68.88619,67.80101 -16.13183,32.75055 -34.9552,67.34078 -49.27095,99.0779 -29.10954,17.36044 -63.7911,-5.52942 -94.70904,-8.61133 -28.1588,-5.00856 -51.36487,-41.29248 -59.40885,-68.56261 2.28107,-38.32993 33.92737,-73.97501 71.42253,-49.58583 30.03093,2.04808 44.9134,16.33544 32.67187,46.5293 1.63142,14.89138 -26.16583,58.91606 -2.02004,53.03386 17.26857,-26.72164 12.69353,-59.6577 18.05614,-91.04114 6.36635,-15.29798 3.68227,-36.29894 14.37215,-48.64116 z m -87.70117,168.25 c 35.07643,4.63692 71.19485,23.94807 106.23302,14.80352 24.55656,25.5634 13.42252,77.95529 9.60296,113.5092 -9.23552,26.45458 -24.38795,53.66957 -46.45011,70.80839 -40.49935,-1.71168 -76.31389,-19.412 -81.41493,-63.95466 2.11294,-37.87293 15.76437,-74.91475 13.39066,-115.83017 -0.22871,-6.46149 -1.30253,-12.86727 -1.3616,-19.33628 z M 356.25,586.1875 c 35.59448,30.60694 -19.87997,23.35976 0,0 z m -8.91016,28.23633 c 40.52077,1.64847 -39.31825,25.30414 -3.55025,0.91052 l 3.55025,-0.91052 0,0 z"
       style="fill:#bebebe;fill-opacity:1" />
    <path
       sodipodi:nodetypes="cccccccccccccccccccccccccccccccccccccccccccccccccccccccccccccccccccccccccccccccccccccccccccccccccccccccccccccccccccccccccccccccccccccccccccccccccccccccccccccccccccccccccccccccccccccccccccccccccccccccccccccccccccccccccccccccccccccccccccccccccccccccccccccccccccccccccccccccccccccccccccccccccccccccccccccccccccccccccccccccccccccccccccccccccccccccccccccccccccccccccccccccccccccccccccccccccccccccccccccccccccccccccccccccccccccccccccccccccccccccccccccccccccccccccccccccccccccccccccccccccccccccccccccccccccccccccccccccccccccccccccccccccccccccccccccccccccccccccccccccccccccccccccccccccccccccccccccccccccccccccccccccccccccccccccccccccccc"
       inkscape:connector-curvature="0"
       id="path4248"
       d="m 207.84375,205.41433 c -3.85377,-0.31884 -5.16169,7.28535 -9.32422,3.7754 -2.38277,-3.29754 -4.2351,2.76512 -6.22461,3.79687 -3.49942,4.00682 -7.01216,8.01626 -10.18164,12.29297 4.66678,4.57877 9.63653,9.62161 14.9082,13.10547 8.8828,-7.24879 15.16158,-17.44164 19.32813,-28 1.12545,-3.27224 -6.27906,-5.0339 -8.50586,-4.97071 z m -79.27148,3.78907 c -7.07525,9.06086 -13.1553,19.0858 -19.00196,28.93554 2.13326,5.82399 9.13502,8.15008 13.75386,11.97179 11.50684,8.1709 24.41867,14.51319 35.22466,23.58681 3.24318,3.27695 -0.89424,7.21673 -1.91992,10.0332 6.61322,5.51736 14.26626,9.70682 21.46289,14.42188 5.098,-7.34739 10.69991,-15.49709 13.57812,-23.55274 -6.75183,-5.65276 -15.55971,-8.92377 -21.31445,-15.64844 -0.69687,-2.14379 1.26067,-4.19944 -1.88672,-5.2207 -2.87947,-0.93183 -5.30639,-4.05508 -3.01758,-6.83789 1.04436,-2.18333 4.7395,-5.00833 0.51758,-6.30273 -3.25871,-2.59549 -10.58621,-5.68135 -7.57617,-10.95704 -9.30583,-7.32382 -19.37906,-14.74997 -29.82031,-20.42968 z m -96.867192,16.62109 c -4.180113,4.52135 -9.957775,12.51052 -3.935547,18 8.158791,7.20856 18.696553,11.00282 28.013672,16.42774 3.430388,-5.4485 7.189203,-11.30427 9.53125,-16.95118 C 54.67462,236.55913 43.468761,230.43742 32.042969,225.43777 Z m 381.521482,5.86914 c -5.19973,16.44866 -10.07543,33.44736 -14.42968,50.31445 8.00376,2.29467 16.39354,5.44172 24.43359,6.49415 5.28138,-16.64839 10.08136,-33.45985 14.38672,-50.38672 -7.97213,-2.55387 -16.33514,-4.96597 -24.39063,-6.42188 z m -172.85351,6.15039 c -5.91056,5.94247 -11.79244,12.79491 -17.17188,19.56641 10.85194,10.3877 22.05742,20.60685 33.74805,29.89062 5.94621,-7.20452 13.27674,-13.54625 18.08008,-21.38281 -10.83688,-9.66381 -20.64003,-21.07235 -33.57618,-27.86914 -0.34886,-0.10494 -0.71102,-0.2192 -1.08007,-0.20508 z m 49.72851,24.00781 c -2.2035,2.8361 -5.88416,6.27742 -6.3164,9.51368 3.02028,1.84743 8.29246,5.74501 4.24023,9.42187 -5.44833,8.72886 -13.56042,16.12322 -17.13086,25.82617 1.41137,6.68911 9.31824,9.52249 13.85984,13.87369 7.14828,4.87866 13.95367,6.42526 21.08821,10.1986 9.2656,-11.28499 18.65554,-17.92389 26.87226,-29.91408 -11.80063,-9.80239 -25.2618,-17.62654 -36.48046,-28.07813 -1.96455,-1.89745 -0.044,-4.44524 0.43945,-6.11914 -2.01592,-1.76159 -4.23531,-3.44454 -6.57227,-4.72266 z m 30.96485,7.19727 c -0.92885,1.95231 -4.90871,5.58045 -1.53321,6.97852 7.24295,4.18956 14.53059,9.53503 22.03907,12.46679 1.6196,-2.31626 5.68604,-6.83336 0.71125,-7.92195 -7.03953,-3.73435 -13.52929,-9.2619 -21.21711,-11.52336 z m -210.7461,8.9375 c -1.26225,2.17468 -5.64578,5.30997 -1.70703,7.31445 8.80225,6.44087 17.50199,13.57349 27.07813,18.63282 0.85713,-2.28794 6.09079,-5.13189 2.43945,-7.20704 -9.13174,-6.30405 -17.96647,-13.72931 -27.81055,-18.74023 z m 253.70117,12.03516 c -9.56233,15.81536 -18.16702,32.33419 -26.54101,48.83984 -3.14407,5.64776 -3.27658,11.54632 -5.7965,17.51875 17.48842,10.67056 31.40807,20.84022 49.45861,30.52422 5.30137,-7.87108 10.18267,-15.9576 14.66015,-24.3125 -12.59992,-9.08243 -27.0386,-15.51306 -39.29492,-25.01953 -0.23378,-5.14678 4.61317,-9.74291 6.43773,-14.58066 4.97922,-9.48757 11.00045,-19.0644 15.09938,-28.63028 -4.35823,-2.02222 -8.81844,-3.84202 -13.37304,-5.37305 l -0.53273,0.84629 z m -155.97656,2.54297 c -6.02716,7.69509 -11.97336,15.45502 -17.80859,23.29687 6.82979,4.72406 13.00761,11.32692 20.2207,15.05469 2.95513,-2.81192 6.23692,-9.79042 11.20899,-6.52149 2.3806,0.84027 4.54892,5.19174 6.92382,4.25782 3.19774,-4.14583 7.55047,-8.4549 9.36524,-12.89844 -9.66608,-8.01877 -19.8145,-16.03148 -29.91016,-23.18945 z m 263.78906,9.82812 c -4.37363,20.84243 -8.3283,41.77911 -11.84375,62.7832 8.69161,2.08035 17.42209,3.76911 26.20118,5.31641 3.46262,-10.77604 3.43583,-22.66007 7.38476,-33.29102 3.40594,-3.43975 6.82303,3.30965 10.85547,1.64063 9.96997,0.23594 15.92452,-12.85686 9.02344,-20.07227 -3.24029,-4.48811 -9.03125,-3.72857 -13.70117,-4.69336 -3.69162,-1.61038 1.42704,-7.66849 -3.23633,-7.47851 -8.19942,-1.59714 -16.62672,-3.44253 -24.6836,-4.20508 z m -86.37695,1.17578 c -1.78786,4.21666 -3.67017,8.96012 -4.04297,13.34961 7.04211,2.58636 14.64256,5.49838 21.76953,6.53125 1.46276,-4.16096 2.75337,-8.38666 3.82227,-12.66602 -6.98537,-2.79614 -14.35395,-5.57979 -21.54883,-7.21484 z m -286.521483,2.16211 c -4.401167,7.43689 -9.52865,14.86405 -12.824219,22.73438 9.233742,8.77866 21.756882,13.47125 32.438902,20.33427 10.68822,6.49186 22.31051,11.95093 32.47321,19.03682 0.62048,5.85431 -4.36557,10.94261 -6.32713,16.2238 -7.54432,15.41071 -17.2754,29.79977 -23.85842,45.63557 -0.68906,4.28343 5.80707,4.5501 8.25391,6.66797 4.21325,1.72761 9.12462,6.09026 12.91601,6.03125 8.86757,-15.58224 17.43329,-31.34472 25.56055,-47.32617 -5.02737,-3.77905 -12.70456,-4.92458 -16.09961,-10.5332 -0.95159,-4.45305 4.4256,-7.88238 3.02539,-12.29102 6.16093,-5.15214 9.78235,-14.10092 13.97712,-21.13916 3.35996,-3.74154 0.75514,-6.13938 -3.4301,-7.70849 -21.91665,-12.7353 -43.90309,-25.5377 -66.105613,-37.66602 z m 322.218753,1.93359 c -5.20742,-1.4915 -3.0792,5.22915 -3.88214,7.9712 -0.23973,10.7833 -1.47163,21.94501 -0.37568,32.54052 6.28706,3.44467 15.98526,-2.83968 14.74052,-10.29884 0.0599,-3.63491 1.24031,-7.27764 3.4255,-10.02538 -5.80273,-4.92218 -0.70381,-13.5736 -2.79297,-19.6582 -3.58359,-0.95825 -7.44134,-0.35043 -11.11523,-0.5293 z m -175.76172,14.35743 c -4.41932,3.39183 -7.59587,8.7662 -10.51758,13.50195 4.7917,6.73569 13.27507,10.2389 19.59915,15.54819 2.79767,1.18311 6.98061,7.5739 9.51999,2.91275 2.4833,-4.43196 7.32164,-8.16086 8.63086,-13.03711 -7.23065,-7.01506 -16.19898,-12.24902 -24.47852,-18.01172 -0.85088,-0.41848 -1.76628,-0.98672 -2.7539,-0.91406 z M 40.722656,335.86551 c -6.683498,10.68195 -11.833037,22.65671 -14.548828,34.97461 2.658693,1.0147 2.38873,5.29875 4.921875,5.63476 1.618233,-3.28266 5.862151,1.37601 6.496094,-2.125 5.006091,-10.72589 11.822848,-21.45367 15.228515,-32.48437 -3.916261,-2.18326 -7.987626,-4.32826 -12.097656,-6 z m 154.048824,1.69336 c -1.71427,2.66099 -3.14275,5.51175 -4.27343,8.46679 6.70403,3.16247 13.09362,8.21027 20.17187,9.9961 1.11399,-2.54661 3.69214,-5.42232 3.69141,-8.17579 -6.07306,-3.99662 -13.00109,-7.73211 -19.58985,-10.2871 z m -117.246089,2.47851 c -10.017773,16.27137 -19.426077,33.17342 -28.058594,50.08203 7.171743,4.40093 14.42502,8.68478 21.873047,12.60352 10.038184,-16.68658 19.650338,-33.86777 28.107422,-51.26758 -6.883099,-4.4957 -14.266258,-8.95991 -21.921875,-11.41797 z m 330.574219,13.06055 c -4.60588,12.14286 -8.73994,24.47547 -12.39453,36.9375 6.05546,1.97264 12.91737,5.27237 18.91211,5.96875 5.1217,-11.82354 9.36413,-24.04917 12.48828,-36.59961 -6.24602,-2.21267 -12.76579,-4.67213 -19.00586,-6.30664 z m -175.07227,1.45508 c -3.19335,2.87068 -7.95307,9.62909 -2.07617,12.42187 8.8564,4.29792 17.04345,10.6403 26.30664,13.80078 2.38851,-2.2235 4.21271,-5.75603 1.17578,-8.33984 -6.66124,-7.71746 -15.01104,-15.21875 -24.93359,-17.89649 l -0.25586,-0.004 -0.2168,0.0176 z m -44.65039,7.84961 c -5.24751,8.22885 -9.96896,16.81999 -14.10351,25.66015 8.62053,5.44782 17.76199,10.1154 27.13476,14.1211 4.18333,-6.20027 6.49067,-14.04893 11.77735,-19.35938 1.86706,0.14155 -0.42508,-2.72951 1.38281,-4 2.76,-3.52095 -4.81111,-4.32419 -6.82853,-6.46361 -6.36795,-3.34092 -12.89788,-7.28826 -19.36288,-9.95826 z m 111.48047,3.01562 c -3.72776,4.84835 -3.84627,12.4556 -8.9043,16.18359 -2.79143,-0.18732 -4.57445,0.89438 -5.89843,3.76368 -2.86539,4.49793 -5.71109,9.20654 -6.95703,14.4414 19.10945,9.48837 38.0632,19.35987 57.51562,28.11719 0.76287,-5.09041 4.25383,-13.94938 -2.50586,-16.4668 -4.11167,-1.29263 -5.64537,-5.85641 -3.6554,-9.54255 0.92423,-2.76905 2.72202,-6.76039 -1.29772,-7.92229 -6.40242,-3.9847 -14.23079,-6.14647 -19.77149,-11.33984 -0.45177,-3.42977 1.89245,-6.70403 2.51367,-9.96875 -3.55948,-2.49993 -7.31185,-5.29808 -11.03906,-7.26563 z m 138.42383,11.38281 c -1.0157,7.84589 -2.91194,16.6241 -2.41211,24.00196 13.95493,2.06908 28.56673,4.28634 42.23047,5.2832 2.29962,-8.26493 3.96343,-17.00554 4.05859,-25.50977 -14.4815,-2.28294 -28.99271,-3.98879 -43.61132,-5.15625 l -0.1889,0.982 -0.0767,0.39886 z m -221.88281,6.36914 c -1.01804,0.3249 0.0137,3.7977 -1.58369,5.34368 -2.18364,5.0497 -4.8389,9.85572 -7.1253,14.85359 8.98789,5.40834 19.63191,8.27761 27.96289,14.72851 1.94641,2.05938 -1.64273,5.03701 2.36932,5.5319 6.87973,3.04965 13.53335,7.23166 20.80842,9.06381 4.45161,-3.33725 9.84775,1.7058 14.1875,2.93555 8.49812,3.59895 17.34494,8.9484 25.73242,11.26562 3.75502,-6.83496 8.5293,-14.45804 10.13281,-21.57617 -30.37893,-14.97106 -61.24071,-29.27032 -92.48437,-42.14649 z M 43.591797,413.99832 c -5.904612,5.95682 -11.414706,12.63869 -15.492188,20.0293 7.207928,5.36303 13.484185,12.52462 21.445313,16.59179 5.859211,-4.78287 9.931269,-11.78403 14.644531,-17.72461 2.266017,-4.13993 -4.608672,-6.30006 -6.617261,-8.83563 -4.693535,-3.17704 -8.708759,-7.89108 -13.980395,-10.06085 z m 271.263673,18.65039 c -9.45687,20.36692 -15.26814,42.29997 -20.58594,64.06641 0.0153,2.92698 -3.47789,8.78254 1.61797,8.62383 9.81124,2.26842 19.84211,4.58187 29.65547,6.16718 4.53665,-22.74385 10.18173,-45.30611 13.66601,-68.18945 -7.86485,-4.0663 -16.04035,-7.64758 -24.35351,-10.66797 z m -144.66016,2.77539 c -3.46055,8.10918 -7.41361,16.84031 -8.98437,25.16211 13.64655,5.72017 27.49055,11.65245 41.6875,15.59375 3.39767,0.52574 6.00513,3.70764 9.65435,4.43904 20.57794,8.656 41.37892,16.80168 62.37885,24.37541 3.81413,-7.83759 6.9527,-15.9009 9.44727,-24.25 -23.45201,-9.83439 -47.38246,-18.77424 -70.94532,-28.10547 -13.91101,-6.67711 -28.79693,-12.13586 -43.23828,-17.21484 z m 365.16992,1.91797 c -9.69136,0.76051 -19.77519,-1.37057 -29.0039,1.5293 -2.63298,5.46915 0.11202,12.08539 -0.38563,18.04624 0.53068,3.09588 -0.3893,7.07265 1.46766,9.65493 3.39134,-0.31841 8.6692,0.006 8.61523,4.60547 0.62037,4.246 -0.65074,9.70517 1.00586,13.13476 12.83766,-0.0395 26.6662,0.44927 38.83985,-1.06445 -0.75098,-13.72965 0.73036,-27.77311 -2.23438,-41.23828 -3.0478,-6.44094 -12.72534,-3.99421 -18.30469,-4.66797 z M -0.97442054,464.23248 c 0.7856984,5.74053 3.31364904,3.66788 8.04473304,6.35373 3.5324465,2.73626 -0.7744543,6.62894 -1.8300781,9.08398 5.6389306,4.72364 12.1058486,8.3321 18.2460936,12.34961 5.497498,-8.23142 11.435789,-16.63572 16.15625,-25.07031 -9.127131,-6.70855 -18.6849,-12.87558 -28.591797,-18.36914 -3.1254772,3.18497 -4.377638,9.15691 -8.7285154,10.60742 -3.29668614,5.04471 8.7285154,-10.60742 -3.29668614,5.04471 z M 49.894531,480.08621 c -8.390585,4.01684 -12.583408,13.45016 -18.65625,20.1582 -2.936858,3.85274 -6.585874,7.83065 -9.849609,10.98242 2.743585,3.63659 5.366869,8.56991 8.652344,11.29493 8.94326,-9.82456 16.611548,-20.90637 24.232422,-31.79883 3.800877,-3.99105 0.01555,-9.37712 -4.378907,-10.63672 z m 498.632809,26.14844 c -13.5525,0.82726 -27.32325,-0.59878 -40.66796,1.86718 -5.29433,2.5035 -1.98664,9.91537 -2.37291,14.36755 -0.44683,8.45873 10.69144,11.49534 17.34751,10.43909 2.83649,-0.92079 2.84886,-5.60369 6.5879,-5.38476 9.63687,-1.04382 19.79859,0.3905 29.11914,-2.27734 1.91393,-5.3209 0.78863,-11.67264 0.5625,-17.3125 -2.2333,-2.75268 -7.4279,-1.24377 -10.57618,-1.69922 z M 47.5625,513.61941 c -5.494465,5.84347 -10.339814,12.35277 -14.427734,19.25196 8.77151,6.38165 17.398637,13.15921 26.683593,18.8164 4.848426,-6.26872 9.794212,-12.7958 13.865235,-19.42773 C 65.341403,525.67061 56.63185,518.92265 47.5625,513.61941 Z m 203.57812,3.56446 c -4.17703,3.81038 -9.08099,11.31366 -2.63671,15.56054 14.6699,10.18722 32.77954,13.64998 49.29492,19.78516 5.4397,1.64911 10.80783,3.67649 16.41601,4.68164 3.15611,-6.97525 5.44634,-14.44203 6.47461,-22.0332 -13.22676,-5.12049 -26.85149,-9.68993 -40.74414,-12.22461 -5.08181,2.19448 -10.58571,-2.16317 -15.57226,-2.97852 -4.12022,-1.33067 -8.2452,-2.71782 -12.50391,-3.53711 l -0.69863,0.71549 -0.0299,0.0306 z m 164.89454,3.64648 c -3.97629,8.96927 -8.51851,18.0367 -10.48633,27.875 20.81873,7.91357 42.28252,15.03029 63.57617,21.39844 2.17987,-3.49782 8.40593,-2.02929 8.35938,-7.6211 1.07724,-3.72109 -4.07113,-5.84314 -2.09766,-9.71679 0.5599,-3.96856 3.49201,-7.98034 3.04687,-11.89063 -2.75236,-1.0791 -6.59517,-3.22559 -9.10742,-2.59765 -0.5654,3.74827 -4.34207,6.94775 -7.96253,4.01798 -11.58833,-4.47385 -24.11163,-6.92293 -35.17419,-12.58634 -3.42877,-1.96972 2.20254,-6.88555 -2.85742,-7.02539 -2.40365,-0.6891 -4.7937,-1.6477 -7.29687,-1.85352 z m 178.36523,2.63867 c -3.30734,8.1752 -6.34398,16.45726 -8.96484,24.83789 5.85649,2.853 12.33504,5.24232 18.5039,6.64844 3.7937,-8.37425 6.81056,-17.06745 8.90039,-25.98242 -5.83385,-2.25347 -12.48893,-4.935 -18.43945,-5.50391 z m -422.26953,13.09375 c -2.32282,5.61794 -4.71866,11.72667 -5.67774,17.51758 12.06003,4.87401 24.96173,9.59989 37.53711,11.73633 6.14425,-1.63415 12.27727,2.77802 18.18676,3.91078 7.46905,1.90494 14.81581,6.24159 22.45192,6.47008 1.8655,-4.2527 2.69305,-8.94346 4.73437,-13.14258 7.04798,0.0329 13.53007,4.431 20.38672,5.96289 1.79051,-4.57127 3.37529,-9.22564 4.77344,-13.93164 -9.71714,-3.16259 -19.1211,-8.29589 -29.26953,-9.60156 -4.58364,3.61693 -2.53925,12.09264 -7.65235,15.1914 -9.61762,-2.18033 -19.15554,-5.718 -27.89258,-10.2832 -11.78095,-6.16186 -24.73934,-10.20239 -37.5039,-13.98047 l -0.0742,0.15039 z m 360.59375,3.61524 c -2.61385,2.06587 -1.3745,7.09539 -2.51379,10.19416 -0.48674,3.15156 -2.28896,8.70931 2.87316,8.73162 9.35982,1.9892 19.79028,2.92342 26.6529,10.48476 3.38448,2.04991 5.94067,6.6553 9.71039,6.89219 3.89229,-4.11333 8.57176,-8.19576 11.14648,-13.22461 -5.95203,-7.01187 -14.26322,-11.99656 -21.79687,-17.2793 -8.22757,-3.33626 -17.33942,-4.44298 -26.07227,-5.79882 z m -434.289063,2.9375 c -12.054582,16.41048 -23.977221,33.26629 -35.173828,50.0332 8.326592,6.83893 17.477094,14.19966 26.646484,19.02539 12.128057,-16.74519 24.721047,-33.96525 35.271487,-51.30664 -8.2718,-6.66987 -17.37272,-13.05466 -26.744143,-17.75195 z m -63.914063,9.33398 c -4.762719,3.59006 -9.182055,8.47219 -12.115234,13.64844 2.367976,6.11694 9.032766,9.71307 13.642578,14.1543 5.857408,2.07299 9.062452,-5.84763 9.767578,-10.5 1.778506,-7.92094 -5.202218,-13.88227 -11.294922,-17.30274 z m 250.548826,4.78906 c -2.91379,6.1889 -3.0464,13.87947 -7.32617,19.3086 -1.76377,1.88383 -5.35217,-1.36337 -5.57031,2.07812 -0.94623,3.71993 -2.86313,10.03797 -8.01367,8.2207 -2.90933,-0.25503 -6.15714,-3.33094 -8.88672,-2.4121 -4.20349,10.95791 -10.47294,20.92033 -16.6836,30.82812 0.23034,3.06976 6.29107,4.32303 8.55632,6.70618 12.78127,8.16758 25.56142,16.34624 38.58626,24.12195 12.3916,-25.45754 19.262,-52.73262 27.12891,-79.82032 -9.02008,-3.64587 -18.31564,-6.88695 -27.55469,-9.65039 z m 215.63477,12.57813 c -6.20015,9.3505 -12.37861,19.01146 -17.62696,28.78906 10.02263,6.23558 20.08902,13.17209 30.39844,18.49609 6.43137,-9.27551 13.31336,-19.01994 18.14063,-28.77734 -9.85698,-6.83751 -20.08088,-13.18456 -30.62305,-18.91016 z m 129.29687,5.2832 c -3.37123,5.54612 -4.74518,12.68996 -8.95117,17.47461 -7.39053,-1.03228 -13.81199,-8.85708 -21.85351,-6.1543 -6.53533,3.90387 -5.50334,13.29874 -6.60743,19.81641 0.58055,3.04932 5.78604,1.11594 7.98138,2.23046 4.20793,0.0388 10.70628,2.27626 8.89362,7.70313 -0.5266,3.43797 -3.58266,6.75386 -3.55859,9.91211 7.13929,3.90381 14.91665,6.53185 22.30273,9.96875 1.35439,-3.4372 3.37928,-9.50328 8.32032,-7.49414 5.44382,1.6934 10.36892,4.83541 15.91406,6.20313 4.45561,-9.36918 8.51512,-18.9295 12.375,-28.5586 -5.16709,-3.37475 -13.61092,-3.59372 -16.21289,-9.95507 -1.13886,-4.68529 3.76737,-9.13165 3.9668,-12.89258 -7.12242,-3.58979 -14.53014,-6.69718 -22.16016,-9.03125 z m -230.31445,1.11133 c -4.28568,-0.25207 -10.34148,1.48124 -9.1627,7.02376 -0.58769,7.58434 -1.08893,15.07505 -0.91738,22.67546 6.93826,0.22544 14.27037,1.4996 21.01367,1.23047 9.66724,-1.72446 19.83933,0.0807 29.65659,0.22885 3.54096,-0.56832 9.21411,2.08689 11.78873,-1.12534 0.59146,-7.88536 1.51506,-16.27519 0.82226,-24.16211 -5.53513,-2.96025 -12.601,-1.10724 -18.76838,-2.01463 -10.72425,-0.0153 -21.08478,-2.22734 -31.53631,-3.78615 -0.96403,-0.062 -1.9305,-0.0879 -2.89648,-0.0703 z m 146.99609,22.20508 c -3.86311,4.26015 -6.89932,9.73103 -9.43554,14.91797 4.70331,5.4583 12.28041,8.21206 18.16211,12.50781 3.66999,3.31065 5.01002,-3.19115 6.85023,-5.1293 1.36455,-3.20897 5.38709,-6.18579 4.88609,-9.73008 -6.3877,-4.55567 -13.2172,-9.60864 -20.46289,-12.5664 z m -488.953121,5.6875 c -6.807203,9.08245 -13.249219,18.45267 -19.251953,28.08594 14.449813,10.05042 28.253671,21.25143 43.316406,30.39453 2.797022,0.70026 3.2026,-4.76942 5.337596,-5.7871 2.127349,-3.93054 6.960444,-7.39384 7.146779,-11.99806 -6.065284,-5.80493 -14.458722,-9.39401 -20.046875,-15.5 0.193834,-3.95227 4.792495,-6.81506 4.933594,-10.27734 -6.916309,-5.06584 -14.433942,-11.26251 -21.435547,-14.91797 z m 100.355471,10.625 c -4.8529,0.24225 -7.82315,5.40016 -9.98828,9.05078 5.9456,7.3264 14.00468,12.93122 21.14453,19.1289 3.75647,-4.28627 8.43418,-8.80126 10.86133,-13.625 -5.08962,-7.16074 -12.79017,-14.19628 -22.01758,-14.55468 z m 42.52539,6.10742 c -6.41508,7.1055 -12.77924,14.30498 -18.64844,21.85547 7.18617,7.02299 14.65816,13.75314 22.25977,20.32226 7.12756,-7.50985 13.95411,-15.32273 20.38281,-23.43945 -7.157,-7.16689 -15.07062,-13.6329 -23.42578,-19.35156 z m 315.00586,6.9082 c -5.81693,7.04635 -11.37819,14.30653 -16.77344,21.67969 19.37841,14.44398 39.71398,28.46687 59.0957,42.45508 8.75471,-10.65828 17.92082,-21.32029 24.6211,-33.43164 4.44771,-9.30825 -4.75791,-17.35992 -10.15625,-23.72266 -2.31288,-2.40355 -4.75883,-7.16592 -7.16797,-2.08594 -5.34,4.41212 -8.42437,13.7412 -16.2793,14.21289 -9.86326,-2.15023 -17.12689,-10.31335 -25.77148,-15.07031 -2.40559,-1.32509 -5.03736,-3.78983 -7.56836,-4.03711 z m -271.73438,14.4961 c -3.33042,1.78909 -6.16377,5.18358 -8.12109,8.36914 3.40806,4.82912 11.66421,8.93079 10.0332,15.91797 -1.48366,3.62439 -6.00261,0.23269 -7.68164,3.48242 -6.39483,5.43887 -10.41774,13.70507 -17.73242,17.94726 -4.18925,1.74053 -6.37934,-6.64253 -10.08984,-1.88281 -5.35168,5.14314 -11.06536,11.37471 -14.99219,17.29688 4.47549,4.24435 8.79567,9.2781 14.03711,12.39453 7.82989,-4.78214 11.83842,-14.13272 19.04297,-19.5625 3.44946,-0.81067 5.60278,3.81405 8.13281,4.28711 11.8471,-11.998 22.8163,-24.94639 33.82031,-37.72266 3.98741,-4.42753 -3.91016,-6.94133 -6.54452,-9.07025 -6.66386,-3.6452 -12.54782,-9.41157 -19.9047,-11.45709 z m 203.49805,0.85546 c -9.99097,1.08307 -19.90094,4.11398 -29.87109,5.14454 -3.01739,-0.41104 -1.03248,-5.20675 -4.79297,-4.06446 -22.40439,-0.82648 -44.96113,1.16703 -67.00391,5.48438 -6.8992,2.93531 -14.49228,3.17768 -21.71875,4.42773 -0.85079,7.56839 0.76333,15.61444 1.67969,23.125 2.1437,2.3412 6.57818,-0.15081 9.40149,0.23073 3.9462,-0.42621 11.08681,-2.01412 11.99695,3.68919 1.14816,2.99876 -0.31726,7.2775 1.66992,9.59375 13.78728,0.97658 27.76865,-2.8821 41.66601,-2.76953 9.14979,1.16744 10.18489,12.32288 12.07813,19.4336 5.71163,28.03763 11.20288,56.19361 17.33594,84.10156 8.09296,-0.60932 16.71197,-1.45149 24.27929,-3.46289 -4.13724,-23.32489 -10.80734,-46.21064 -14.03711,-69.67578 -1.58174,-5.78715 7.9667,-8.1546 9.53516,-2.72266 4.71794,15.01193 5.185,31.20723 10.42383,46.00195 3.7727,1.22512 8.28914,-1.53861 12.28125,-1.70898 4.57383,-0.8461 1.38867,-7.0021 1.4537,-9.99786 -2.07703,-13.39596 -6.04717,-26.59682 -7.19589,-40.09003 -0.24565,-2.90734 4.44572,-1.23577 3.14648,-3.76953 -1.29069,-10.50809 -5.49818,-21.03387 -5.16015,-31.72461 2.92197,-2.20427 0.34811,-5.99538 0.0449,-9.14063 -1.89403,-4.81848 -4.80248,-9.26289 -5.33594,-14.63671 -0.63181,-2.38677 -0.90037,-5.39401 -1.87695,-7.46876 z m 268.69726,4.45118 c -7.44664,0.99094 -15.79242,0.67861 -22.74609,2.87109 1.14545,4.83768 0.39165,10.51457 2.41797,14.91797 7.88597,0.51269 16.3347,-0.56109 24.21484,-2.42774 0.96392,-4.68189 0.65119,-10.34219 -0.72461,-14.97265 -0.94261,-0.53489 -2.12571,-0.36834 -3.16211,-0.38867 z m -68.65624,5.93164 c -6.07175,12.12444 -11.52572,24.58834 -16.24415,37.24023 16.50967,7.97579 33.11454,15.85259 50.14258,22.71875 5.82582,-12.30047 11.4162,-24.6705 16.74805,-37.17187 -16.15877,-8.9889 -33.04499,-16.76146 -50.43164,-23.16211 z m -502.15821,19.82226 c -8.11133,5.29787 -13.01283,14.50215 -19.69922,21.45118 -3.55372,5.14394 -9.60614,9.42275 -11.15039,15.55859 4.03552,4.05799 8.81079,8.12352 13.49805,11.10742 9.59367,-10.96267 21.41075,-20.99569 27.18359,-34.69336 2.30046,-6.38184 -5.26999,-11.03388 -9.83203,-13.42383 z m 148.3125,11.72266 c -9.76926,3.31857 -18.67337,10.06552 -24.97265,18.21289 -1.44514,6.64464 -9.79239,9.24702 -12.03125,15.18945 4.43373,7.07087 10.7269,13.14513 17.11914,18.49024 5.31681,2.35472 9.64346,-4.22549 13.71128,-6.51832 5.14463,-4.52679 12.02233,-8.73602 16.04653,-13.47973 -2.14713,-2.86214 -5.84815,-7.52392 -1.91406,-10.63477 1.4247,-2.11076 5.22598,-3.39105 5.63672,-5.88671 -4.09373,-5.41394 -8.99743,-10.59579 -13.59571,-15.37305 z m 293.04492,1.04297 c -5.86845,8.09408 -11.11048,16.69906 -15.5332,25.66601 8.89989,6.54084 18.37232,12.36046 27.65234,18.23633 5.68703,-8.38729 11.28323,-16.9899 16.33204,-25.70117 -9.30402,-6.31797 -18.79338,-12.51466 -28.45118,-18.20117 z m -85.40625,3.85742 c -5.36475,6.72804 -10.38361,13.63907 -15.12109,20.81836 15.56268,11.48504 30.97943,23.17761 46.93555,34.12695 5.41841,-6.86065 10.61015,-14.10071 15.3457,-21.40039 -15.32009,-11.4964 -31.22467,-23.18565 -47.16016,-33.54492 z M 85.90625,699.98465 c -11.003542,11.76613 -21.342559,24.61755 -31.378906,36.98242 5.750709,5.60453 11.757169,11.51353 18.904297,15.31445 4.883957,-1.35826 6.357069,-9.01099 12.478515,-8.11719 13.481298,1.10641 25.934244,8.23171 36.255864,16.64844 3.75148,3.15956 9.02306,9.49611 4.08912,13.94512 -6.45895,9.03833 -15.12644,16.59562 -20.71998,26.13691 2.15312,5.14391 8.44218,7.61559 12.24023,11.59961 2.80681,2.10526 5.67578,4.9693 8.55273,6.4961 14.41523,-16.25126 28.41291,-33.09541 41.70704,-50.15625 -27.09953,-23.24976 -54.67325,-45.92444 -81.906254,-69.01563 z m 93.56641,8.4375 c -8.48286,9.34476 -17.23782,18.77214 -25.14454,28.42773 7.4483,8.00338 15.98721,14.96822 24.64258,21.79297 8.19865,-8.96393 16.47124,-18.1731 24.2461,-27.3125 -6.6414,-8.79491 -14.52277,-16.70685 -23.43555,-23.22852 z M 716.75,711.24246 c -5.42072,1.21081 -11.81488,1.06481 -16.51562,3.9082 0.17972,7.41272 0.62374,15.13929 2.9121,22.09766 5.34987,4.88165 13.01515,6.56955 19.5918,9.39258 3.23255,0.11386 2.26925,-5.81534 3.7832,-7.61914 0.27089,-2.97168 3.33336,-7.07009 1.50782,-9.6875 -3.74159,-0.84582 -8.89121,-2.03628 -8.77539,-6.91797 -0.81268,-3.58836 0.0276,-7.99526 -1.61719,-11.15235 -0.2931,-0.0466 -0.59173,-0.0344 -0.88672,-0.0215 z m -88.63477,4.03711 c -5.60845,3.3419 -7.87228,10.56622 -12.07617,15.46094 -1.81404,2.22802 -4.04125,5.86608 0.13672,7.21289 5.56821,3.24396 11.21079,8.46194 17.11328,10.21484 5.1899,-6.81228 9.88104,-14.02901 14.01563,-21.5293 -6.34636,-3.72954 -11.9117,-9.89116 -19.18946,-11.35937 z m -306.12109,7.73828 c -6.15729,2.05234 -12.13395,4.77249 -17.69531,8.125 5.04934,12.28352 10.08328,25.12985 15.88476,36.85547 6.03506,-2.73807 13.18165,-4.71711 18.41407,-8.37109 -4.93339,-12.43145 -10.35756,-24.88158 -16.60352,-36.60938 z m -73.55078,4.5293 c -11.96662,12.29434 -23.52226,24.94378 -34.72266,37.93945 6.9556,6.34452 13.17976,14.05621 21.44141,18.66992 5.86269,-1.66065 8.82662,-8.45823 13.67657,-12.00226 4.54296,-3.87697 9.73581,-6.78369 13.50898,-11.6325 3.01044,-3.29876 6.50661,-6.60098 8.89648,-10.18555 -6.35699,-8.50776 -14.20305,-17.04385 -22.80078,-22.78906 z m 419.83984,9.83789 c -4.53537,6.81364 -9.00977,14.23152 -11.91992,21.6582 7.34484,4.5806 14.90592,8.97233 22.44141,13.08008 4.17533,-6.97406 9.63188,-14.40239 12.24219,-21.57617 -6.99966,-5.23621 -14.5217,-9.92486 -22.52344,-13.46485 z m -171.27539,1.27343 c -4.65822,0.35175 -9.54802,1.33335 -14.09765,2.53516 1.95544,12.09408 4.07405,24.1759 6.60742,36.16016 4.47255,-1.55706 10.23784,-0.91486 14.07812,-3.38867 -1.16385,-11.69272 -3.72046,-23.71992 -6.47851,-35.31055 l -0.10938,0.004 z m 100.05469,14.18946 c -8.11595,0.54344 -19.47931,-0.66228 -22.98828,8.83984 -4.43413,12.90253 -1.70496,27.1013 0.14453,40.35742 8.83469,0.76748 18.08315,0.97151 26.8125,-0.70312 5.11134,-3.54048 2.73386,-11.29297 3.39151,-16.61715 -0.77267,-10.28407 1.20158,-20.94308 -1.52628,-30.78324 -1.37977,-1.62457 -3.99641,-0.96104 -5.83398,-1.09375 z M 472.7168,767.1741 c -6.926,0.95531 -14.3325,1.94626 -20.98242,3.9707 0.99289,10.80447 3.49102,21.39386 5.22265,32.08985 7.45653,-0.78296 15.52869,-1.65618 22.38672,-3.94532 -1.40884,-10.77753 -3.31563,-21.6534 -5.71289,-32.1875 l -0.91406,0.0723 z m -201.73047,4.67383 c -9.12156,3.02744 -14.84964,11.89219 -22.04104,17.85722 -9.61971,9.76349 -20.38035,18.75705 -29.00974,29.32051 1.93361,1.99569 -0.69108,4.43189 -0.98633,5.89844 1.81085,1.44596 3.94697,6.26345 6.48633,2.83008 8.23877,-6.4815 14.07089,-16.19796 23.54883,-20.95703 9.05412,-1.90002 12.18521,11.35899 21.00585,11.03906 12.49476,-0.37717 21.51053,-11.31985 28.06641,-20.77539 -7.53577,-8.59224 -14.93073,-17.9724 -24.38672,-24.63281 -0.83099,-0.40169 -1.75436,-0.65599 -2.68359,-0.58008 z m -62.81836,2.66211 c -4.08632,4.0084 -8.42952,8.51961 -11.20899,13.5332 5.08808,6.96582 12.6583,12.10353 19.01563,17.98633 2.95278,2.31009 4.55223,-3.55624 6.55651,-4.74711 1.75039,-2.96128 6.22492,-5.25844 6.18958,-8.85836 -5.97159,-6.58196 -13.03269,-12.4077 -20.07422,-17.8125 -0.15329,-0.0421 -0.31405,-0.12425 -0.47851,-0.10156 z m 321.16797,0.42773 c -4.52623,0.92482 -10.49653,0.19097 -14.11719,3.11328 -0.0713,3.02098 0.25415,6.92945 4.18061,4.77883 3.46581,-0.96911 8.34915,-0.95996 11.01861,-2.74758 -0.2036,-1.6588 -0.11003,-4.03949 -1.08203,-5.14453 z m -200.59375,2.63477 c -3.8957,0.78541 -5.8596,7.72454 -3.33594,9.96484 6.26798,1.92944 8.50437,-7.7798 3.5332,-9.96094 l -0.084,-0.006 -0.11328,0.002 z m 297.56836,2.63672 c -3.84713,5.17562 -9.40702,9.79916 -11.83399,15.72461 6.50411,7.10879 15.12899,12.17237 22.68946,18.16601 4.48468,-5.17291 8.6887,-10.6008 12.5957,-16.22265 -7.43981,-6.35356 -15.09542,-12.40669 -23.01367,-18.1211 z m -121.2461,4.44921 c -3.59836,-0.13939 -5.42844,2.34326 -4.43554,5.69532 0.54002,5.30447 0.88189,11.46982 3.08984,16.07617 2.67212,-1.05652 6.99537,-0.5254 8.73633,-2.3457 -1.40906,-6.37585 -0.98012,-14.38828 -5.91016,-19.19922 -0.46366,-0.20416 -0.97936,-0.25081 -1.48047,-0.22657 z m -466.996091,2.07227 c -7.621097,9.99982 -15.003181,20.36676 -22.527343,30.53125 20.09362,16.32109 41.217921,31.41037 62.455997,46.20316 4.549568,3.07439 11.719317,7.03173 15.758846,1.04098 6.500061,-8.44672 12.829811,-17.0907 18.392581,-26.19336 -24.204562,-17.83126 -48.533145,-35.49588 -72.972659,-53.0039 l -0.614465,0.78894 z m 341.617191,5.48242 c -5.53855,0.55264 -15.65348,2.3819 -13.73633,9.96875 0.19016,5.58303 4.98508,4.58351 8.96484,3.70703 5.90122,-1.25746 12.67053,-1.06729 18.04297,-3.58007 3.64601,-5.48308 -4.60194,-9.80883 -9.13476,-9.96094 -1.3698,-0.18327 -2.75797,-0.22295 -4.13672,-0.13477 z m -46.64063,6.80469 c -6.02563,1.17539 -12.69162,0.13845 -18.28515,2.3457 -1.66777,10.03771 1.41933,20.42182 1.65452,30.57962 0.95915,7.35101 0.80963,15.32179 2.09352,22.41452 7.19983,0.75029 14.74368,-0.28845 21.77539,-1.53711 1.59719,-11.35898 -1.35865,-22.98746 -1.65441,-34.49598 -1.16053,-6.18005 0.32736,-13.69154 -3.22059,-19.07042 -0.7403,-0.31278 -1.58067,-0.24641 -2.36328,-0.23633 z m -147.91211,0.36719 c -6.29491,7.6053 -12.33128,15.44186 -17.91406,23.58593 5.95662,4.18945 11.21552,10.39588 17.82227,13.26172 3.40004,-2.21268 4.73422,-9.88967 9.875,-8.02539 3.77506,3.43721 7.71523,-2.5321 10.70507,-4.71289 1.43919,-2.10893 7.06457,-5.68018 2.94477,-7.7534 -7.34191,-5.79986 -15.27058,-12.65009 -23.43305,-16.35597 z m 485.5625,4.61328 c -7.79928,1.08817 -16.4867,5.75587 -18.69726,13.72851 0.95976,2.94195 4.86807,6.2169 1.75976,9.4668 -6.28577,6.28594 -16.29485,3.45344 -23.875,5.60352 -1.68883,8.3795 -0.0987,17.24743 0.43555,25.82031 1.03019,6.65228 9.87888,4.188 14.59375,4.72461 10.27565,-0.88455 21.02827,0.80294 31.02148,-1.9082 3.17191,-4.40311 0.40895,-10.72504 1.05357,-15.83364 -0.54046,-8.41233 -0.75777,-17.57837 4.88939,-24.51868 1.49112,-3.33592 7.64839,-8.32186 1.69376,-10.75315 -4.17014,-2.19792 -7.79207,-6.68939 -12.875,-6.33008 z m -158.95312,13.22265 c -3.94993,0.54934 -8.8207,1.34286 -11.60157,4.00196 2.89145,15.10571 5.20135,30.71341 8.78516,45.4375 4.51896,1.32399 9.61017,1.71917 14.14453,0.8418 -2.91841,-16.8184 -6.30646,-33.73974 -10.10937,-50.26954 -0.40508,-0.0362 -0.81302,-0.039 -1.21875,-0.0117 z m -33.61524,3.91797 c -5.69814,1.02628 -12.14624,1.69873 -17.32031,3.44922 2.61536,14.17087 5.04106,29.32638 8.43359,42.94922 6.12069,0.0913 12.49149,0.25126 18.44336,-0.0508 -3.36096,-15.30122 -5.7256,-31.67261 -9.55664,-46.34766 z m -82.41992,2.29297 c -7.15344,-0.36678 -5.02316,9.03895 -3.49023,13.15625 1.0031,3.61229 7.30099,-0.86824 7.17578,-3.36328 -0.91059,-2.82782 0.79976,-8.20684 -2.26172,-9.78125 -0.47291,-0.0496 -0.95019,-0.0178 -1.42383,-0.0117 z m -236.9707,11.75977 c -4.6484,6.27284 -11.04915,11.75596 -14.33203,18.77148 7.55748,8.92378 19.25403,15.34048 31.28125,13.375 5.41208,-0.71183 12.87918,-3.26025 13.37109,-9.51172 -9.57649,-8.17221 -19.49731,-15.9532 -29.64453,-23.40429 l -0.65985,0.75139 -0.0159,0.0181 z"
       style="fill:#4d4d4d;fill-opacity:1" />
    <path
       sodipodi:nodetypes="ccc"
       inkscape:connector-curvature="0"
       id="path4252"
       d="m 156.5953,225.61096 52.76589,50.8087 74.06254,63.79233"
       style="fill:none;fill-rule:evenodd;stroke:none;stroke-width:0.9528057px;stroke-linecap:butt;stroke-linejoin:miter;stroke-opacity:1" />
    <g
       style="font-style:normal;font-weight:normal;font-size:30px;line-height:0%;font-family:sans-serif;letter-spacing:0px;word-spacing:0px;fill:#000000;fill-opacity:1;stroke:none;stroke-width:1px;stroke-linecap:butt;stroke-linejoin:miter;stroke-opacity:1"
       id="text4272"
       transform="translate(31.314729,32.829957)"
       aria-label="Münchner Str.">
      <path
         id="path915"
         style="font-style:normal;font-variant:normal;font-weight:normal;font-stretch:normal;font-size:30px;font-family:'Source Sans Pro';-inkscape-font-specification:'Source Sans Pro'"
         d="m 158.54022,227.48374 13.65047,-14.17629 2.16102,2.08086 -4.56014,10.18546 q -0.44817,0.98445 -0.93876,1.9697 -0.44817,0.98445 -0.89634,1.9689 l 0.0864,0.0832 q 0.96681,-0.48505 1.89041,-1.01171 0.96601,-0.52746 1.93283,-1.0125 l 9.96269,-4.9833 2.18263,2.10167 -13.65047,14.17629 -1.68559,-1.62307 7.51191,-7.80128 q 0.91558,-0.95085 2.10488,-2.01296 1.1893,-1.0621 2.16971,-1.95053 l -0.0864,-0.0832 -4.22422,2.13787 -9.7546,4.7672 -1.18856,-1.14448 4.39527,-9.92774 1.97676,-4.30197 -0.0864,-0.0832 q -0.85075,1.01327 -1.88878,2.22104 -1.01641,1.22858 -1.93199,2.17942 l -7.51192,7.80129 z" />
      <path
         id="path917"
         style="font-style:normal;font-variant:normal;font-weight:normal;font-stretch:normal;font-size:30px;font-family:'Source Sans Pro';-inkscape-font-specification:'Source Sans Pro'"
         d="m 176.88744,245.65019 q -1.68559,-1.62307 -1.46474,-3.40947 0.24245,-1.76559 2.19846,-3.79695 l 6.40906,-6.65594 1.79365,1.72711 -6.18016,6.41823 q -1.4358,1.49111 -1.62705,2.598 -0.14884,1.1061 0.88845,2.10491 0.82119,0.79073 1.84325,0.98359 1.04287,0.17125 2.694,-0.0297 l 7.17898,-7.45552 1.77203,1.70631 -10.11299,10.50256 -1.4695,-1.41499 1.43019,-1.78804 -0.0648,-0.0624 q -1.5671,0.15691 -2.88769,-0.11517 -1.29899,-0.25128 -2.40111,-1.31252 z m 11.42709,-13.94332 q -0.47543,-0.45779 -0.48665,-1.05165 0.01,-0.61548 0.44657,-1.06929 0.43698,-0.45382 1.03084,-0.46504 0.61468,-0.0328 1.0901,0.42496 0.45381,0.43698 0.44423,1.05245 0.0112,0.59387 -0.42576,1.04768 -0.43698,0.45382 -1.05166,0.48665 -0.59386,0.0112 -1.04767,-0.42576 z m 4.14916,3.99526 q -0.45382,-0.43698 -0.46504,-1.03085 0.01,-0.61547 0.44657,-1.06929 0.43698,-0.45381 1.03084,-0.46503 0.61467,-0.0328 1.06849,0.40415 0.47542,0.45779 0.46584,1.07326 0.0112,0.59386 -0.42576,1.04768 -0.43698,0.45381 -1.05166,0.48665 -0.59386,0.0112 -1.06928,-0.44657 z" />
      <path
         id="path919"
         style="font-style:normal;font-variant:normal;font-weight:normal;font-stretch:normal;font-size:30px;font-family:'Source Sans Pro';-inkscape-font-specification:'Source Sans Pro'"
         d="m 185.84436,253.77513 10.113,-10.50256 1.46949,1.41499 -1.30533,1.65837 0.0648,0.0624 q 1.48466,-0.0281 2.78445,0.26563 1.3422,0.2929 2.44432,1.35414 1.66399,1.60226 1.42153,3.36785 -0.22085,1.7864 -2.17686,3.81776 l -6.40906,6.65594 -1.77204,-1.7063 6.18017,-6.41823 q 1.43579,-1.49111 1.58463,-2.5972 0.16964,-1.12771 -0.86765,-2.12652 -0.82118,-0.79073 -1.84324,-0.98359 -1.02206,-0.19285 -2.59156,-0.1632 l -7.32464,7.60679 z" />
      <path
         id="path921"
         style="font-style:normal;font-variant:normal;font-weight:normal;font-stretch:normal;font-size:30px;font-family:'Source Sans Pro';-inkscape-font-specification:'Source Sans Pro'"
         d="m 201.5619,269.40944 q -1.03729,-0.99882 -1.59117,-2.24015 -0.55388,-1.24134 -0.55792,-2.57793 0.0384,-1.3374 0.6274,-2.72764 0.63144,-1.39103 1.87996,-2.68764 1.26933,-1.31823 2.65793,-1.93854 1.4094,-0.64193 2.78762,-0.68919 1.37821,-0.0473 2.63958,0.45933 1.28299,0.5274 2.29867,1.50541 1.03729,0.99881 1.41829,2.07368 0.381,1.07486 0.46426,2.11292 l -2.03129,0.29299 q -0.0584,-0.84757 -0.32739,-1.6063 -0.24733,-0.73792 -0.87403,-1.34137 -0.71314,-0.68669 -1.60954,-0.96679 -0.8756,-0.30171 -1.82802,-0.17763 -0.95242,0.12409 -1.94004,0.63074 -0.94521,0.50585 -1.81917,1.41348 -0.87397,0.90763 -1.34375,1.87127 -0.46978,0.96364 -0.5794,1.89926 -0.0672,0.93482 0.24656,1.82 0.33457,0.86358 1.04771,1.55026 0.73475,0.7075 1.63115,0.9876 0.93883,0.27929 1.85204,0.32569 l -0.36651,1.93767 q -1.31659,-0.06 -2.53474,-0.52496 -1.19735,-0.48658 -2.1482,-1.40216 z" />
      <path
         id="path923"
         style="font-style:normal;font-variant:normal;font-weight:normal;font-stretch:normal;font-size:30px;font-family:'Source Sans Pro';-inkscape-font-specification:'Source Sans Pro'"
         d="m 207.4646,274.65693 14.21506,-15.94308 1.83614,1.63713 -3.8732,4.34404 -2.06367,2.1793 q 1.44256,-0.0402 2.75265,0.2035 1.33005,0.22126 2.47204,1.23947 1.72418,1.5373 1.54958,3.31089 -0.1522,1.79356 -2.02891,3.8984 l -6.14921,6.89673 -1.83614,-1.63713 5.92959,-6.65042 q 1.37759,-1.54504 1.48391,-2.65603 0.12629,-1.13338 -0.94852,-2.0917 -0.8509,-0.75867 -1.8796,-0.9122 -1.0287,-0.15354 -2.59591,-0.0637 l -7.02766,7.88197 z" />
      <path
         id="path925"
         style="font-style:normal;font-variant:normal;font-weight:normal;font-stretch:normal;font-size:30px;font-family:'Source Sans Pro';-inkscape-font-specification:'Source Sans Pro'"
         d="m 219.78652,285.3993 9.51518,-11.04707 1.54568,1.33134 -1.21139,1.72819 0.0682,0.0587 q 1.48082,-0.11032 2.79489,0.11086 1.35638,0.21803 2.51564,1.21654 1.75026,1.50755 1.60606,3.28387 -0.12147,1.79589 -1.96186,3.93257 l -6.03019,7.00102 -1.86391,-1.60544 5.81483,-6.75098 q 1.35092,-1.56842 1.43821,-2.68106 0.10686,-1.13538 -0.98421,-2.07515 -0.86376,-0.74398 -1.89494,-0.87988 -1.03118,-0.1359 -2.59662,-0.0193 l -6.89165,8.00117 z" />
      <path
         id="path927"
         style="font-style:normal;font-variant:normal;font-weight:normal;font-stretch:normal;font-size:30px;font-family:'Source Sans Pro';-inkscape-font-specification:'Source Sans Pro'"
         d="m 236.46029,300.23607 q -1.1138,-0.95935 -1.75838,-2.18765 -0.60227,-1.23145 -0.70314,-2.58534 -0.0585,-1.35705 0.45249,-2.7778 0.51104,-1.42075 1.68575,-2.78459 1.17472,-1.36383 2.50406,-2.07976 1.37165,-0.71907 2.69966,-0.88182 1.35074,-0.14318 2.57007,0.23396 1.23891,0.35442 2.19359,1.17672 1.04561,0.90061 1.55066,1.96913 0.52777,1.08809 0.48595,2.2399 -0.0191,1.17138 -0.5459,2.38059 -0.5268,1.2092 -1.54488,2.39119 -0.25452,0.2955 -0.53178,0.57142 -0.23494,0.27277 -0.45661,0.43819 l -7.45563,-6.42177 q -1.41348,1.87088 -1.33667,3.75836 0.11911,1.88434 1.71025,3.25484 0.79557,0.68525 1.65054,1.02572 0.89728,0.33732 1.84385,0.47952 l -0.39806,1.79523 q -1.11895,-0.1719 -2.29912,-0.59451 -1.18017,-0.4226 -2.3167,-1.40153 z m 2.27831,-9.67832 5.90996,5.09043 q 1.44881,-1.68206 1.46542,-3.17234 0.0589,-1.49343 -1.23673,-2.60941 -0.591,-0.50904 -1.33232,-0.75162 -0.71859,-0.223 -1.54204,-0.14038 -0.80387,0.0599 -1.64757,0.44182 -0.82097,0.40152 -1.61672,1.1415 z" />
      <path
         id="path929"
         style="font-style:normal;font-variant:normal;font-weight:normal;font-stretch:normal;font-size:30px;font-family:'Source Sans Pro';-inkscape-font-specification:'Source Sans Pro'"
         d="m 243.49381,305.81913 9.51518,-11.04707 1.54568,1.33134 -1.5638,2.13734 0.0682,0.0587 q 1.46888,-0.55615 2.79307,-0.48462 1.34692,0.0911 2.30161,0.9134 0.65919,0.56778 0.9862,1.24539 l -1.77334,1.32334 q -0.19446,-0.32586 -0.3826,-0.56711 -0.18815,-0.24124 -0.52911,-0.53492 -0.70465,-0.60694 -1.96695,-0.70434 -1.23958,-0.0778 -3.02171,0.842 l -6.10851,7.09195 z" />
      <path
         id="path931"
         style="font-style:normal;font-variant:normal;font-weight:normal;font-stretch:normal;font-size:30px;font-family:'Source Sans Pro';-inkscape-font-specification:'Source Sans Pro'"
         d="m 260.00848,320.51885 q -1.56841,-1.35092 -2.40047,-3.09705 -0.83207,-1.74613 -0.92845,-3.61089 l 2.27209,-0.33944 q 0.0712,1.52628 0.68919,2.96927 0.66034,1.43985 1.8196,2.43836 1.47749,1.2726 2.86357,1.31824 1.40566,0.0229 2.34543,-1.06816 0.48947,-0.56826 0.61773,-1.13089 0.17057,-0.56578 0.0645,-1.13222 -0.0637,-0.5696 -0.32253,-1.18848 -0.25883,-0.61887 -0.56627,-1.31922 l -1.33396,-2.77234 q -0.32701,-0.67761 -0.59845,-1.46572 -0.27143,-0.78812 -0.31174,-1.61472 -0.0403,-0.82661 0.21554,-1.67528 0.27543,-0.87139 0.98026,-1.6897 0.72441,-0.84103 1.69188,-1.27473 0.9902,-0.41412 2.05424,-0.4083 1.10634,0.003 2.20189,0.43157 1.11829,0.44849 2.14116,1.32952 1.34111,1.15514 2.02733,2.65687 0.7058,1.479 0.79655,2.98255 l -2.08012,0.34642 q -0.11414,-1.24655 -0.64192,-2.33464 -0.48546,-1.09125 -1.53107,-1.99186 -1.25018,-1.07682 -2.53207,-1.1515 -1.23957,-0.0778 -2.12061,0.94505 -0.46988,0.54553 -0.59814,1.10816 -0.086,0.55948 0.0232,1.16823 0.12874,0.58602 0.36484,1.18532 0.25567,0.57657 0.55366,1.14999 l 1.3308,2.73003 q 0.40151,0.82096 0.65652,1.67412 0.27459,0.83042 0.27259,1.66018 0.0176,0.80702 -0.30331,1.63927 -0.27859,0.82909 -0.98342,1.64739 -0.76356,0.88649 -1.79292,1.34607 -1.00663,0.47917 -2.17486,0.50238 -1.14865,4.9e-4 -2.37429,-0.46127 -1.20605,-0.48449 -2.38804,-1.50258 z" />
      <path
         id="path933"
         style="font-style:normal;font-variant:normal;font-weight:normal;font-stretch:normal;font-size:30px;font-family:'Source Sans Pro';-inkscape-font-specification:'Source Sans Pro'"
         d="m 270.75473,329.77491 q -0.8865,-0.76356 -1.26528,-1.56495 -0.35605,-0.78181 -0.33132,-1.59199 0.0475,-0.7906 0.4757,-1.60956 0.42824,-0.81897 1.13307,-1.63727 l 5.26663,-6.11453 -1.6366,-1.40966 1.21387,-1.4093 1.82542,1.37432 2.88999,-2.89558 1.56841,1.35092 -2.66268,3.09137 2.9777,2.56479 -1.31176,1.52295 -2.97771,-2.56479 -5.28621,6.13726 q -0.88103,1.02287 -1.00681,1.9044 -0.0835,0.87837 0.87122,1.70067 0.2955,0.25452 0.71477,0.45727 0.41928,0.20276 0.78994,0.32405 l -0.85018,1.72255 q -0.59167,-0.23246 -1.23509,-0.58869 -0.64028,-0.31392 -1.16308,-0.76423 z" />
      <path
         id="path935"
         style="font-style:normal;font-variant:normal;font-weight:normal;font-stretch:normal;font-size:30px;font-family:'Source Sans Pro';-inkscape-font-specification:'Source Sans Pro'"
         d="m 275.19234,333.12204 9.51518,-11.04707 1.54568,1.33134 -1.5638,2.13735 0.0682,0.0587 q 1.46888,-0.55614 2.79307,-0.48462 1.34693,0.0911 2.30161,0.9134 0.65919,0.56778 0.98621,1.2454 l -1.77335,1.32334 q -0.19445,-0.32586 -0.3826,-0.56711 -0.18815,-0.24125 -0.52911,-0.53493 -0.70465,-0.60693 -1.96695,-0.70434 -1.23958,-0.0778 -3.02171,0.84201 l -6.10851,7.09195 z" />
      <path
         id="path937"
         style="font-style:normal;font-variant:normal;font-weight:normal;font-stretch:normal;font-size:30px;font-family:'Source Sans Pro';-inkscape-font-specification:'Source Sans Pro'"
         d="m 282.54977,339.93435 q -0.56826,-0.48946 -0.64458,-1.2283 -0.034,-0.74198 0.49462,-1.35571 0.56777,-0.65919 1.28703,-0.71277 0.76157,-0.0567 1.32983,0.43273 0.54553,0.46988 0.57954,1.21187 0.0763,0.73883 -0.49146,1.39802 -0.52862,0.61372 -1.29019,0.67046 -0.71925,0.0536 -1.26479,-0.4163 z" />
    </g>
    <path
       sodipodi:nodetypes="cc"
       inkscape:connector-curvature="0"
       id="path4282"
       d="m 135.71428,847.71935 72.50001,-83.21429"
       style="fill:none;fill-rule:evenodd;stroke:none;stroke-width:1px;stroke-linecap:butt;stroke-linejoin:miter;stroke-opacity:1" />
    <g
       style="font-style:normal;font-weight:normal;font-size:30px;line-height:0%;font-family:sans-serif;letter-spacing:0px;word-spacing:0px;fill:#000000;fill-opacity:1;stroke:none;stroke-width:1px;stroke-linecap:butt;stroke-linejoin:miter;stroke-opacity:1"
       id="text4284"
       transform="translate(53.84011,-59.850263)"
       aria-label="Tölzer Str.">
      <path
         id="path963"
         style="font-style:normal;font-variant:normal;font-weight:normal;font-stretch:normal;font-family:'Source Sans Pro';-inkscape-font-specification:'Source Sans Pro'"
         d="m 140.04439,842.52846 -13.25466,-11.54862 -3.90209,4.47854 -1.58332,-1.37953 9.45961,-10.85706 1.58332,1.37953 -3.90209,4.47854 13.25466,11.54861 z" />
      <path
         id="path965"
         style="font-style:normal;font-variant:normal;font-weight:normal;font-stretch:normal;font-family:'Source Sans Pro';-inkscape-font-specification:'Source Sans Pro'"
         d="m 150.44055,831.1445 q -0.88684,1.01785 -2.07937,1.61019 -1.17282,0.56973 -2.50756,0.64027 -1.35735,0.0508 -2.79488,-0.44566 -1.44044,-0.53882 -2.79758,-1.72127 -1.37975,-1.20216 -2.0881,-2.53555 -0.71126,-1.37572 -0.84675,-2.72726 -0.13549,-1.35153 0.26829,-2.59131 0.42349,-1.2624 1.31033,-2.28025 0.88684,-1.01785 2.05966,-1.58758 1.19253,-0.59235 2.54988,-0.64318 1.35736,-0.0508 2.7978,0.48798 1.43753,0.4965 2.81728,1.69866 1.35714,1.18245 2.0684,2.55817 0.70835,1.33339 0.84384,2.68493 0.11287,1.33182 -0.31062,2.59422 -0.40378,1.23979 -1.29062,2.25764 z m -1.53808,-1.34012 q 0.61093,-0.70118 0.82928,-1.54547 0.19573,-0.864 0.008,-1.74412 -0.19103,-0.92244 -0.763,-1.81869 -0.57196,-0.89624 -1.52196,-1.72396 -0.94999,-0.82771 -1.91611,-1.27158 -0.98873,-0.46358 -1.92865,-0.52651 -0.9202,-0.0855 -1.72665,0.24635 -0.82906,0.31218 -1.43999,1.01337 -0.61093,0.70118 -0.80666,1.56518 -0.21835,0.84429 -0.0273,1.76673 0.21074,0.89983 0.80533,1.81578 0.57196,0.89625 1.52195,1.72397 0.95,0.82771 1.91611,1.27158 0.96612,0.44387 1.88633,0.52942 0.91729,0.0432 1.74635,-0.26897 0.80645,-0.33189 1.41738,-1.03308 z m -13.90254,-8.29328 q -0.43357,0.49761 -1.02614,0.53837 -0.61519,0.021 -1.09018,-0.39281 -0.475,-0.41385 -0.51576,-1.00642 -0.0634,-0.61228 0.37019,-1.1099 0.41386,-0.47499 1.02905,-0.49604 0.59257,-0.0408 1.06756,0.3731 0.475,0.41385 0.53838,1.02613 0.0408,0.59257 -0.3731,1.06757 z m 3.78384,-4.34283 q -0.41386,0.475 -1.00643,0.51576 -0.61518,0.021 -1.09018,-0.39281 -0.475,-0.41386 -0.51576,-1.00643 -0.0634,-0.61227 0.35048,-1.08727 0.43357,-0.49761 1.04876,-0.51866 0.59257,-0.0408 1.06756,0.37309 0.475,0.41386 0.53838,1.02614 0.0408,0.59257 -0.39281,1.09018 z" />
      <path
         id="path967"
         style="font-style:normal;font-variant:normal;font-weight:normal;font-stretch:normal;font-family:'Source Sans Pro';-inkscape-font-specification:'Source Sans Pro'"
         d="m 159.13096,821.17031 q -0.92625,1.06309 -1.95373,0.96365 -1.02748,-0.0994 -2.2489,-1.16364 l -13.88799,-12.10042 1.61602,-1.85475 14.0237,12.21867 q 0.45238,0.39415 0.77128,0.39348 0.3189,-6.7e-4 0.49627,-0.20424 0.0788,-0.0905 0.13796,-0.15833 0.0788,-0.0905 0.17154,-0.28823 l 1.61915,0.97306 q -0.0672,0.25978 -0.23873,0.54801 -0.17154,0.28822 -0.50657,0.67274 z" />
      <path
         id="path969"
         style="font-style:normal;font-variant:normal;font-weight:normal;font-stretch:normal;font-family:'Source Sans Pro';-inkscape-font-specification:'Source Sans Pro'"
         d="m 161.18225,818.26793 -0.99523,-0.86713 -3.43695,-13.18075 -4.49331,5.1571 -1.51547,-1.32041 6.5429,-7.50946 0.99523,0.86713 3.43695,13.18075 5.20279,-5.97138 1.51546,1.32041 z" />
      <path
         id="path971"
         style="font-style:normal;font-variant:normal;font-weight:normal;font-stretch:normal;font-family:'Source Sans Pro';-inkscape-font-specification:'Source Sans Pro'"
         d="m 174.53979,803.48515 q -0.96567,1.10833 -2.19762,1.74591 -1.23485,0.59526 -2.5893,0.68842 -1.35735,0.0508 -2.77518,-0.46828 -1.41782,-0.51911 -2.77495,-1.70156 -1.35713,-1.18246 -2.06548,-2.51585 -0.71127,-1.37572 -0.86646,-2.70463 -0.13549,-1.35154 0.24858,-2.5687 0.36145,-1.23687 1.18917,-2.18687 0.90655,-1.04046 1.97792,-1.53942 1.09108,-0.52158 2.24263,-0.47321 1.17125,0.0258 2.37744,0.55943 1.20619,0.53367 2.38237,1.55846 0.29405,0.2562 0.56839,0.53502 0.27142,0.23649 0.43558,0.45909 l -6.46407,7.41899 q 1.86281,1.42409 3.7507,1.35803 1.88498,-0.10839 3.26451,-1.69171 0.68976,-0.79166 1.03509,-1.64469 0.34242,-0.89535 0.49,-1.84108 l 1.79294,0.40826 q -0.17827,1.11795 -0.60758,2.2957 -0.42931,1.17775 -1.41468,2.30869 z m -9.6652,-2.33332 5.12395,-5.88091 q -1.67379,-1.45836 -3.16395,-1.48344 -1.49307,-0.0674 -2.6164,1.22187 -0.51239,0.58809 -0.75919,1.32802 -0.22708,0.7173 -0.14915,1.54121 0.0553,0.80421 0.43245,1.65006 0.39684,0.82324 1.13229,1.62319 z" />
      <path
         id="path973"
         style="font-style:normal;font-variant:normal;font-weight:normal;font-stretch:normal;font-family:'Source Sans Pro';-inkscape-font-specification:'Source Sans Pro'"
         d="m 180.16276,796.48351 -10.99278,-9.57786 1.34012,-1.53808 2.12841,1.57593 0.0591,-0.0679 q -0.54778,-1.47202 -0.46872,-2.79578 0.0988,-1.34638 0.92647,-2.29638 0.57152,-0.65594 1.25099,-0.9791 l 1.31323,1.78084 q -0.32696,0.1926 -0.56928,0.37937 -0.24231,0.18678 -0.53792,0.52606 -0.61094,0.70118 -0.71552,1.96291 -0.0849,1.23911 0.82481,3.02645 l 7.05708,6.14875 z" />
      <path
         id="path975"
         style="font-style:normal;font-variant:normal;font-weight:normal;font-stretch:normal;font-family:'Source Sans Pro';-inkscape-font-specification:'Source Sans Pro'"
         d="m 194.95617,780.05272 q -1.35982,1.56071 -3.11065,2.38282 -1.75084,0.82212 -3.61611,0.90789 l -0.32652,-2.27398 q 1.52666,-0.0625 2.97315,-0.67229 1.44358,-0.65214 2.44866,-1.8057 1.28099,-1.47023 1.33451,-2.85603 0.0309,-1.4055 -1.0548,-2.35146 -0.56547,-0.49269 -1.12736,-0.62415 -0.5648,-0.17379 -1.13184,-0.071 -0.56995,0.0605 -1.19029,0.31577 -0.62034,0.2553 -1.32242,0.55875 l -2.77988,1.31816 q -0.67946,0.32316 -1.46911,0.59011 -0.78964,0.26695 -1.61646,0.30256 -0.82682,0.0356 -1.67402,-0.22507 -0.86982,-0.28039 -1.6841,-0.98986 -0.8369,-0.72918 -1.26509,-1.6991 -0.40848,-0.99254 -0.39661,-2.05653 0.009,-1.10631 0.44409,-2.1994 0.45484,-1.11572 1.34168,-2.13357 1.16274,-1.33451 2.66835,-2.01218 1.483,-0.69738 2.98704,-0.77957 l 0.33458,2.08206 q -1.24717,0.10705 -2.33826,0.62862 -1.09399,0.47925 -2.00053,1.51972 -1.08392,1.24404 -1.16588,2.52548 -0.0849,1.23911 0.93297,2.12595 0.54285,0.47298 1.10474,0.60444 0.55898,0.0891 1.16834,-0.0166 0.58675,-0.12541 1.18738,-0.35809 0.57802,-0.25239 1.15312,-0.54711 l 2.73755,-1.31525 q 0.82324,-0.39684 1.67783,-0.64699 0.83197,-0.26986 1.6617,-0.26314 0.80712,-0.013 1.63752,0.31263 0.82749,0.2833 1.64177,0.99277 0.88214,0.76859 1.33586,1.80055 0.47343,1.00934 0.49,2.17768 -0.006,1.14864 -0.47477,2.37162 -0.49135,1.20328 -1.51614,2.37946 z" />
      <path
         id="path977"
         style="font-style:normal;font-variant:normal;font-weight:normal;font-stretch:normal;font-family:'Source Sans Pro';-inkscape-font-specification:'Source Sans Pro'"
         d="m 204.27321,769.35929 q -0.76859,0.88213 -1.57212,1.25635 -0.78383,0.3516 -1.59385,0.32227 -0.79032,-0.052 -1.60684,-0.48485 -0.81651,-0.4329 -1.63079,-1.14237 l -6.08448,-5.30132 -1.41894,1.62855 -1.40237,-1.22186 1.38468,-1.81757 -2.87909,-2.90642 1.35982,-1.5607 3.07616,2.68023 2.58169,-2.96308 1.51546,1.32041 -2.58168,2.96307 6.10709,5.32103 q 1.01785,0.88684 1.89864,1.01763 0.87788,0.0885 1.7056,-0.86153 0.2562,-0.29405 0.46133,-0.71216 0.20514,-0.41812 0.32854,-0.78808 l 1.71769,0.85996 q -0.23582,0.59033 -0.59571,1.23173 -0.31756,0.63847 -0.77083,1.15871 z" />
      <path
         id="path979"
         style="font-style:normal;font-variant:normal;font-weight:normal;font-stretch:normal;font-family:'Source Sans Pro';-inkscape-font-specification:'Source Sans Pro'"
         d="m 207.64551,764.94078 -10.99277,-9.57785 1.34011,-1.53809 2.12842,1.57593 0.0591,-0.0679 q -0.54778,-1.47202 -0.46873,-2.79579 0.0988,-1.34638 0.92648,-2.29637 0.57152,-0.65595 1.25098,-0.97911 l 1.31324,1.78085 q -0.32697,0.19259 -0.56928,0.37937 -0.24231,0.18677 -0.53792,0.52605 -0.61094,0.70119 -0.71552,1.96292 -0.0849,1.23911 0.8248,3.02645 l 7.05709,6.14875 z" />
      <path
         id="path981"
         style="font-style:normal;font-variant:normal;font-weight:normal;font-stretch:normal;font-family:'Source Sans Pro';-inkscape-font-specification:'Source Sans Pro'"
         d="m 214.49956,757.62221 q -0.49269,0.56547 -1.23194,0.63758 -0.74217,0.0298 -1.35288,-0.50232 -0.65595,-0.57152 -0.70544,-1.29107 -0.0524,-0.76187 0.44028,-1.32734 0.47299,-0.54286 1.21515,-0.57264 0.73926,-0.0721 1.39521,0.49941 0.61071,0.5321 0.66311,1.29397 0.0495,0.71955 -0.42349,1.26241 z" />
    </g>
    <path
       sodipodi:nodetypes="caacc"
       inkscape:connector-curvature="0"
       id="path4295"
       d="m 398.92857,628.07649 c 0,0 31.35264,5.62241 46.07143,11.42857 8.87394,3.50053 17.08141,8.60912 25,13.92857 10.7569,7.22614 30.35714,24.28572 30.35714,24.28572 l 35,29.64285"
       style="fill:none;fill-rule:evenodd;stroke:none;stroke-width:1px;stroke-linecap:butt;stroke-linejoin:miter;stroke-opacity:1" />
    <g
       style="font-style:normal;font-variant:normal;font-weight:normal;font-stretch:normal;font-size:30px;line-height:0%;font-family:'Source Sans Pro';-inkscape-font-specification:'Source Sans Pro';letter-spacing:0px;word-spacing:0px;fill:#000000;fill-opacity:1;stroke:none;stroke-width:1px;stroke-linecap:butt;stroke-linejoin:miter;stroke-opacity:1"
       id="text4297"
       transform="translate(-1.0101525,2.0203051)"
       aria-label="Miesbacher Str.">
      <path
         id="path984"
         d="m 394.66543,627.36281 3.81676,-19.30633 2.94304,0.58182 1.67185,11.03374 q 0.15534,1.07045 0.27544,2.16451 0.15534,1.07045 0.31069,2.14091 l 0.11772,0.0233 q 0.55098,-0.93082 1.04311,-1.87327 0.52737,-0.96606 1.07836,-1.89687 l 5.68575,-9.57918 2.97247,0.58764 -3.81677,19.30634 -2.29557,-0.45382 2.10039,-10.62437 q 0.256,-1.29494 0.68209,-2.83148 0.42609,-1.53654 0.77038,-2.81402 l -0.11772,-0.0233 -2.3973,4.08258 -5.62757,9.28487 -1.61867,-0.32 -1.67117,-10.7278 -0.66346,-4.68768 -0.11772,-0.0233 q -0.16771,1.31239 -0.38779,2.88966 -0.19065,1.58308 -0.44665,2.87802 l -2.10038,10.62437 z" />
      <path
         id="path986"
         d="m 415.80471,631.67374 3.16944,-14.23134 2.40117,0.53476 -3.16944,14.23134 z m 5.05145,-16.8857 q -0.70278,-0.15651 -1.10276,-0.70662 -0.3707,-0.54358 -0.22071,-1.21708 0.15652,-0.70278 0.71634,-1.0084 0.59563,-0.32837 1.29841,-0.17185 0.70278,0.15651 1.07348,0.70009 0.4065,0.52083 0.24999,1.22361 -0.15,0.6735 -0.74562,1.00187 -0.56635,0.3349 -1.26913,0.17838 z" />
      <path
         id="path988"
         d="m 428.65064,635.10067 q -1.42236,-0.37122 -2.54176,-1.19045 -1.0828,-0.84069 -1.76926,-2.012 -0.64985,-1.19276 -0.81629,-2.69343 -0.16643,-1.50067 0.28812,-3.24233 0.45455,-1.74166 1.33312,-2.9696 0.91516,-1.24938 2.036,-1.98002 1.14986,-0.72306 2.41073,-0.92108 1.26844,-0.22704 2.48761,0.0911 1.33527,0.34849 2.25905,1.08566 0.95281,0.74475 1.4222,1.7974 0.49842,1.06023 0.55759,2.37788 0.0592,1.31765 -0.33477,2.82709 -0.0985,0.37736 -0.226,0.74714 -0.0909,0.34833 -0.21715,0.59443 l -9.52108,-2.48488 q -0.44577,2.30204 0.45393,3.96308 0.9363,1.63958 2.96824,2.16989 1.01597,0.26515 1.93353,0.19458 0.95416,-0.092 1.8667,-0.38096 l 0.43271,1.7872 q -1.0804,0.33813 -2.32612,0.47808 -1.24572,0.13996 -2.6971,-0.23883 z m -2.21394,-9.69325 7.5472,1.96972 q 0.56061,-2.14805 -0.0804,-3.49352 -0.6044,-1.36694 -2.25898,-1.79876 -0.75472,-0.19697 -1.52714,-0.0885 -0.7434,0.11603 -1.44644,0.55264 -0.69547,0.40758 -1.28495,1.12187 -0.56046,0.72187 -0.9493,1.73656 z" />
      <path
         id="path990"
         d="m 440.81056,638.88238 q -1.46137,-0.54588 -2.58278,-1.57323 -1.1214,-1.02735 -1.80059,-2.20977 l 1.72961,-1.11528 q 0.62637,1.06661 1.38582,1.86268 0.78755,0.80658 2.0241,1.26847 1.34896,0.50389 2.25439,0.13755 0.90543,-0.36633 1.24135,-1.26564 0.19946,-0.53396 0.0654,-1.03238 -0.13407,-0.49843 -0.47874,-0.94742 -0.30608,-0.4666 -0.78417,-0.90138 -0.47809,-0.43478 -0.95617,-0.86956 -0.63621,-0.52587 -1.25143,-1.10794 -0.60471,-0.61018 -1.02692,-1.28029 -0.38361,-0.68771 -0.51801,-1.44245 -0.13439,-0.75474 0.19103,-1.62595 0.30443,-0.815 0.87601,-1.40211 0.61018,-0.60471 1.38931,-0.89013 0.81772,-0.30301 1.79391,-0.25862 0.98667,0.0163 2.08271,0.4257 1.29275,0.48288 2.19272,1.33145 0.92807,0.85906 1.47352,1.79937 l -1.64191,1.05197 q -0.50313,-0.79641 -1.13595,-1.41708 -0.63282,-0.62068 -1.53213,-0.9566 -1.29275,-0.48289 -2.13148,-0.12367 -0.81062,0.36972 -1.10455,1.15662 -0.17846,0.47776 -0.062,0.93758 0.12696,0.43172 0.44354,0.87022 0.32707,0.41039 0.77705,0.83467 0.48859,0.40668 0.99478,0.85196 0.62571,0.55397 1.24092,1.13604 0.64332,0.59257 1.05503,1.29078 0.42221,0.67011 0.53561,1.48106 0.14151,0.82144 -0.21541,1.77696 -0.31493,0.8431 -0.92511,1.44782 -0.58207,0.61521 -1.4384,0.93583 -0.82823,0.33112 -1.89922,0.28334 -1.05338,-0.009 -2.26183,-0.46057 z" />
      <path
         id="path992"
         d="m 454.68835,645.05933 q -0.91109,-0.4586 -1.68676,-1.38641 -0.73538,-0.94113 -1.20172,-2.14986 l -0.0804,-0.0405 -0.86199,1.24542 -1.76858,-0.89023 9.60365,-19.07929 2.19734,1.10604 -2.61673,5.19857 -1.24056,2.33114 q 1.27545,-0.332 2.5768,-0.31509 1.31484,-0.01 2.41351,0.54313 1.25945,0.63395 1.98134,1.60186 0.73538,0.94113 0.93339,2.14914 0.23829,1.1947 -0.0606,2.58921 -0.25861,1.38121 -1.01395,2.88182 -0.83628,1.6614 -1.95275,2.74514 -1.11647,1.08374 -2.35218,1.60367 -1.2357,0.51993 -2.49677,0.48972 -1.24758,-0.057 -2.37304,-0.62352 z m 0.55554,-2.03781 q 0.8039,0.40465 1.64916,0.3935 0.88556,-0.0245 1.69162,-0.4248 0.84634,-0.41364 1.59989,-1.24344 0.78034,-0.81631 1.38731,-2.02216 0.53953,-1.07187 0.79707,-2.05058 0.25754,-0.97872 0.13902,-1.81085 -0.0782,-0.84545 -0.5728,-1.53102 -0.46778,-0.67207 -1.37887,-1.13067 -1.58101,-0.79581 -4.3738,0.0151 l -3.43952,6.83317 q 0.47983,1.18193 1.14867,1.92163 0.70912,0.72639 1.35225,1.05011 z" />
      <path
         id="path994"
         d="m 466.07709,651.42888 q -1.55854,-0.95908 -2.04007,-2.52351 -0.45598,-1.5487 0.58171,-3.235 1.25782,-2.04399 3.73221,-2.00077 2.49012,0.0177 6.74319,2.03605 0.36162,-0.58765 0.57977,-1.22836 0.2437,-0.62499 0.22994,-1.23228 -0.0138,-0.6073 -0.36754,-1.17725 -0.31249,-0.57978 -1.07899,-1.05146 -1.0731,-0.66036 -2.27001,-0.8333 -1.1969,-0.17294 -2.25231,-0.1179 l 0.0786,-1.95947 q 1.2146,-0.0275 2.78099,0.23189 1.58213,0.23386 3.08957,1.1615 2.27394,1.39932 2.43119,3.43347 0.17297,2.0086 -1.25779,4.33364 l -4.68536,7.61387 -1.7374,-1.06914 0.73307,-1.59195 -0.0767,-0.0472 q -1.3502,0.19065 -2.70237,0.0983 -1.33645,-0.11791 -2.51175,-0.84115 z m 1.65089,-1.30895 q 0.89425,0.5503 1.93786,0.6289 1.05933,0.0531 2.45671,-0.21425 l 2.12256,-3.44923 q -1.68433,-0.75469 -2.93037,-1.13399 -1.2205,-0.36358 -2.12064,-0.38912 -0.87458,-0.01 -1.49564,0.3125 -0.57978,0.3125 -0.9414,0.90015 -0.66035,1.0731 -0.30461,1.92606 0.35574,0.85297 1.27553,1.41898 z" />
      <path
         id="path996"
         d="m 480.67045,661.06974 q -1.17566,-0.83152 -1.90987,-1.97548 -0.73421,-1.14396 -0.93914,-2.46476 -0.16312,-1.32796 0.2102,-2.79095 0.41514,-1.47015 1.45454,-2.93973 1.05672,-1.49407 2.33628,-2.31609 1.29689,-0.84652 2.65233,-1.10044 1.35544,-0.25392 2.67864,0.0573 1.34769,0.32852 2.49886,1.14272 1.17566,0.83151 1.71392,1.83689 0.53827,1.00537 0.77665,2.01911 l -1.96417,0.59504 q -0.1852,-0.82915 -0.56515,-1.53883 -0.35546,-0.69235 -1.06576,-1.19473 -0.80826,-0.57166 -1.73659,-0.71382 -0.91101,-0.16664 -1.83395,0.0992 -0.92294,0.26585 -1.82317,0.91523 -0.85841,0.6422 -1.58599,1.6709 -0.72758,1.0287 -1.04715,2.05202 -0.31957,1.02332 -0.28729,1.96478 0.0741,0.9343 0.51738,1.76225 0.4606,0.80346 1.26886,1.37513 0.83276,0.58899 1.76109,0.73114 0.97014,0.13499 1.87995,0.0436 l -0.071,1.97075 q -1.31064,0.13863 -2.58485,-0.13792 -1.25689,-0.30105 -2.33458,-1.06327 z" />
      <path
         id="path998"
         d="m 487.23648,665.45522 13.71139,-16.37826 1.88626,1.57912 -3.73597,4.46262 -1.99476,2.24254 q 1.44061,-0.0851 2.75765,0.11763 1.3363,0.17971 2.50947,1.16185 1.77124,1.48283 1.65199,3.261 -0.0962,1.79742 -1.90646,3.95972 l -5.93134,7.08498 -1.88626,-1.57912 5.7195,-6.83195 q 1.32878,-1.58722 1.40043,-2.70098 0.0909,-1.13676 -1.01323,-2.06113 -0.87413,-0.73178 -1.90711,-0.85319 -1.03299,-0.12141 -2.59663,0.0172 l -6.77867,8.09712 z" />
      <path
         id="path1000"
         d="m 503.81512,680.30564 q -1.10581,-0.96855 -1.74018,-2.20215 -0.59204,-1.23641 -0.68168,-2.59109 -0.0473,-1.35748 0.4755,-2.77395 0.5228,-1.41647 1.70878,-2.77052 1.18598,-1.35405 2.52121,-2.05892 1.37757,-0.70768 2.70688,-0.85942 1.35188,-0.13197 2.56804,0.25527 1.23593,0.36467 2.18376,1.19485 1.03811,0.90925 1.53428,1.98192 0.51873,1.09244 0.46736,2.24385 -0.0288,1.17119 -0.56561,2.37598 -0.5368,1.2048 -1.56465,2.37831 -0.25696,0.29338 -0.53649,0.56699 -0.2372,0.27081 -0.46023,0.43439 l -7.40214,-6.48336 q -1.42894,1.8591 -1.36779,3.74715 0.10349,1.88526 1.68321,3.2689 0.78986,0.69182 1.64199,1.03937 0.89445,0.34475 1.8398,0.49479 l -0.41292,1.79187 q -1.11749,-0.18117 -2.29412,-0.61354 -1.17663,-0.43238 -2.305,-1.42069 z m 2.35847,-9.6591 5.86755,5.13925 q 1.46271,-1.67 1.49167,-3.16009 0.0713,-1.49289 -1.21505,-2.61957 -0.58676,-0.51392 -1.32604,-0.76264 -0.71672,-0.22895 -1.54083,-0.15316 -0.80434,0.0532 -1.65117,0.42815 -0.82427,0.3947 -1.62613,1.12806 z" />
      <path
         id="path1002"
         d="m 510.87604,685.86047 9.20093,-11.31014 1.58249,1.28737 -1.50311,2.18045 0.0698,0.0568 q 1.45266,-0.59721 2.77834,-0.56293 1.34895,0.0532 2.32637,0.84835 0.67489,0.54902 1.02082,1.21718 l -1.73545,1.37266 q -0.20353,-0.32027 -0.39839,-0.55613 -0.19485,-0.23586 -0.54393,-0.51984 -0.72143,-0.58689 -1.98598,-0.64878 -1.24127,-0.043 -2.99685,0.9266 l -5.90677,7.26083 z" />
      <path
         id="path1004"
         d="m 527.93822,699.92579 q -1.63088,-1.27481 -2.54504,-2.9794 -0.91415,-1.70459 -1.0991,-3.56265 l 2.25338,-0.44711 q 0.14366,1.52117 0.82961,2.93315 0.72806,1.40681 1.93349,2.34906 1.53634,1.20091 2.92302,1.18059 1.40516,-0.044 2.29198,-1.17849 0.46189,-0.59089 0.56325,-1.15898 0.14347,-0.57325 0.0106,-1.13402 -0.0907,-0.56592 -0.37869,-1.17179 -0.28796,-0.60587 -0.62835,-1.2908 l -1.46428,-2.70577 q -0.35887,-0.66129 -0.66748,-1.43561 -0.3086,-0.77431 -0.38818,-1.59807 -0.0796,-0.82375 0.13564,-1.68362 0.23368,-0.88352 0.8988,-1.73441 0.68359,-0.87453 1.62935,-1.35374 0.96939,-0.46074 2.0325,-0.50553 1.10521,-0.05 2.21992,0.32638 1.13835,0.3948 2.20196,1.2262 1.39452,1.09005 2.15138,2.55745 0.77533,1.44377 0.93747,2.9413 l -2.06129,0.44494 q -0.17329,-1.2397 -0.75221,-2.30147 -0.53681,-1.06693 -1.62406,-1.9168 -1.29997,-1.01615 -2.58396,-1.02979 -1.24187,-0.0188 -2.07327,1.04482 -0.44341,0.56727 -0.54477,1.13536 -0.0593,0.56293 0.0787,1.1658 0.15646,0.57924 0.42079,1.16663 0.2828,0.56376 0.60772,1.12236 l 1.45912,2.66366 q 0.4401,0.80094 0.73539,1.641 0.31376,0.81643 0.35122,1.64534 0.0559,0.80528 -0.22502,1.65184 -0.23884,0.8414 -0.90396,1.69229 -0.72054,0.9218 -1.72688,1.42981 -0.98271,0.52649 -2.14851,0.60524 -1.14733,0.0551 -2.39354,-0.34785 -1.22773,-0.4266 -2.45679,-1.38732 z" />
      <path
         id="path1006"
         d="m 539.17022,708.59203 q -0.92932,-0.71082 -1.35398,-1.48887 -0.40083,-0.75982 -0.42317,-1.57007 0.001,-0.79202 0.38147,-1.63446 0.37998,-0.84245 1.03612,-1.70028 l 4.90283,-6.40993 -1.71567,-1.31228 1.13002,-1.47738 1.90211,1.26604 2.71704,-3.05845 1.64419,1.2576 -2.47876,3.24071 3.12157,2.38762 -1.22115,1.59653 -3.12157,-2.38762 -4.92105,6.43375 q -0.82018,1.0723 -0.89457,1.95963 -0.0323,0.88174 0.96847,1.64723 0.30977,0.23694 0.74011,0.41502 0.43033,0.17808 0.80741,0.27765 l -0.74876,1.769 q -0.60416,-0.19772 -1.26718,-0.51601 -0.65742,-0.27623 -1.20548,-0.69543 z" />
      <path
         id="path1008"
         d="m 543.76985,711.63383 8.75738,-11.65696 1.63102,1.22532 -1.4178,2.23686 0.072,0.0541 q 1.42853,-0.65285 2.75454,-0.66978 1.35,0.001 2.35739,0.7579 0.69558,0.52255 1.06706,1.17685 l -1.68116,1.43865 q -0.21575,-0.31217 -0.41957,-0.54034 -0.20381,-0.22816 -0.5636,-0.49845 -0.74355,-0.5586 -2.00954,-0.57162 -1.242,0.005 -2.95883,1.04162 l -5.62203,7.48349 z" />
      <path
         id="path1010"
         d="m 551.60618,717.92236 q -0.6034,-0.44543 -0.73496,-1.17645 -0.0896,-0.73734 0.39146,-1.38902 0.5167,-0.69994 1.2299,-0.80736 0.75516,-0.11374 1.35856,0.33169 0.57927,0.42761 0.66887,1.16495 0.13156,0.73102 -0.38514,1.43097 -0.48107,0.65167 -1.23622,0.76541 -0.71321,0.10742 -1.29247,-0.32019 z" />
    </g>
    <path
       inkscape:connector-curvature="0"
       id="path4304"
       d="m 285.3947,490.09056 13.549,44.99302 13.549,-44.99302 -13.549,0 -13.549,0 z"
       style="fill:#00aa84;fill-opacity:1;fill-rule:evenodd;stroke:none;stroke-width:1px;stroke-linecap:butt;stroke-linejoin:miter;stroke-opacity:1" />
    <g
       transform="matrix(0.78937719,0,0,0.78937719,-71.599109,197.08523)"
       id="g4464">
      <g
         id="g4449"
         transform="translate(-30.052038,-11.869292)">
        <g
           transform="translate(16.162435,-4.2931482)"
           id="g4429">
          <g
             id="g4412">
            <g
               transform="matrix(1.4209991,0,0,1.4209991,113.29788,-298.70055)"
               id="g4389">
              <path
                 style="color:#000000;font-style:normal;font-variant:normal;font-weight:normal;font-stretch:normal;font-size:medium;line-height:normal;font-family:sans-serif;text-indent:0;text-align:start;text-decoration:none;text-decoration-line:none;text-decoration-style:solid;text-decoration-color:#000000;letter-spacing:normal;word-spacing:normal;text-transform:none;direction:ltr;block-progression:tb;writing-mode:lr-tb;baseline-shift:baseline;text-anchor:start;white-space:normal;clip-rule:nonzero;display:inline;overflow:visible;visibility:visible;opacity:1;isolation:auto;mix-blend-mode:normal;color-interpolation:sRGB;color-interpolation-filters:linearRGB;solid-color:#000000;solid-opacity:1;fill:#ffffff;fill-opacity:1;fill-rule:nonzero;stroke:none;stroke-width:6;stroke-linecap:butt;stroke-linejoin:miter;stroke-miterlimit:4;stroke-dasharray:none;stroke-dashoffset:0;stroke-opacity:1;color-rendering:auto;image-rendering:auto;shape-rendering:auto;text-rendering:auto;enable-background:accumulate"
                 d="m 231.89516,423.58713 c 0.78496,14.8593 -1.49016,29.96619 1.01172,44.67773 3.87727,11.76495 22.05993,14.26566 28.62305,3.5586 1.31361,-1.90147 1.99996,-5.0334 2.89062,-0.70508 1.60959,3.97373 4.57823,8.23272 9.56641,7.4043 4.98818,-0.82842 12.64762,2.58664 15.08398,-3.37305 l 0,-53.5625 -26.44141,0 c -0.55509,3.97899 1.60531,19.45941 -2.23633,9.51823 -2.58944,-4.91384 -3.83515,-12.00178 -10.99609,-9.51823 -5.49712,0.67019 -13.67689,-1.34226 -17.50195,1 z m 14.98633,12.15039 c 1.47688,3.50612 4.6713,8.21749 5.16211,10.91602 -2.42689,-1.08218 -6.86208,0.90529 -5.92578,-3.18555 0.31513,-1.72511 -1.85804,-7.23827 0.76367,-7.73047 z m 28.04297,24.8125 c -1.90886,-4.19572 -3.8544,-9.15706 -6.47071,-12.45703 2.15419,-0.17701 4.43428,0.0499 6.47071,-0.82617 z m -29.12305,-0.92578 c 1.91608,1.09715 6.33297,0.99204 3.74219,4.36719 -2.63032,2.67176 -4.14257,-2.64173 -3.74219,-4.36719 z"
                 id="path3639-8"
                 inkscape:connector-curvature="0"
                 sodipodi:nodetypes="cccczcccccccccccccccccc" />
              <rect
                 style="opacity:1;fill:#ffffff;fill-opacity:1;stroke:none;stroke-width:3.17700005;stroke-miterlimit:4;stroke-dasharray:none;stroke-dashoffset:0;stroke-opacity:1"
                 id="rect4385"
                 width="17.522322"
                 height="2.3214285"
                 x="234.15178"
                 y="421.08987" />
              <rect
                 style="opacity:1;fill:#ffffff;fill-opacity:1;stroke:none;stroke-width:3.17700005;stroke-miterlimit:4;stroke-dasharray:none;stroke-dashoffset:0;stroke-opacity:1"
                 id="rect4387"
                 width="7.1815534"
                 height="0.81285715"
                 x="272.85956"
                 y="477.81427" />
            </g>
            <ellipse
               ry="4.9244938"
               rx="5.4295697"
               cy="357.75604"
               cx="464.79645"
               id="path4410"
               style="opacity:1;fill:#ffffff;fill-opacity:1;stroke:none;stroke-width:3.17700005;stroke-miterlimit:4;stroke-dasharray:none;stroke-dashoffset:0;stroke-opacity:1" />
          </g>
          <g
             id="g4423">
            <path
               style="color:#000000;font-style:normal;font-variant:normal;font-weight:normal;font-stretch:normal;font-size:medium;line-height:normal;font-family:sans-serif;text-indent:0;text-align:start;text-decoration:none;text-decoration-line:none;text-decoration-style:solid;text-decoration-color:#000000;letter-spacing:normal;word-spacing:normal;text-transform:none;direction:ltr;block-progression:tb;writing-mode:lr-tb;baseline-shift:baseline;text-anchor:start;white-space:normal;clip-rule:nonzero;display:inline;overflow:visible;visibility:visible;opacity:1;isolation:auto;mix-blend-mode:normal;color-interpolation:sRGB;color-interpolation-filters:linearRGB;solid-color:#000000;solid-opacity:1;fill:#00aa88;fill-opacity:1;fill-rule:nonzero;stroke:none;stroke-width:6;stroke-linecap:butt;stroke-linejoin:miter;stroke-miterlimit:4;stroke-dasharray:none;stroke-dashoffset:0;stroke-opacity:1;color-rendering:auto;image-rendering:auto;shape-rendering:auto;text-rendering:auto;enable-background:accumulate"
               d="m 235.79523,425.48847 0,36.88095 0,0 c 0,4.96356 3.00377,9.4597 7.58948,11.35919 4.58566,1.8995 9.88649,0.84446 13.3962,-2.66525 3.5096,-3.50971 4.56463,-8.81245 2.66514,-13.3981 -1.89931,-4.5856 -6.39368,-7.58948 -11.35718,-7.58948 l 0,6.14681 c 2.49501,0 4.72384,1.49066 5.67869,3.79573 0.95479,2.30511 0.43162,4.93485 -1.33264,6.69918 -1.76426,1.76407 -4.39404,2.28729 -6.69917,1.33244 -2.30505,-0.95466 -3.7937,-3.18559 -3.7937,-5.68052 l 0,0 0,-30.73412 7.3213,0 21.51388,43.02776 14.19258,0 0,-49.17459 -18.44047,0 0,18.44047 6.14683,0 0,-12.29364 6.14682,0 0,36.88093 -4.24795,0 -21.51387,-43.02776 z"
               id="path3639"
               inkscape:connector-curvature="0"
               sodipodi:nodetypes="cccsccccscccccccccccccccccc"
               transform="matrix(1.4209991,0,0,1.4209991,113.29788,-298.70055)" />
            <rect
               y="334.90137"
               x="497.24759"
               height="8.3337584"
               width="9.5964489"
               id="rect4420"
               style="opacity:1;fill:#ffffff;fill-opacity:1;stroke:none;stroke-width:3.17700005;stroke-miterlimit:4;stroke-dasharray:none;stroke-dashoffset:0;stroke-opacity:1" />
          </g>
        </g>
        <path
           inkscape:connector-curvature="0"
           id="path4447"
           d="m 476.03439,325.55745 3.78807,8.08122 7.82868,-0.25254 2.02031,-4.04061 -3.283,-10.10153 -7.3236,-6.06091 -3.53554,3.78807 z"
           style="fill:#ffffff;fill-opacity:1;fill-rule:evenodd;stroke:none;stroke-width:1px;stroke-linecap:butt;stroke-linejoin:miter;stroke-opacity:1" />
      </g>
      <path
         style="fill:#ffffff;fill-opacity:1;fill-rule:evenodd;stroke:none;stroke-width:1px;stroke-linecap:butt;stroke-linejoin:miter;stroke-opacity:1"
         d="m 476.792,319.24399 14.64721,26.26397 1.51523,-24.24366 z"
         id="path4462"
         inkscape:connector-curvature="0" />
    </g>
    <path
       inkscape:connector-curvature="0"
       id="path5275"
       d="M 135.59048,847.64033 261.30476,703.35462"
       style="fill:none;fill-rule:evenodd;stroke:none;stroke-width:1px;stroke-linecap:butt;stroke-linejoin:miter;stroke-opacity:1" />
    <path
       sodipodi:nodetypes="caaaaac"
       inkscape:connector-curvature="0"
       id="path5281"
       d="m 392.01905,626.92605 c 0,0 29.88969,5.33315 44.28571,10 6.89963,2.2367 13.58032,5.19572 20,8.57143 9.47142,4.98043 18.51372,10.81431 27.14286,17.14285 9.80872,7.19363 18.42302,15.89312 27.85714,23.57143 10.78663,8.7791 21.75962,17.33163 32.85715,25.71429 13.87028,10.4771 42.14285,30.71428 42.14285,30.71428"
       style="fill:none;fill-rule:evenodd;stroke:none;stroke-width:1px;stroke-linecap:butt;stroke-linejoin:miter;stroke-opacity:1" />
    <g
       style="font-style:normal;font-weight:normal;line-height:0%;font-family:sans-serif;letter-spacing:0px;word-spacing:0px;fill:#000000;fill-opacity:1;stroke:none;stroke-width:1px;stroke-linecap:butt;stroke-linejoin:miter;stroke-opacity:1"
       id="text4180"
       aria-label="Markt-
platz">
      <path
         id="path940"
         style="font-style:normal;font-variant:normal;font-weight:normal;font-stretch:normal;font-size:30px;line-height:1.25;font-family:'Source Sans Pro';-inkscape-font-specification:'Source Sans Pro'"
         d="m 394.00478,468.7832 v -19.68 h 3 l 3.78,10.5 q 0.36,1.02 0.69,2.07 0.36,1.02 0.72,2.04 h 0.12 q 0.36,-1.02 0.66,-2.04 0.33,-1.05 0.69,-2.07 l 3.72,-10.5 h 3.03 v 19.68 h -2.34 v -10.83 q 0,-1.32 0.12,-2.91 0.12,-1.59 0.21,-2.91 h -0.12 l -1.56,4.47 -3.72,10.2 h -1.65 l -3.72,-10.2 -1.56,-4.47 h -0.12 q 0.09,1.32 0.18,2.91 0.12,1.59 0.12,2.91 v 10.83 z" />
      <path
         id="path942"
         style="font-style:normal;font-variant:normal;font-weight:normal;font-stretch:normal;font-size:30px;line-height:1.25;font-family:'Source Sans Pro';-inkscape-font-specification:'Source Sans Pro'"
         d="m 418.92165,469.1432 q -1.83,0 -3.06,-1.08 -1.2,-1.08 -1.2,-3.06 0,-2.4 2.13,-3.66 2.13,-1.29 6.81,-1.8 0,-0.69 -0.15,-1.35 -0.12,-0.66 -0.45,-1.17 -0.33,-0.51 -0.93,-0.81 -0.57,-0.33 -1.47,-0.33 -1.26,0 -2.37,0.48 -1.11,0.48 -1.98,1.08 l -0.96,-1.71 q 1.02,-0.66 2.49,-1.26 1.47,-0.63 3.24,-0.63 2.67,0 3.87,1.65 1.2,1.62 1.2,4.35 v 8.94 h -2.04 l -0.21,-1.74 h -0.09 q -1.05,0.87 -2.25,1.5 -1.2,0.6 -2.58,0.6 z m 0.72,-1.98 q 1.05,0 1.98,-0.48 0.93,-0.51 1.98,-1.47 v -4.05 q -1.83,0.24 -3.09,0.57 -1.23,0.33 -2.01,0.78 -0.75,0.45 -1.11,1.05 -0.33,0.57 -0.33,1.26 0,1.26 0.75,1.8 0.75,0.54 1.83,0.54 z" />
      <path
         id="path944"
         style="font-style:normal;font-variant:normal;font-weight:normal;font-stretch:normal;font-size:30px;line-height:1.25;font-family:'Source Sans Pro';-inkscape-font-specification:'Source Sans Pro'"
         d="m 430.67884,468.7832 v -14.58 h 2.04 l 0.21,2.64 h 0.09 q 0.75,-1.38 1.8,-2.19 1.08,-0.81 2.34,-0.81 0.87,0 1.56,0.3 l -0.48,2.16 q -0.36,-0.12 -0.66,-0.18 -0.3,-0.06 -0.75,-0.06 -0.93,0 -1.95,0.75 -0.99,0.75 -1.74,2.61 v 9.36 z" />
      <path
         id="path946"
         style="font-style:normal;font-variant:normal;font-weight:normal;font-stretch:normal;font-size:30px;line-height:1.25;font-family:'Source Sans Pro';-inkscape-font-specification:'Source Sans Pro'"
         d="m 441.10853,468.7832 v -21.36 h 2.43 v 14.46 h 0.09 l 6.21,-7.68 h 2.73 l -4.89,5.85 5.55,8.73 h -2.7 l -4.26,-7.02 -2.73,3.18 v 3.84 z" />
      <path
         id="path948"
         style="font-style:normal;font-variant:normal;font-weight:normal;font-stretch:normal;font-size:30px;line-height:1.25;font-family:'Source Sans Pro';-inkscape-font-specification:'Source Sans Pro'"
         d="m 459.87822,469.1432 q -1.17,0 -1.98,-0.36 -0.78,-0.36 -1.29,-0.99 -0.48,-0.63 -0.69,-1.53 -0.21,-0.9 -0.21,-1.98 v -8.07 h -2.16 v -1.86 l 2.28,-0.15 0.3,-4.08 h 2.07 v 4.08 h 3.93 v 2.01 h -3.93 v 8.1 q 0,1.35 0.48,2.1 0.51,0.72 1.77,0.72 0.39,0 0.84,-0.12 0.45,-0.12 0.81,-0.27 l 0.48,1.86 q -0.6,0.21 -1.32,0.36 -0.69,0.18 -1.38,0.18 z" />
      <path
         id="path950"
         style="font-style:normal;font-variant:normal;font-weight:normal;font-stretch:normal;font-size:30px;line-height:1.25;font-family:'Source Sans Pro';-inkscape-font-specification:'Source Sans Pro'"
         d="m 463.43322,462.2132 v -1.89 h 6.9 v 1.89 z" />
      <path
         id="path952"
         style="font-style:normal;font-variant:normal;font-weight:normal;font-stretch:normal;font-size:30px;line-height:1.25;font-family:'Source Sans Pro';-inkscape-font-specification:'Source Sans Pro'"
         d="m 393.76478,512.4332 v -20.73 h 2.04 l 0.21,1.68 h 0.09 q 0.99,-0.84 2.16,-1.44 1.2,-0.6 2.49,-0.6 1.41,0 2.49,0.54 1.08,0.51 1.8,1.5 0.72,0.96 1.08,2.34 0.39,1.35 0.39,3.06 0,1.86 -0.51,3.33 -0.51,1.44 -1.38,2.46 -0.87,1.02 -2.01,1.56 -1.14,0.51 -2.4,0.51 -1.02,0 -2.04,-0.45 -0.99,-0.45 -2.01,-1.23 l 0.06,2.55 v 4.92 z m 6.03,-7.86 q 0.9,0 1.65,-0.39 0.78,-0.42 1.32,-1.14 0.57,-0.75 0.87,-1.83 0.33,-1.08 0.33,-2.43 0,-1.2 -0.21,-2.19 -0.21,-0.99 -0.69,-1.68 -0.45,-0.72 -1.2,-1.11 -0.72,-0.39 -1.74,-0.39 -0.93,0 -1.89,0.51 -0.93,0.51 -2.01,1.47 v 7.65 q 0.99,0.84 1.92,1.2 0.93,0.33 1.65,0.33 z" />
      <path
         id="path954"
         style="font-style:normal;font-variant:normal;font-weight:normal;font-stretch:normal;font-size:30px;line-height:1.25;font-family:'Source Sans Pro';-inkscape-font-specification:'Source Sans Pro'"
         d="m 413.0154,506.6432 q -1.41,0 -2.01,-0.84 -0.6,-0.84 -0.6,-2.46 v -18.42 h 2.46 v 18.6 q 0,0.6 0.21,0.84 0.21,0.24 0.48,0.24 0.12,0 0.21,0 0.12,0 0.33,-0.06 l 0.33,1.86 q -0.24,0.12 -0.57,0.18 -0.33,0.06 -0.84,0.06 z" />
      <path
         id="path956"
         style="font-style:normal;font-variant:normal;font-weight:normal;font-stretch:normal;font-size:30px;line-height:1.25;font-family:'Source Sans Pro';-inkscape-font-specification:'Source Sans Pro'"
         d="m 421.44119,506.6432 q -1.83,0 -3.06,-1.08 -1.2,-1.08 -1.2,-3.06 0,-2.4 2.13,-3.66 2.13,-1.29 6.81,-1.8 0,-0.69 -0.15,-1.35 -0.12,-0.66 -0.45,-1.17 -0.33,-0.51 -0.93,-0.81 -0.57,-0.33 -1.47,-0.33 -1.26,0 -2.37,0.48 -1.11,0.48 -1.98,1.08 l -0.96,-1.71 q 1.02,-0.66 2.49,-1.26 1.47,-0.63 3.24,-0.63 2.67,0 3.87,1.65 1.2,1.62 1.2,4.35 v 8.94 h -2.04 l -0.21,-1.74 h -0.09 q -1.05,0.87 -2.25,1.5 -1.2,0.6 -2.58,0.6 z m 0.72,-1.98 q 1.05,0 1.98,-0.48 0.93,-0.51 1.98,-1.47 v -4.05 q -1.83,0.24 -3.09,0.57 -1.23,0.33 -2.01,0.78 -0.75,0.45 -1.11,1.05 -0.33,0.57 -0.33,1.26 0,1.26 0.75,1.8 0.75,0.54 1.83,0.54 z" />
      <path
         id="path958"
         style="font-style:normal;font-variant:normal;font-weight:normal;font-stretch:normal;font-size:30px;line-height:1.25;font-family:'Source Sans Pro';-inkscape-font-specification:'Source Sans Pro'"
         d="m 437.37822,506.6432 q -1.17,0 -1.98,-0.36 -0.78,-0.36 -1.29,-0.99 -0.48,-0.63 -0.69,-1.53 -0.21,-0.9 -0.21,-1.98 v -8.07 h -2.16 v -1.86 l 2.28,-0.15 0.3,-4.08 h 2.07 v 4.08 h 3.93 v 2.01 h -3.93 v 8.1 q 0,1.35 0.48,2.1 0.51,0.72 1.77,0.72 0.39,0 0.84,-0.12 0.45,-0.12 0.81,-0.27 l 0.48,1.86 q -0.6,0.21 -1.32,0.36 -0.69,0.18 -1.38,0.18 z" />
      <path
         id="path960"
         style="font-style:normal;font-variant:normal;font-weight:normal;font-stretch:normal;font-size:30px;line-height:1.25;font-family:'Source Sans Pro';-inkscape-font-specification:'Source Sans Pro'"
         d="m 441.39494,506.2832 v -1.32 l 7.68,-11.25 h -6.84 v -2.01 h 9.96 v 1.32 l -7.68,11.25 h 7.92 v 2.01 z" />
    </g>
    <text
       id="text4183"
       y="531.51141"
       x="1.5280194"
       style="font-style:normal;font-weight:normal;line-height:0%;font-family:sans-serif;letter-spacing:0px;word-spacing:0px;fill:#00aa84;fill-opacity:1;stroke:#ffffff;stroke-width:4;stroke-linecap:butt;stroke-linejoin:miter;stroke-miterlimit:4;stroke-dasharray:none;stroke-opacity:1"
       xml:space="preserve"><tspan
         style="font-style:normal;font-variant:normal;font-weight:900;font-stretch:normal;font-size:67.4249px;line-height:1.25;font-family:'Source Sans Pro';-inkscape-font-specification:'Source Sans Pro Heavy';stroke-width:4;stroke-miterlimit:4;stroke-dasharray:none"
         y="531.51141"
         x="1.5280194"
         id="tspan4185"
         sodipodi:role="line">P</tspan></text>
    <path
       sodipodi:nodetypes="caaac"
       inkscape:connector-curvature="0"
       id="path4187"
       d="m 19.158301,452.86864 c 0,0 35.829214,23.84996 52.527932,37.37565 13.147904,10.64959 25.062796,22.74022 37.375637,34.34518 10.22415,9.63635 20.14651,19.58846 30.30458,29.29443 6.02757,5.7593 18.18275,17.17259 18.18275,17.17259"
       style="fill:none;fill-rule:evenodd;stroke:none;stroke-width:1px;stroke-linecap:butt;stroke-linejoin:miter;stroke-opacity:1" />
    <g
       style="font-style:normal;font-weight:normal;font-size:30px;line-height:0%;font-family:sans-serif;letter-spacing:0px;word-spacing:0px;fill:#000000;fill-opacity:1;stroke:none;stroke-width:1px;stroke-linecap:butt;stroke-linejoin:miter;stroke-opacity:1"
       id="text4189"
       transform="translate(21.213203,18.182746)"
       aria-label="Hafnerstr.">
      <path
         id="path894"
         style="font-style:normal;font-variant:normal;font-weight:normal;font-stretch:normal;font-family:'Source Sans Pro';-inkscape-font-specification:'Source Sans Pro'"
         d="m 21.367862,454.32814 11.048683,-16.28585 2.060558,1.39793 -4.631689,6.82715 7.571928,5.13696 4.631689,-6.82715 2.085384,1.41477 -11.048684,16.28585 -2.085383,-1.41477 5.204334,-7.67123 -7.571929,-5.13696 -5.204334,7.67123 z" />
      <path
         id="path896"
         style="font-style:normal;font-variant:normal;font-weight:normal;font-stretch:normal;font-family:'Source Sans Pro';-inkscape-font-specification:'Source Sans Pro'"
         d="m 39.933767,467.45716 q -1.50165,-1.04592 -1.893693,-2.63513 -0.367425,-1.57207 0.764225,-3.19681 1.371696,-1.96938 3.83966,-1.78592 2.485109,0.15884 6.616881,2.41516 0.394363,-0.5662 0.648494,-1.19351 0.278747,-0.61016 0.299443,-1.21726 0.0207,-0.6071 -0.300186,-1.1962 -0.279119,-0.59657 -1.017635,-1.11095 -1.033924,-0.72015 -2.2191,-0.96068 -1.185177,-0.24053 -2.242,-0.24543 l 0.189583,-1.95186 q 1.214202,0.0414 2.76337,0.38921 1.566314,0.3232 3.01873,1.33483 2.190932,1.52601 2.23258,3.56581 0.05879,2.01518 -1.501512,4.25534 l -5.109569,7.33594 -1.673971,-1.16595 0.822159,-1.54782 -0.07385,-0.0514 q -1.358842,0.11379 -2.703602,-0.0551 -1.327613,-0.19351 -2.460005,-0.98223 z m 1.722463,-1.21323 q 0.861603,0.60012 1.899076,0.73778 1.05462,0.11304 2.464901,-0.0746 l 2.314738,-3.32332 q -1.63882,-0.84898 -2.861352,-1.29834 -1.197914,-0.4322 -2.095155,-0.50874 -0.872623,-0.0594 -1.510954,0.22719 -0.596568,0.27912 -0.99093,0.84531 -0.720141,1.03393 -0.413342,1.90569 0.306798,0.87177 1.193018,1.48903 z" />
      <path
         id="path898"
         style="font-style:normal;font-variant:normal;font-weight:normal;font-stretch:normal;font-family:'Source Sans Pro';-inkscape-font-specification:'Source Sans Pro'"
         d="m 50.109269,474.15931 7.298536,-10.23407 -1.61205,-1.14965 1.079974,-1.51435 1.699145,1.02752 1.341258,-1.88072 q 1.306421,-1.83188 2.885885,-2.28991 1.603889,-0.44061 3.386914,0.83097 0.561775,0.40064 0.963181,0.87114 0.443249,0.4635 0.736541,0.93059 l -1.537043,1.22524 q -0.450448,-0.76341 -1.134348,-1.25114 -1.6609,-1.18449 -3.29828,1.11146 l -1.341258,1.88072 2.515774,1.79415 -1.167069,1.63648 -2.515774,-1.79415 -7.298536,10.23407 z" />
      <path
         id="path900"
         style="font-style:normal;font-variant:normal;font-weight:normal;font-stretch:normal;font-family:'Source Sans Pro';-inkscape-font-specification:'Source Sans Pro'"
         d="m 56.934942,479.01531 8.700469,-11.69949 1.636967,1.21735 -1.084643,1.81042 0.07222,0.0537 q 1.469134,-0.21598 2.79566,-0.0894 1.368501,0.12044 2.596226,1.03345 1.853624,1.37847 1.836875,3.16055 0.0073,1.79999 -1.675483,4.06285 l -5.513878,7.4145 -1.973989,-1.46798 5.316954,-7.14969 q 1.235251,-1.66104 1.242711,-2.77708 0.02536,-1.14012 -1.130145,-1.99942 -0.914776,-0.68029 -1.953036,-0.74206 -1.038259,-0.0618 -2.591343,0.16654 l -6.301575,8.47371 z" />
      <path
         id="path902"
         style="font-style:normal;font-variant:normal;font-weight:normal;font-stretch:normal;font-family:'Source Sans Pro';-inkscape-font-specification:'Source Sans Pro'"
         d="m 74.367643,492.9147 q -1.132234,-0.93752 -1.800565,-2.15306 -0.626091,-1.21951 -0.753251,-2.57119 -0.08492,-1.35565 0.398412,-2.78607 0.483332,-1.43041 1.631316,-2.81682 1.147985,-1.38641 2.463162,-2.12804 1.357418,-0.7456 2.682014,-0.93413 1.347703,-0.1694 2.574132,0.18397 1.245561,0.33027 2.216048,1.13386 1.062914,0.88012 1.58863,1.93862 0.548823,1.07763 0.529395,2.23003 0.0037,1.17154 -0.499522,2.39075 -0.503201,1.21922 -1.498121,2.42077 -0.24873,0.30039 -0.520567,0.58165 -0.229597,0.27728 -0.448008,0.44697 l -7.579038,-6.27564 q -1.376846,1.89799 -1.263375,3.78363 0.155712,1.88166 1.77319,3.22098 0.808739,0.66965 1.670167,0.99345 0.903669,0.31981 1.852815,0.44359 l -0.363088,1.80263 q -1.12208,-0.15012 -2.310242,-0.54971 -1.188162,-0.39959 -2.343504,-1.35624 z m 2.089781,-9.72077 6.007775,4.9746 q 1.415847,-1.70991 1.403486,-3.20022 0.02988,-1.49429 -1.287211,-2.58488 -0.600777,-0.49746 -1.346671,-0.72559 -0.722788,-0.20899 -1.544479,-0.11038 -0.802559,0.0755 -1.638673,0.47376 -0.813009,0.4174 -1.594227,1.17271 z" />
      <path
         id="path904"
         style="font-style:normal;font-variant:normal;font-weight:normal;font-stretch:normal;font-family:'Source Sans Pro';-inkscape-font-specification:'Source Sans Pro'"
         d="m 81.388238,498.50179 9.773739,-10.81899 1.513767,1.36752 -1.613901,2.09977 0.06678,0.0603 q 1.481618,-0.52125 2.803749,-0.41844 1.344391,0.12293 2.279365,0.96757 0.645578,0.58321 0.956482,1.26837 l -1.804142,1.28104 q -0.186693,-0.33037 -0.369085,-0.576 -0.182392,-0.24563 -0.516311,-0.54729 -0.6901,-0.62343 -1.949748,-0.75065 -1.237387,-0.10712 -3.040775,0.77031 l -6.274498,6.94553 z" />
      <path
         id="path906"
         style="font-style:normal;font-variant:normal;font-weight:normal;font-stretch:normal;font-family:'Source Sans Pro';-inkscape-font-specification:'Source Sans Pro'"
         d="m 91.520267,508.33985 q -1.134386,-1.07087 -1.768417,-2.45326 -0.63403,-1.38239 -0.800342,-2.73581 l 2.027073,-0.35549 q 0.162648,1.22619 0.553048,2.25482 0.412215,1.04923 1.37208,1.95535 1.047126,0.9885 2.02375,1.00282 0.976625,0.0143 1.635623,-0.68377 0.39128,-0.41449 0.461441,-0.92584 0.07016,-0.51134 -0.07295,-1.059 -0.100696,-0.54887 -0.372249,-1.13526 -0.271553,-0.5864 -0.543105,-1.17279 -0.38185,-0.73177 -0.722513,-1.50718 -0.320069,-0.79721 -0.448687,-1.57872 -0.08621,-0.78273 0.08325,-1.53039 0.169465,-0.74765 0.807869,-1.42392 0.597218,-0.63263 1.352026,-0.95148 0.797218,-0.32007 1.626022,-0.28027 0.871213,0.0386 1.753414,0.45882 0.9028,0.39844 1.75359,1.2016 1.0035,0.94731 1.50298,2.07891 0.52129,1.15219 0.65845,2.23057 l -1.92166,0.33123 q -0.1541,-0.92933 -0.49598,-1.74714 -0.34188,-0.81781 -1.03997,-1.47681 -1.003493,-0.94731 -1.915893,-0.94226 -0.890586,0.0256 -1.467209,0.63648 -0.350093,0.37085 -0.421475,0.83979 -0.05079,0.44713 0.0705,0.97418 0.141883,0.50525 0.391621,1.07105 0.292147,0.56458 0.585515,1.17157 0.361256,0.75358 0.701918,1.52899 0.362478,0.79599 0.470503,1.59932 0.128618,0.78151 -0.08203,1.57279 -0.188837,0.81187 -0.889023,1.55359 -0.617811,0.65445 -1.415028,0.97452 -0.775403,0.34066 -1.689025,0.30331 -0.891806,-0.0168 -1.860051,-0.47698 -0.967024,-0.41781 -1.905074,-1.30334 z" />
      <path
         id="path908"
         style="font-style:normal;font-variant:normal;font-weight:normal;font-stretch:normal;font-family:'Source Sans Pro';-inkscape-font-specification:'Source Sans Pro'"
         d="m 100.76563,517.17614 q -0.84443,-0.80984 -1.179851,-1.63033 -0.313769,-0.79971 -0.245783,-1.60741 0.08964,-0.78694 0.561028,-1.58185 0.471396,-0.79492 1.218936,-1.57439 l 5.58583,-5.82438 -1.55894,-1.49509 1.28744,-1.34242 1.74938,1.46989 3.04058,-2.73701 1.49399,1.43279 -2.82407,2.94467 2.83641,2.72024 -1.39127,1.45068 -2.8364,-2.72024 -5.6066,5.84603 q -0.93443,0.97434 -1.10713,1.84788 -0.13028,0.87266 0.7791,1.7448 0.28148,0.26994 0.68932,0.49481 0.40784,0.22487 0.77149,0.36579 l -0.94101,1.67467 q -0.5784,-0.26374 -1.20187,-0.65385 -0.62259,-0.34768 -1.12058,-0.82528 z" />
      <path
         id="path910"
         style="font-style:normal;font-variant:normal;font-weight:normal;font-stretch:normal;font-family:'Source Sans Pro';-inkscape-font-specification:'Source Sans Pro'"
         d="m 105.01852,520.75522 10.04547,-10.56717 1.47853,1.40554 -1.66673,2.05809 0.0652,0.062 q 1.49438,-0.48345 2.81347,-0.34707 1.34084,0.15704 2.25405,1.02517 0.63055,0.59942 0.92395,1.29226 l -1.83611,1.23479 q -0.17824,-0.33501 -0.35433,-0.5852 -0.17609,-0.25018 -0.50224,-0.56022 -0.67404,-0.64077 -1.93005,-0.79996 -1.23426,-0.13852 -3.05936,0.69281 l -6.44895,6.78386 z" />
      <path
         id="path912"
         style="font-style:normal;font-variant:normal;font-weight:normal;font-stretch:normal;font-family:'Source Sans Pro';-inkscape-font-specification:'Source Sans Pro'"
         d="m 112.04102,527.91085 q -0.54281,-0.51755 -0.5817,-1.25929 0.004,-0.74276 0.56247,-1.329 0.60036,-0.62966 1.3214,-0.64684 0.76346,-0.0182 1.30627,0.49936 0.5211,0.49685 0.51758,1.2396 0.0389,0.74175 -0.56147,1.37141 -0.55895,0.58624 -1.32241,0.60443 -0.72104,0.0172 -1.24214,-0.47967 z" />
    </g>
  </g>
</svg>
