<?xml version="1.0" encoding="UTF-8" standalone="no"?>
<svg
   xmlns:dc="http://purl.org/dc/elements/1.1/"
   xmlns:cc="http://creativecommons.org/ns#"
   xmlns:rdf="http://www.w3.org/1999/02/22-rdf-syntax-ns#"
   xmlns:svg="http://www.w3.org/2000/svg"
   xmlns="http://www.w3.org/2000/svg"
   version="1.1"
   id="svg4474"
   viewBox="0 0 440 64.000001"
   height="64"
   width="440">
  <defs
     id="defs4476" />
  <metadata
     id="metadata4479">
    <rdf:RDF>
      <cc:Work
         rdf:about="">
        <dc:format>image/svg+xml</dc:format>
        <dc:type
           rdf:resource="http://purl.org/dc/dcmitype/StillImage" />
        <dc:title></dc:title>
      </cc:Work>
    </rdf:RDF>
  </metadata>
  <g
     transform="translate(491.42856,36.780653)"
     id="layer1">
    <circle
       style="color:#000000;clip-rule:nonzero;display:inline;overflow:visible;visibility:visible;opacity:0.2;isolation:auto;mix-blend-mode:normal;color-interpolation:sRGB;color-interpolation-filters:linearRGB;solid-color:#000000;solid-opacity:1;fill:#ffffff;fill-opacity:1;fill-rule:nonzero;stroke:none;stroke-width:16.02443886;stroke-linecap:round;stroke-linejoin:round;stroke-miterlimit:4;stroke-dasharray:none;stroke-dashoffset:0;stroke-opacity:1;color-rendering:auto;image-rendering:auto;shape-rendering:auto;text-rendering:auto;enable-background:accumulate"
       id="circle4359"
       cx="-365.42856"
       cy="-4.7806525"
       r="32" />
    <path
       id="path4361"
       d="m -365.58737,-21.387378 c -4.3114,0 -7.8496,3.5382 -7.8496,7.8496 0,1.2873 0.3216,2.5022 0.8789,3.5780996 l -7.6992,7.6993 -16.8809,0 a 2.0002,2.0002 0 0 0 -0.1797,0.01 32,32 0 0 0 0.5977,3.9942 l 18.1191,0 8.7227,-8.7227 c 1.2364,0.8146 2.7106,1.2949 4.291,1.2949 4.3114,0 7.8496,-3.5382 7.8496,-7.8495996 0,-4.3114 -3.5382,-7.8496 -7.8496,-7.8496 z m 0,4 c 2.1496,0 3.8496,1.7 3.8496,3.8496 0,2.1496 -1.7,3.8495996 -3.8496,3.8495996 -2.1496,0 -3.8496,-1.6999996 -3.8496,-3.8495996 0,-2.1496 1.7,-3.8496 3.8496,-3.8496 z m 13.332,6.0898 -8.7207,8.7206996 c -1.2367,-0.8152 -2.712,-1.2929 -4.2929,-1.2929 -4.3114,0 -7.8496,3.53819998 -7.8496,7.8496 0,4.3113 3.5382,7.8496004 7.8496,7.8496004 4.3113,0 7.8496,-3.5383004 7.8496,-7.8496004 0,-1.2868 -0.3221,-2.5026 -0.8789,-3.57810002 l 7.6992,-7.69929998 16.8808,0 a 2.0002,2.0002 0 0 0 0.1778,-0.01 32,32 0 0 0 -0.5957,-3.9921996 l -18.1192,0 z m -13.0136,11.42779958 c 2.1496,0 3.8496,1.70000002 3.8496,3.84960002 0,2.1496 -1.7,3.8496 -3.8496,3.8496 -2.1496,0 -3.8496,-1.7 -3.8496,-3.8496 0,-2.1496 1.7,-3.84960002 3.8496,-3.84960002 z"
       clip-path="none"
       style="color:#000000;font-style:normal;font-variant:normal;font-weight:normal;font-stretch:normal;font-size:medium;line-height:normal;font-family:sans-serif;text-indent:0;text-align:start;text-decoration:none;text-decoration-line:none;text-decoration-style:solid;text-decoration-color:#000000;letter-spacing:normal;word-spacing:normal;text-transform:none;direction:ltr;block-progression:tb;writing-mode:lr-tb;baseline-shift:baseline;text-anchor:start;white-space:normal;clip-rule:nonzero;display:inline;overflow:visible;visibility:visible;opacity:1;isolation:auto;mix-blend-mode:normal;color-interpolation:sRGB;color-interpolation-filters:linearRGB;solid-color:#000000;solid-opacity:1;fill:#ffffff;fill-opacity:1;fill-rule:evenodd;stroke:none;stroke-width:4;stroke-linecap:round;stroke-linejoin:miter;stroke-miterlimit:4;stroke-dasharray:none;stroke-dashoffset:0;stroke-opacity:1;color-rendering:auto;image-rendering:auto;shape-rendering:auto;text-rendering:auto;enable-background:accumulate" />
    <circle
       style="color:#000000;clip-rule:nonzero;display:inline;overflow:visible;visibility:visible;opacity:0.2;isolation:auto;mix-blend-mode:normal;color-interpolation:sRGB;color-interpolation-filters:linearRGB;solid-color:#000000;solid-opacity:1;fill:#ffffff;fill-opacity:1;fill-rule:nonzero;stroke:none;stroke-width:16.02443886;stroke-linecap:round;stroke-linejoin:round;stroke-miterlimit:4;stroke-dasharray:none;stroke-dashoffset:0;stroke-opacity:1;color-rendering:auto;image-rendering:auto;shape-rendering:auto;text-rendering:auto;enable-background:accumulate"
       id="circle4363"
       cx="-177.42857"
       cy="-4.7806525"
       r="32" />
    <path
       style="color:#000000;font-style:normal;font-variant:normal;font-weight:normal;font-stretch:normal;font-size:medium;line-height:normal;font-family:sans-serif;text-indent:0;text-align:start;text-decoration:none;text-decoration-line:none;text-decoration-style:solid;text-decoration-color:#000000;letter-spacing:normal;word-spacing:normal;text-transform:none;direction:ltr;block-progression:tb;writing-mode:lr-tb;baseline-shift:baseline;text-anchor:start;white-space:normal;clip-rule:nonzero;display:inline;overflow:visible;visibility:visible;opacity:1;isolation:auto;mix-blend-mode:normal;color-interpolation:sRGB;color-interpolation-filters:linearRGB;solid-color:#000000;solid-opacity:1;fill:#ffffff;fill-opacity:1;fill-rule:nonzero;stroke:none;stroke-width:3.5;stroke-linecap:round;stroke-linejoin:round;stroke-miterlimit:4;stroke-dasharray:none;stroke-dashoffset:0;stroke-opacity:1;color-rendering:auto;image-rendering:auto;shape-rendering:auto;text-rendering:auto;enable-background:accumulate"
       d="m -186.01147,-23.388068 a 1.750175,1.750175 0 0 0 0,3.5 l 1.4356,0 0,26.5682996 c 0,3.9295004 3.217,7.1485004 7.1465,7.1485004 3.9295,0 7.1484,-3.2188 7.1484,-7.1485004 l 0,-26.5682996 1.4356,0 a 1.750175,1.750175 0 0 0 0,-3.5 l -3.1856,0 -10.7949,0 -3.1856,0 z m 4.9356,3.5 7.2949,0 0,13.5487996 -7.2949,-2.7031 0,-10.8456996 z"
       id="path4365" />
    <circle
       r="32"
       cy="-4.7806525"
       cx="-83.428574"
       id="circle4367"
       style="color:#000000;clip-rule:nonzero;display:inline;overflow:visible;visibility:visible;opacity:0.2;isolation:auto;mix-blend-mode:normal;color-interpolation:sRGB;color-interpolation-filters:linearRGB;solid-color:#000000;solid-opacity:1;fill:#ffffff;fill-opacity:1;fill-rule:nonzero;stroke:none;stroke-width:16.02443886;stroke-linecap:round;stroke-linejoin:round;stroke-miterlimit:4;stroke-dasharray:none;stroke-dashoffset:0;stroke-opacity:1;color-rendering:auto;image-rendering:auto;shape-rendering:auto;text-rendering:auto;enable-background:accumulate" />
    <path
       style="color:#000000;font-style:normal;font-variant:normal;font-weight:normal;font-stretch:normal;font-size:medium;line-height:normal;font-family:sans-serif;text-indent:0;text-align:start;text-decoration:none;text-decoration-line:none;text-decoration-style:solid;text-decoration-color:#000000;letter-spacing:normal;word-spacing:normal;text-transform:none;direction:ltr;block-progression:tb;writing-mode:lr-tb;baseline-shift:baseline;text-anchor:start;white-space:normal;clip-rule:nonzero;display:inline;overflow:visible;visibility:visible;opacity:1;isolation:auto;mix-blend-mode:normal;color-interpolation:sRGB;color-interpolation-filters:linearRGB;solid-color:#000000;solid-opacity:1;fill:#ffffff;fill-opacity:1;fill-rule:evenodd;stroke:none;stroke-width:3.5;stroke-linecap:round;stroke-linejoin:miter;stroke-miterlimit:4;stroke-dasharray:none;stroke-dashoffset:0;stroke-opacity:1;color-rendering:auto;image-rendering:auto;shape-rendering:auto;text-rendering:auto;enable-background:accumulate"
       d="m -76.023971,-23.001368 a 1.750175,1.750175 0 0 0 -1.7227,1.7754 l 0,4.2265 a 5.0995803,5.0995803 0 0 0 -0.3945,0.168 l -2.9922,-2.9922 a 1.750175,1.750175 0 0 0 -1.2558,-0.5293 1.750175,1.750175 0 0 0 -1.2188,3.0039 l 2.9922,2.9922 a 5.0995803,5.0995803 0 0 0 -0.1641,0.3946 l -4.2324,0 a 1.750175,1.750175 0 1 0 0,3.5 l 4.2285,0 a 5.0995803,5.0995803 0 0 0 0.168,0.3945 l -20.503899,20.5039 a 1.750175,1.750175 0 1 0 2.474599,2.4746 l 20.5039,-20.5039004 a 5.0995803,5.0995803 0 0 0 0.3945,0.1641 l 0,4.2324 a 1.750175,1.750175 0 1 0 3.5,0 l 0,-4.2305 a 5.0995803,5.0995803 0 0 0 0.3946,-0.164 l 2.9922,2.9921 a 1.750175,1.750175 0 1 0 2.4746,-2.4746 l -2.9922,-2.9921996 a 5.0995803,5.0995803 0 0 0 0.164,-0.3964 l 4.2325,0 a 1.750175,1.750175 0 1 0 0,-3.5 l -4.2305,0 a 5.0995803,5.0995803 0 0 0 -0.166,-0.3946 l 2.9922,-2.9922 a 1.750175,1.750175 0 0 0 -1.2715,-3.0039 1.750175,1.750175 0 0 0 -1.2031,0.5293 l -2.9922,2.9922 a 5.0995803,5.0995803 0 0 0 -0.3946,-0.164 l 0,-4.2305 a 1.750175,1.750175 0 0 0 -1.7773,-1.7754 z m 0.027,7.6211 a 3.1679213,3.1679213 0 0 1 3.168,3.168 3.1679213,3.1679213 0 0 1 -3.168,3.1678996 3.1679213,3.1679213 0 0 1 -3.168,-3.1678996 3.1679213,3.1679213 0 0 1 3.168,-3.168 z"
       id="path4369" />
    <circle
       r="32"
       cy="-4.7806525"
       cx="-459.42856"
       id="circle4371"
       style="color:#000000;clip-rule:nonzero;display:inline;overflow:visible;visibility:visible;opacity:0.2;isolation:auto;mix-blend-mode:normal;color-interpolation:sRGB;color-interpolation-filters:linearRGB;solid-color:#000000;solid-opacity:1;fill:#ffffff;fill-opacity:1;fill-rule:nonzero;stroke:none;stroke-width:16.02443886;stroke-linecap:round;stroke-linejoin:round;stroke-miterlimit:4;stroke-dasharray:none;stroke-dashoffset:0;stroke-opacity:1;color-rendering:auto;image-rendering:auto;shape-rendering:auto;text-rendering:auto;enable-background:accumulate" />
    <path
       id="path4373"
       d="m -469.38207,-14.734158 c -5.5142,-10e-6 -9.9535,4.43926 -9.9535,9.9534796 0,5.51421998 4.4393,9.95348 9.9535,9.9535 l 8.6264,-2e-5 0,-19.9069796 -8.6264,2e-5 z m 11.2807,0 -1e-4,19.9069796 8.6264,0 c 5.5142,-10e-6 9.9535,-4.43928002 9.9535,-9.95351 0,-5.5142196 -4.4393,-9.9534796 -9.9535,-9.9534696 l -8.6263,0 z"
       style="color:#000000;clip-rule:nonzero;display:inline;overflow:visible;visibility:visible;opacity:1;isolation:auto;mix-blend-mode:normal;color-interpolation:sRGB;color-interpolation-filters:linearRGB;solid-color:#000000;solid-opacity:1;fill:#ffffff;fill-opacity:1;fill-rule:nonzero;stroke:none;stroke-width:16;stroke-linecap:round;stroke-linejoin:round;stroke-miterlimit:4;stroke-dasharray:none;stroke-dashoffset:0;stroke-opacity:0.8;color-rendering:auto;image-rendering:auto;shape-rendering:auto;text-rendering:auto;enable-background:accumulate" />
    <circle
       style="color:#000000;clip-rule:nonzero;display:inline;overflow:visible;visibility:visible;opacity:0.2;isolation:auto;mix-blend-mode:normal;color-interpolation:sRGB;color-interpolation-filters:linearRGB;solid-color:#000000;solid-opacity:1;fill:#ffffff;fill-opacity:1;fill-rule:nonzero;stroke:none;stroke-width:16.02443886;stroke-linecap:round;stroke-linejoin:round;stroke-miterlimit:4;stroke-dasharray:none;stroke-dashoffset:0;stroke-opacity:1;color-rendering:auto;image-rendering:auto;shape-rendering:auto;text-rendering:auto;enable-background:accumulate"
       id="circle4375"
       cx="-271.42856"
       cy="-4.7806525"
       r="32" />
    <path
       style="color:#000000;clip-rule:nonzero;display:inline;overflow:visible;visibility:visible;opacity:1;isolation:auto;mix-blend-mode:normal;color-interpolation:sRGB;color-interpolation-filters:linearRGB;solid-color:#000000;solid-opacity:1;fill:#ffffff;fill-opacity:1;fill-rule:nonzero;stroke:none;stroke-width:1;stroke-linecap:round;stroke-linejoin:round;stroke-miterlimit:4;stroke-dasharray:none;stroke-dashoffset:0;stroke-opacity:1;color-rendering:auto;image-rendering:auto;shape-rendering:auto;text-rendering:auto;enable-background:accumulate"
       d="m -279.44407,-29.457668 c -0.091,0 -0.1791,0.012 -0.2657,0.035 -2.4427,0.6546 -0.9489,15.7295 -0.3222,18.4883 0.2089,0.9195 1.2732,2.7841996 2.2051,4.4980996 0.7413,-2.8428 3.3332,-4.9609996 6.3984,-4.9609996 0.6378,0 1.253,0.097 1.8379,0.2676 -3.3738,-10.6585 -7.4244,-18.3611 -9.8535,-18.3281 z m 12.6425,19.9647996 c 1.2245,1.2029 1.9903,2.8732 1.9903,4.7129 0,1.8674 -0.79,3.5571 -2.0469,4.76369998 11.3308,2.49920002 20.2697,2.77520002 20.9102,0.3848 0.6545,-2.44269998 -13.1471,-8.68489998 -15.8496,-9.52149998 -0.9016,-0.2792 -3.0523,-0.2896 -5.004,-0.3399 z m -4.6269,1.0957 c -2.0156,0 -3.6172,1.6016 -3.6172,3.6172 0,2.0156 1.6016,3.6172 3.6172,3.6172 2.0156,0 3.6172,-1.6016 3.6172,-3.6172 0,-2.0156 -1.6016,-3.6172 -3.6172,-3.6172 z m -6.416,5.2012 c -7.8262,8.5602 -12.5326,16.1588004 -10.7832,17.9082004 1.7882,1.7882 14.096,-7.0426004 16.1719,-8.9648004 0.6918,-0.6406 1.7728,-2.4967 2.791,-4.1602 -0.563,0.1573 -1.1526,0.25 -1.7637,0.25 -3.0904,0 -5.6995,-2.15510002 -6.416,-5.0332 z"
       id="path4377" />
  </g>
</svg>
